<svg width="32" height="32" viewBox="0 0 32 32" fill="none" xmlns="http://www.w3.org/2000/svg">
<path fill-rule="evenodd" clip-rule="evenodd" d="M7 5C5.89543 5 5 5.89543 5 7V25C5 26.1046 5.89543 27 7 27H25C26.1046 27 27 26.1046 27 25V7C27 5.89543 26.1046 5 25 5H7ZM24 10C24 11.1046 23.1046 12 22 12C20.8954 12 20 11.1046 20 10C20 8.89543 20.8954 8 22 8C23.1046 8 24 8.89543 24 10ZM20 17C20 17.5523 19.5523 18 19 18C18.4477 18 18 17.5523 18 17C18 16.4477 18.4477 16 19 16C19.5523 16 20 16.4477 20 17ZM9 15C9.55228 15 10 14.5523 10 14C10 13.4477 9.55228 13 9 13C8.44772 13 8 13.4477 8 14C8 14.5523 8.44772 15 9 15ZM15 20.5C15 22.433 13.433 24 11.5 24C9.567 24 8 22.433 8 20.5C8 18.567 9.567 17 11.5 17C13.433 17 15 18.567 15 20.5Z" fill="black"/>
</svg>
