<svg width="32" height="32" viewBox="0 0 32 32" fill="none" xmlns="http://www.w3.org/2000/svg">
<path d="M6 7C6 6.44772 6.44771 6 7 6V4C5.34315 4 4 5.34314 4 7H6ZM6 25V7H4V25H6ZM7 26C6.44772 26 6 25.5523 6 25H4C4 26.6569 5.34314 28 7 28V26ZM25 26H7V28H25V26ZM26 25C26 25.5523 25.5523 26 25 26V28C26.6569 28 28 26.6569 28 25H26ZM26 7V25H28V7H26ZM25 6C25.5523 6 26 6.44772 26 7H28C28 5.34315 26.6569 4 25 4V6ZM7 6H25V4H7V6ZM22 13C23.6569 13 25 11.6569 25 10H23C23 10.5523 22.5523 11 22 11V13ZM19 10C19 11.6569 20.3431 13 22 13V11C21.4477 11 21 10.5523 21 10H19ZM22 7C20.3431 7 19 8.34315 19 10H21C21 9.44772 21.4477 9 22 9V7ZM25 10C25 8.34315 23.6569 7 22 7V9C22.5523 9 23 9.44772 23 10H25ZM19 19C20.1046 19 21 18.1046 21 17H19V19ZM17 17C17 18.1046 17.8954 19 19 19V17H17ZM19 15C17.8954 15 17 15.8954 17 17H19V15ZM21 17C21 15.8954 20.1046 15 19 15V17H21ZM9 14V16C10.1046 16 11 15.1046 11 14H9ZM9 14H11C11 12.8954 10.1046 12 9 12V14ZM9 14V12C7.89543 12 7 12.8954 7 14H9ZM9 14H7C7 15.1046 7.89543 16 9 16V14ZM11.5 25C13.9853 25 16 22.9853 16 20.5H14C14 21.8807 12.8807 23 11.5 23V25ZM7 20.5C7 22.9853 9.01472 25 11.5 25V23C10.1193 23 9 21.8807 9 20.5H7ZM11.5 16C9.01472 16 7 18.0147 7 20.5H9C9 19.1193 10.1193 18 11.5 18V16ZM16 20.5C16 18.0147 13.9853 16 11.5 16V18C12.8807 18 14 19.1193 14 20.5H16Z" fill="black"/>
</svg>
