<svg width="32" height="32" viewBox="0 0 32 32" fill="none" xmlns="http://www.w3.org/2000/svg">
<path d="M7.5252 11.0919L7.79133 12.0558L7.79133 12.0558L7.5252 11.0919ZM14.5443 6.82068L13.8885 6.06581L13.8885 6.06581L14.5443 6.82068ZM16.971 27.1631L16.6576 26.2135L16.971 27.1631ZM24.0554 6.10425L23.4031 6.86225C23.4277 6.88337 23.4532 6.90329 23.4797 6.92193L24.0554 6.10425ZM7.79133 12.0558C11.1183 11.1373 13.3806 9.15654 15.2002 7.57555L13.8885 6.06581C12.0515 7.66187 10.0977 9.34423 7.25907 10.1279L7.79133 12.0558ZM16.6576 26.2135C13.0681 27.3981 10.3678 27.1292 8.4338 26.1717C6.4915 25.2101 5.18613 23.4872 4.51706 21.5088C3.84476 19.5208 3.83884 17.3383 4.43659 15.5578C5.03188 13.7847 6.18485 12.4993 7.79133 12.0558L7.25907 10.1279C4.85108 10.7928 3.28837 12.694 2.54059 14.9213C1.79525 17.1414 1.81885 19.7732 2.62247 22.1495C3.4293 24.5352 5.04623 26.7262 7.54643 27.9641C10.0549 29.206 13.3173 29.422 17.2844 28.1127L16.6576 26.2135ZM23.4797 6.92193C26.7713 9.23932 28.5339 12.8924 27.8551 16.4461C27.1807 19.9764 24.018 23.7844 16.6576 26.2135L17.2844 28.1127C25.0373 25.5542 28.959 21.3266 29.8196 16.8213C30.6757 12.3394 28.4238 7.9568 24.6311 5.28657L23.4797 6.92193ZM15.2002 7.57555C16.7282 6.24798 17.8143 5.33712 18.9829 5.07403C20.0127 4.84219 21.3411 5.08786 23.4031 6.86225L24.7076 5.34625C22.4055 3.36527 20.445 2.69481 18.5437 3.12286C16.7812 3.51966 15.2939 4.8447 13.8885 6.06581L15.2002 7.57555ZM22.7809 15C22.7809 17.2636 21.0611 19 19.058 19V21C22.2716 21 24.7809 18.2592 24.7809 15H22.7809ZM19.058 11C21.0611 11 22.7809 12.7364 22.7809 15H24.7809C24.7809 11.7408 22.2716 9 19.058 9V11ZM15.335 15C15.335 12.7364 17.0548 11 19.058 11V9C15.8443 9 13.335 11.7408 13.335 15H15.335ZM19.058 19C17.0548 19 15.335 17.2636 15.335 15H13.335C13.335 18.2592 15.8443 21 19.058 21V19Z" fill="black"/>
</svg>
