<svg width="32" height="32" viewBox="0 0 32 32" fill="none" xmlns="http://www.w3.org/2000/svg">
<path fill-rule="evenodd" clip-rule="evenodd" d="M21.0653 17.6699C20.3831 17.6699 19.7852 17.746 19.2499 17.8717C19.1808 17.8879 19.1126 17.905 19.0455 17.9229C18.7203 18.0094 18.4186 18.114 18.1351 18.2303C17.8293 18.3558 17.5448 18.4948 17.2748 18.6393C17.2147 18.6715 17.1553 18.7039 17.0966 18.7365C16.8618 18.867 16.6373 19.0002 16.4186 19.1307C16.4186 19.1307 16.4187 19.1307 16.4186 19.1307C16.4045 19.1391 16.3904 19.1475 16.3763 19.1559C15.8216 19.4868 15.2821 19.8086 14.657 20.0471C14.1306 20.2479 13.5433 20.3897 12.8349 20.4282C12.7079 20.4351 12.577 20.4386 12.4418 20.4386C12.103 20.4386 11.7772 20.4211 11.4645 20.3862C10.5394 20.283 9.7297 20.0274 9.0421 19.622C8.92774 19.5545 8.81675 19.483 8.70918 19.4072C8.58033 19.3165 8.45637 19.2199 8.33736 19.1174C8.28244 19.07 8.22856 19.0215 8.17575 18.9716C8.16235 18.9589 8.1484 18.9467 8.13395 18.9351C8.1326 18.9341 8.13125 18.933 8.12989 18.9319C8.09713 18.9061 8.06183 18.8835 8.0245 18.8642C8.00417 18.8537 7.98324 18.8443 7.96178 18.8358C7.88182 18.8045 7.79619 18.7886 7.7098 18.7891C7.62341 18.7895 7.53796 18.8063 7.45836 18.8384C7.37876 18.8706 7.30657 18.9175 7.24593 18.9764C7.18529 19.0353 7.13741 19.1051 7.10501 19.1818C7.07262 19.2585 7.05636 19.3406 7.05717 19.4233C7.05797 19.5061 7.07583 19.5878 7.10971 19.6639C7.14359 19.74 7.19284 19.809 7.25461 19.8668C7.26685 19.8784 7.27913 19.8899 7.29145 19.9013C7.29267 19.9024 7.29389 19.9036 7.29512 19.9047C7.35538 19.9606 7.41665 20.0152 7.4789 20.0685C7.55685 20.1352 7.63635 20.1999 7.71739 20.2625C7.85996 20.3727 8.00729 20.4766 8.15934 20.5742C8.20262 20.602 8.24629 20.6293 8.29034 20.656C8.66486 20.8835 9.06693 21.0739 9.4958 21.227C10.3688 21.5386 11.3529 21.6955 12.4418 21.6955C13.57 21.6955 14.4514 21.4912 15.2089 21.1928C15.8847 20.9267 16.4618 20.5857 17.0278 20.2481C17.0278 20.2481 17.0278 20.2481 17.0278 20.2481C17.0419 20.2397 17.0561 20.2312 17.0702 20.2228C17.2653 20.1064 17.4585 19.9911 17.6542 19.8801C18.5794 19.3556 19.561 18.9268 21.0653 18.9268C21.7758 18.9268 22.2808 19.0898 22.8153 19.2625L22.8175 19.2632C22.8273 19.2664 22.8371 19.2695 22.8469 19.2727C22.847 19.2727 22.8468 19.2727 22.8469 19.2727C23.1988 19.3861 23.5806 19.5074 24.03 19.5823C24.2668 19.6217 24.5224 19.6484 24.8024 19.6543C24.8405 19.6551 24.8789 19.6555 24.9179 19.6555C24.9187 19.6555 24.9195 19.6555 24.9204 19.6555C24.9469 19.6555 24.9733 19.6552 24.9998 19.6546C25.1054 19.6523 25.2109 19.6452 25.3158 19.6332C25.3167 19.6331 25.3176 19.633 25.3185 19.6329C25.3229 19.6324 25.3274 19.6319 25.3318 19.6314C25.3398 19.6304 25.3477 19.6293 25.3556 19.6281C25.5189 19.6027 25.6664 19.519 25.7683 19.3935C25.8751 19.2619 25.923 19.095 25.9013 18.9297C25.8797 18.7643 25.7903 18.6139 25.6529 18.5116C25.5195 18.4123 25.3514 18.3663 25.1837 18.3826C25.1831 18.3827 25.1826 18.3827 25.182 18.3828C25.1775 18.3832 25.1731 18.3837 25.1686 18.3843C25.1126 18.3909 25.0564 18.3952 25 18.3972C24.9738 18.3982 24.9476 18.3986 24.9214 18.3986C24.921 18.3986 24.9217 18.3986 24.9214 18.3986C24.7794 18.3986 24.6455 18.3918 24.5191 18.3795C24.3688 18.3649 24.2276 18.3424 24.0912 18.3142C24.0584 18.3074 24.0259 18.3002 23.9936 18.2928C23.7991 18.248 23.6122 18.192 23.4199 18.1309C23.3589 18.1115 23.2974 18.0917 23.2349 18.0715C23.2245 18.0681 23.2138 18.0647 23.2034 18.0613C23.2032 18.0612 23.2036 18.0614 23.2034 18.0613C22.9985 17.9952 22.7832 17.9264 22.5506 17.8655C22.2835 17.7955 21.9929 17.7356 21.6667 17.7011C21.4788 17.6813 21.2791 17.6699 21.0653 17.6699ZM23.8839 15.282C23.9448 15.3404 23.9931 15.4097 24.0261 15.4859C24.0591 15.5621 24.0761 15.6439 24.0761 15.7264C24.0761 15.8089 24.0591 15.8906 24.0261 15.9669C23.9931 16.0431 23.9448 16.1124 23.8839 16.1707C23.8816 16.1729 23.8794 16.175 23.8771 16.1771C23.8636 16.1897 23.8496 16.2016 23.8352 16.2129C23.8354 16.2128 23.835 16.2131 23.8352 16.2129C23.7858 16.2515 23.7301 16.2835 23.671 16.307C23.5914 16.3385 23.5061 16.3548 23.4199 16.3548C23.3337 16.3548 23.2484 16.3385 23.1688 16.307C23.1066 16.2823 23.049 16.2487 22.9977 16.2074C22.9832 16.1958 22.9693 16.1836 22.9559 16.1707L17.5418 10.9859C17.4809 10.9276 17.4325 10.8583 17.3995 10.7821C17.3666 10.7058 17.3496 10.6241 17.3496 10.5416C17.3496 10.459 17.3666 10.3773 17.3995 10.3011C17.4017 10.2961 17.4039 10.2911 17.4062 10.2861C17.4389 10.2158 17.4849 10.1517 17.5418 10.0972C17.6028 10.0388 17.6751 9.99254 17.7547 9.96095C17.8343 9.92935 17.9197 9.91309 18.0058 9.91309C18.092 9.91309 18.1774 9.92935 18.257 9.96095C18.319 9.98555 18.3766 10.0191 18.4278 10.0603C18.4277 10.0602 18.4279 10.0604 18.4278 10.0603C18.4422 10.0719 18.4565 10.0844 18.4698 10.0972L23.8839 15.282ZM19.6862 8.82706C19.4022 8.73148 19.1107 8.64307 18.812 8.56243C18.5489 8.49141 18.2801 8.42643 18.0058 8.36787C17.6955 8.30162 17.3781 8.24361 17.0537 8.19442C16.9915 8.185 16.9291 8.1759 16.8665 8.16712C16.0894 8.05834 15.2734 8 14.4203 8C13.7222 8 13.0817 8.04633 12.4941 8.132C12.4815 8.13384 12.4688 8.13571 12.4562 8.13759C12.111 8.18911 11.7841 8.25427 11.4745 8.33162C11.1907 8.40256 10.9214 8.48376 10.6661 8.5741C10.3797 8.6754 10.1108 8.78821 9.85831 8.91095C9.858 8.9111 9.85769 8.91125 9.85738 8.9114C9.59926 9.03691 9.35828 9.17281 9.1333 9.31743C7.71101 10.2317 6.92844 11.4943 6.50106 12.6831C6.44177 12.8481 6.38931 13.0116 6.34293 13.1726C6.24286 13.5199 6.17109 13.8554 6.11997 14.1677C6.09827 14.3003 6.08028 14.4288 6.06544 14.5522C6.01342 14.9848 6 15.3553 6 15.6265V18.5594C6 18.6102 6.00116 18.6627 6.00353 18.7166C6.01308 18.934 6.04231 19.1757 6.09498 19.4327C6.13512 19.6286 6.18887 19.8334 6.25788 20.0432C6.32476 20.2464 6.40598 20.4543 6.50305 20.6631C6.50371 20.6646 6.50438 20.666 6.50505 20.6674C6.90192 21.5194 7.56267 22.3872 8.58964 23.0236C9.53604 23.6101 10.7935 24 12.442 24C14.0528 24 15.1172 23.541 16.0834 22.9968C16.3 22.8748 16.5117 22.7485 16.7235 22.6222C17.1548 22.3648 17.5867 22.1072 18.0617 21.8848C18.0616 21.8848 18.0617 21.8848 18.0617 21.8848C18.2121 21.8144 18.367 21.7474 18.5275 21.6852C19.2276 21.4137 20.0359 21.2311 21.0651 21.2311C21.8832 21.2311 22.4564 21.4162 23.0251 21.5998C23.5849 21.7805 24.1403 21.9597 24.9203 21.9597C25.6131 21.9597 26.0991 21.724 26.4261 21.3647C26.685 21.0801 26.8443 20.7181 26.9274 20.3342C26.9775 20.1027 27 19.8632 27 19.6281V16.6953C27 14.001 24.5523 10.6766 20.2448 9.02779C20.0621 8.95787 19.8755 8.89078 19.6862 8.82706C19.6864 8.82713 19.686 8.827 19.6862 8.82706ZM12.3709 18.5788C12.3843 18.5917 12.3982 18.6039 12.4126 18.6155C12.4126 18.6155 12.4126 18.6155 12.4126 18.6155C12.4221 18.6231 12.4319 18.6306 12.4418 18.6377C12.5546 18.7185 12.6924 18.7629 12.8349 18.7629C13.0089 18.7629 13.1758 18.6967 13.2989 18.5788C13.3727 18.5082 13.4271 18.4224 13.4588 18.3291C13.48 18.2668 13.4911 18.2012 13.4911 18.1345C13.4911 17.9678 13.4219 17.808 13.2989 17.6901L13.2588 17.6517L9.15716 13.7234C9.14378 13.7105 9.12986 13.6983 9.11543 13.6867C9.11532 13.6866 9.11555 13.6868 9.11543 13.6867C9.06422 13.6455 9.00628 13.6117 8.94429 13.5871C8.86467 13.5555 8.77934 13.5392 8.69316 13.5392C8.60698 13.5392 8.52164 13.5555 8.44202 13.5871C8.38273 13.6106 8.32746 13.6423 8.27795 13.6811C8.26099 13.6944 8.2447 13.7085 8.22916 13.7234C8.1682 13.7817 8.11984 13.851 8.08685 13.9272C8.05386 14.0035 8.03688 14.0852 8.03688 14.1677C8.03688 14.2502 8.05386 14.332 8.08685 14.4082C8.09162 14.4192 8.0967 14.4301 8.1021 14.4408C8.13408 14.5042 8.177 14.5622 8.22916 14.6121L12.3709 18.5788ZM11.9385 10.1148C11.9251 10.102 11.9112 10.0898 11.8968 10.0781C11.8967 10.078 11.8969 10.0782 11.8968 10.0781C11.8456 10.0369 11.7877 10.0031 11.7257 9.97854C11.646 9.94695 11.5607 9.93069 11.4745 9.93069C11.3884 9.93069 11.303 9.94695 11.2234 9.97854C11.1438 10.0101 11.0715 10.0564 11.0105 10.1148C10.9496 10.1732 10.9012 10.2424 10.8682 10.3187C10.8352 10.3949 10.8183 10.4766 10.8183 10.5592C10.8183 10.5946 10.8214 10.6298 10.8276 10.6645C10.8358 10.7108 10.8494 10.7561 10.8682 10.7997C10.9012 10.8759 10.9496 10.9452 11.0105 11.0035L16.8108 16.5584C16.8242 16.5712 16.8381 16.5835 16.8526 16.5951C16.8526 16.5951 16.8526 16.5951 16.8526 16.5951C16.8569 16.5985 16.8612 16.602 16.8656 16.6053C16.9136 16.642 16.9668 16.6721 17.0237 16.6946C17.1033 16.7262 17.1887 16.7425 17.2748 16.7425C17.361 16.7425 17.4463 16.7262 17.5259 16.6946C17.6056 16.6631 17.6779 16.6168 17.7388 16.5584C17.7998 16.5001 17.8481 16.4308 17.8811 16.3545C17.9062 16.2965 17.922 16.2353 17.9281 16.173C17.93 16.1534 17.931 16.1338 17.931 16.1141C17.931 16.0315 17.914 15.9498 17.8811 15.8736C17.8481 15.7973 17.7998 15.7281 17.7388 15.6697L17.6987 15.6313L11.9385 10.1148ZM17.2623 16.0869L17.2748 16.0739L17.2665 16.0826L17.2623 16.0869ZM5.59628 10.0502C7.13623 7.73395 9.90899 6 14.4203 6C18.7775 6 22.3644 7.37597 24.8975 9.37497C27.3734 11.3289 29 14.0279 29 16.6953V19.6281C29 20.4432 28.8218 21.492 28.1655 22.3916C27.4384 23.3883 26.2977 23.9597 24.9203 23.9597C23.8232 23.9597 23.0166 23.699 22.4465 23.5146C22.4299 23.5093 22.4135 23.5039 22.3973 23.4987C21.8563 23.3241 21.5411 23.2311 21.0651 23.2311C19.6345 23.2311 18.8652 23.6733 17.7592 24.3331C17.7439 24.3423 17.7285 24.3515 17.713 24.3607C16.5145 25.076 14.9662 26 12.442 26C9.36301 26 7.18175 24.8521 5.79897 23.2355C4.48292 21.6969 4 19.8626 4 18.5594V15.6265C4 14.5999 4.15233 12.2221 5.59628 10.0502Z" fill="black"/>
</svg>
