<svg width="32" height="32" viewBox="0 0 32 32" fill="none" xmlns="http://www.w3.org/2000/svg">
<path d="M14.2222 7C5.61114 7 5 13.6126 5 15.5799V18.8793C5 20.8467 6.49997 25 12.0555 25C16.3888 25 17.1111 21.885 21.4999 21.885C23.2777 21.885 24 22.7047 25.7222 22.7047C27.4444 22.7047 28 21.3385 28 20.0816V16.7822C28 12.5742 22.8333 7 14.2222 7ZM17.6411 9.35938C17.7078 9.2937 17.787 9.24161 17.8742 9.20606C17.9614 9.17052 18.0549 9.15223 18.1493 9.15223C18.2436 9.15223 18.3371 9.17052 18.4243 9.20606C18.5115 9.24161 18.5907 9.2937 18.6574 9.35938L24.5871 15.1923C24.6538 15.2579 24.7068 15.3359 24.7429 15.4216C24.779 15.5074 24.7976 15.5993 24.7976 15.6922C24.7976 15.785 24.779 15.877 24.7429 15.9627C24.7068 16.0485 24.6538 16.1264 24.5871 16.1921C24.5204 16.2577 24.4411 16.3098 24.3539 16.3453C24.2668 16.3809 24.1733 16.3991 24.0789 16.3991C23.9845 16.3991 23.8911 16.3809 23.8039 16.3453C23.7167 16.3098 23.6375 16.2577 23.5707 16.1921L17.6411 10.3591C17.5743 10.2935 17.5213 10.2156 17.4852 10.1298C17.4491 10.044 17.4305 9.95211 17.4305 9.85926C17.4305 9.76642 17.4491 9.67448 17.4852 9.58871C17.5213 9.50294 17.5743 9.42501 17.6411 9.35938ZM10.4877 9.37917C10.5544 9.3135 10.6337 9.2614 10.7209 9.22586C10.8081 9.19032 10.9015 9.17202 10.9959 9.17202C11.0903 9.17202 11.1838 9.19032 11.271 9.22586C11.3582 9.2614 11.4374 9.3135 11.5041 9.37917L17.8568 15.6284C17.9235 15.6941 17.9765 15.772 18.0126 15.8578C18.0487 15.9435 18.0673 16.0355 18.0673 16.1283C18.0673 16.2212 18.0487 16.3131 18.0126 16.3989C17.9765 16.4846 17.9235 16.5626 17.8568 16.6282C17.7901 16.6939 17.7108 16.7459 17.6236 16.7815C17.5365 16.817 17.443 16.8353 17.3486 16.8353C17.2542 16.8353 17.1608 16.817 17.0736 16.7815C16.9864 16.7459 16.9072 16.6939 16.8404 16.6282L10.4877 10.379C10.421 10.3133 10.368 10.2354 10.3319 10.1496C10.2957 10.0639 10.2771 9.97192 10.2771 9.87907C10.2771 9.78622 10.2957 9.69429 10.3319 9.60851C10.368 9.52274 10.421 9.44481 10.4877 9.37917ZM7.44146 13.4388C7.50818 13.3731 7.5874 13.321 7.6746 13.2855C7.7618 13.2499 7.85526 13.2316 7.94965 13.2316C8.04403 13.2316 8.1375 13.2499 8.22469 13.2855C8.31189 13.321 8.39111 13.3731 8.45784 13.4388L12.994 17.9014C13.1288 18.034 13.2045 18.2138 13.2045 18.4013C13.2045 18.5888 13.1288 18.7686 12.994 18.9012C12.8592 19.0338 12.6764 19.1082 12.4858 19.1082C12.2952 19.1082 12.1124 19.0338 11.9776 18.9012L7.44146 14.4386C7.37469 14.3729 7.32173 14.295 7.2856 14.2092C7.24947 14.1235 7.23087 14.0315 7.23087 13.9387C7.23087 13.8458 7.24947 13.7539 7.2856 13.6681C7.32173 13.5823 7.37469 13.5044 7.44146 13.4388ZM26.1729 20.0853C26.0235 20.1035 25.873 20.1126 25.7223 20.1124C24.7499 20.1124 24.042 19.8774 23.4168 19.6703C22.8314 19.4761 22.2783 19.2926 21.5001 19.2926C19.5039 19.2926 18.3481 20.0008 17.1245 20.7506C15.7955 21.5651 14.4207 22.4075 12.0553 22.4075C9.69363 22.4075 7.78211 21.7152 6.3741 20.3502C6.30644 20.2851 6.25251 20.2075 6.2154 20.1219C6.17829 20.0363 6.15873 19.9443 6.15785 19.8513C6.15697 19.7582 6.17477 19.6659 6.21025 19.5796C6.24573 19.4933 6.29818 19.4147 6.36459 19.3484C6.431 19.2822 6.51007 19.2294 6.59725 19.1932C6.68444 19.1571 6.77802 19.1382 6.87264 19.1377C6.96726 19.1372 7.06104 19.1551 7.14862 19.1903C7.23619 19.2256 7.31583 19.2775 7.38296 19.3431C8.51257 20.4381 10.0844 20.9935 12.0553 20.9935C14.0094 20.9935 15.1535 20.2924 16.3645 19.5504C17.6434 18.7668 19.0931 17.8786 21.5001 17.8786C22.5137 17.8786 23.2376 18.1187 23.8763 18.3304C24.4715 18.5279 24.9858 18.6984 25.7223 18.6984C25.8132 18.6986 25.904 18.6932 25.9942 18.6823C26.1833 18.659 26.3741 18.7105 26.5246 18.8256C26.6751 18.9407 26.773 19.1098 26.7967 19.2959C26.8204 19.4819 26.768 19.6696 26.651 19.8177C26.5341 19.9657 26.3621 20.062 26.1729 20.0853Z" fill="black"/>
</svg>
