<svg width="32" height="32" viewBox="0 0 32 32" fill="none" xmlns="http://www.w3.org/2000/svg">
<path d="M2.29289 20.6262C2.10536 20.4387 1.99348 20.1834 2.02306 19.9198C2.22849 18.0894 3.78138 16.6667 5.66667 16.6667C7.69177 16.6667 9.33333 15.0251 9.33333 13C9.33333 10.9749 10.9749 9.33333 13 9.33333C15.0251 9.33333 16.6667 7.69177 16.6667 5.66667C16.6667 3.78138 18.0894 2.22849 19.9198 2.02306C20.1834 1.99348 20.4387 2.10536 20.6262 2.29289L22.2929 3.95956C22.9229 4.58953 22.4608 5.88732 21.7565 6.43291C20.8907 7.10359 20.3333 8.15335 20.3333 9.33333C20.3333 11.3584 18.6918 13 16.6667 13C14.6416 13 13 14.6416 13 16.6667C13 18.6918 11.3584 20.3333 9.33333 20.3333C8.15335 20.3333 7.10359 20.8907 6.43291 21.7565C5.88732 22.4608 4.58952 22.9229 3.95956 22.2929L2.29289 20.6262Z" fill="black"/>
<path d="M28.2929 11.6262C28.9229 12.2562 28.4585 13.5794 27.7914 14.1699C27.1016 14.7806 26.6667 15.6728 26.6667 16.6667C26.6667 18.5077 25.1743 20 23.3333 20C21.4923 20 20 21.4923 20 23.3333C20 25.1743 18.5077 26.6667 16.6667 26.6667C15.6728 26.6667 14.7806 27.1016 14.1699 27.7914C13.5794 28.4585 12.2562 28.9229 11.6262 28.2929L10.2929 26.9596C10.1054 26.772 9.99283 26.5165 10.0254 26.2533C10.229 24.6073 11.6323 23.3333 13.3333 23.3333C15.1743 23.3333 16.6667 21.841 16.6667 20C16.6667 18.159 18.159 16.6667 20 16.6667C21.841 16.6667 23.3333 15.1743 23.3333 13.3333C23.3333 11.6323 24.6073 10.229 26.2533 10.0254C26.5165 9.99283 26.772 10.1054 26.9596 10.2929L28.2929 11.6262Z" fill="black"/>
</svg>
