<svg width="32" height="32" viewBox="0 0 32 32" fill="none" xmlns="http://www.w3.org/2000/svg">
<path d="M2 20.3333C2 18.3082 3.64157 16.6667 5.66667 16.6667C7.69177 16.6667 9.33333 15.0251 9.33333 13C9.33333 10.9749 10.9749 9.33333 13 9.33333C15.0251 9.33333 16.6667 7.69177 16.6667 5.66667C16.6667 3.64157 18.3082 2 20.3333 2L24 5.66667C21.9749 5.66667 20.3333 7.30823 20.3333 9.33333C20.3333 11.3584 18.6918 13 16.6667 13C14.6416 13 13 14.6416 13 16.6667C13 18.6918 11.3584 20.3333 9.33333 20.3333C7.30823 20.3333 5.66667 21.9749 5.66667 24L2 20.3333Z" stroke="black" stroke-width="2" stroke-miterlimit="10" stroke-linejoin="round"/>
<path d="M30 13.3333C28.159 13.3333 26.6667 14.8257 26.6667 16.6667C26.6667 18.5077 25.1743 20 23.3333 20C21.4923 20 20 21.4923 20 23.3333C20 25.1743 18.5077 26.6667 16.6667 26.6667C14.8257 26.6667 13.3333 28.159 13.3333 30L10 26.6667C10 24.8257 11.4923 23.3333 13.3333 23.3333C15.1743 23.3333 16.6667 21.841 16.6667 20C16.6667 18.159 18.159 16.6667 20 16.6667C21.841 16.6667 23.3333 15.1743 23.3333 13.3333C23.3333 11.4923 24.8257 10 26.6667 10L30 13.3333Z" stroke="black" stroke-width="2" stroke-miterlimit="10" stroke-linejoin="round"/>
</svg>
