<svg width="32" height="32" viewBox="0 0 32 32" fill="none" xmlns="http://www.w3.org/2000/svg">
<path d="M9.5355 6.00004C12.0223 5.9886 14.0645 8.49371 14.9665 11.0786C15.966 14.0414 17.932 16.5786 20.8268 17.9426C23.3401 19.257 26.0087 20.1156 26.0044 22.3967C26.0005 24.4549 22.7686 26.4287 17.9287 24.8208C12.9119 23.1062 8.37188 19.119 6.23295 14.1219C4.15942 9.26368 6.72894 6.0396 9.5355 6.00004Z" stroke="black" stroke-width="2" stroke-miterlimit="10"/>
<path d="M10.653 9.7057C10.2872 9.7057 9.98962 9.40818 9.98962 9.04232C9.98962 8.67646 10.2872 8.3786 10.653 8.3786C11.0185 8.3786 11.3157 8.67646 11.3157 9.04232C11.3161 9.40785 11.0185 9.7057 10.653 9.7057Z" fill="black"/>
<path d="M9.0202 12.1128C9.38658 12.1128 9.68359 11.8157 9.68359 11.4494C9.68359 11.083 9.38658 10.786 9.0202 10.786C8.65382 10.786 8.35681 11.083 8.35681 11.4494C8.35681 11.8157 8.65382 12.1128 9.0202 12.1128Z" fill="black"/>
<path d="M11.3181 13.2653C11.6844 13.2653 11.9814 12.9682 11.9814 12.6019C11.9814 12.2355 11.6844 11.9385 11.3181 11.9385C10.9517 11.9385 10.6547 12.2355 10.6547 12.6019C10.6547 12.9682 10.9517 13.2653 11.3181 13.2653Z" fill="black"/>
<path d="M10.8623 16.3458C11.2287 16.3458 11.5257 16.0488 11.5257 15.6824C11.5257 15.316 11.2287 15.019 10.8623 15.019C10.4959 15.019 10.1989 15.316 10.1989 15.6824C10.1989 16.0488 10.4959 16.3458 10.8623 16.3458Z" fill="black"/>
<path d="M14.3456 16.7156C14.712 16.7156 15.009 16.4186 15.009 16.0522C15.009 15.6858 14.712 15.3888 14.3456 15.3888C13.9793 15.3888 13.6823 15.6858 13.6823 16.0522C13.6823 16.4186 13.9793 16.7156 14.3456 16.7156Z" fill="black"/>
<path d="M12.3404 19.513C11.9745 19.513 11.677 19.2155 11.677 18.8499C11.677 18.4841 11.9745 18.1862 12.3404 18.1862C12.7059 18.1862 13.0031 18.4841 13.0031 18.8499C13.0031 19.2155 12.7056 19.513 12.3404 19.513Z" fill="black"/>
<path d="M15.8166 19.6026C16.183 19.6026 16.48 19.3056 16.48 18.9392C16.48 18.5728 16.183 18.2758 15.8166 18.2758C15.4502 18.2758 15.1532 18.5728 15.1532 18.9392C15.1532 19.3056 15.4502 19.6026 15.8166 19.6026Z" fill="black"/>
<path d="M19.0959 20.4628C19.4623 20.4628 19.7593 20.1658 19.7593 19.7994C19.7593 19.433 19.4623 19.136 19.0959 19.136C18.7296 19.136 18.4326 19.433 18.4326 19.7994C18.4326 20.1658 18.7296 20.4628 19.0959 20.4628Z" fill="black"/>
<path d="M17.2947 22.3473C17.6611 22.3473 17.9581 22.0503 17.9581 21.684C17.9581 21.3176 17.6611 21.0206 17.2947 21.0206C16.9284 21.0206 16.6313 21.3176 16.6313 21.684C16.6313 22.0503 16.9284 22.3473 17.2947 22.3473Z" fill="black"/>
<path d="M21.6291 23.4711C21.9955 23.4711 22.2925 23.1741 22.2925 22.8077C22.2925 22.4413 21.9955 22.1443 21.6291 22.1443C21.2628 22.1443 20.9658 22.4413 20.9658 22.8077C20.9658 23.1741 21.2628 23.4711 21.6291 23.4711Z" fill="black"/>
<path d="M15.5785 12.1072C15.9449 12.1072 16.2419 11.8102 16.2419 11.4438C16.2419 11.0774 15.9449 10.7804 15.5785 10.7804C15.2122 10.7804 14.9152 11.0774 14.9152 11.4438C14.9152 11.8102 15.2122 12.1072 15.5785 12.1072Z" fill="black"/>
<path d="M18.9387 16.848C19.305 16.848 19.602 16.551 19.602 16.1846C19.602 15.8182 19.305 15.5212 18.9387 15.5212C18.5723 15.5212 18.2753 15.8182 18.2753 16.1846C18.2753 16.551 18.5723 16.848 18.9387 16.848Z" fill="black"/>
<path d="M22.1833 18.832C22.5497 18.832 22.8467 18.535 22.8467 18.1686C22.8467 17.8022 22.5497 17.5052 22.1833 17.5052C21.817 17.5052 21.52 17.8022 21.52 18.1686C21.52 18.535 21.817 18.832 22.1833 18.832Z" fill="black"/>
<path d="M26.3366 23.0768C26.703 23.0768 27 22.7798 27 22.4134C27 22.047 26.703 21.75 26.3366 21.75C25.9702 21.75 25.6732 22.047 25.6732 22.4134C25.6732 22.7798 25.9702 23.0768 26.3366 23.0768Z" fill="black"/>
<path d="M23.8354 26.0576C24.2018 26.0576 24.4988 25.7606 24.4988 25.3942C24.4988 25.0278 24.2018 24.7308 23.8354 24.7308C23.469 24.7308 23.172 25.0278 23.172 25.3942C23.172 25.7606 23.469 26.0576 23.8354 26.0576Z" fill="black"/>
<path d="M16.2458 25.2124C16.6122 25.2124 16.9092 24.9154 16.9092 24.549C16.9092 24.1827 16.6122 23.8857 16.2458 23.8857C15.8795 23.8857 15.5825 24.1827 15.5825 24.549C15.5825 24.9154 15.8795 25.2124 16.2458 25.2124Z" fill="black"/>
<path d="M13.0816 23.459C13.448 23.459 13.745 23.162 13.745 22.7956C13.745 22.4292 13.448 22.1322 13.0816 22.1322C12.7152 22.1322 12.4182 22.4292 12.4182 22.7956C12.4182 23.162 12.7152 23.459 13.0816 23.459Z" fill="black"/>
<path d="M9.13494 20.0502C9.50132 20.0502 9.79833 19.7532 9.79833 19.3868C9.79833 19.0204 9.50132 18.7234 9.13494 18.7234C8.76857 18.7234 8.47156 19.0204 8.47156 19.3868C8.47156 19.7532 8.76857 20.0502 9.13494 20.0502Z" fill="black"/>
<path d="M5.66339 14.3498C6.02977 14.3498 6.32677 14.0527 6.32677 13.6864C6.32677 13.32 6.02977 13.023 5.66339 13.023C5.29701 13.023 5 13.32 5 13.6864C5 14.0527 5.29701 14.3498 5.66339 14.3498Z" fill="black"/>
</svg>
