<svg width="32" height="32" viewBox="0 0 32 32" fill="none" xmlns="http://www.w3.org/2000/svg">
<mask id="path-1-inside-1_14_675" fill="white">
<path fill-rule="evenodd" clip-rule="evenodd" d="M27.3534 18.9055C27.6784 17.963 28.0199 16.9729 28.3529 16.2645C28.8279 15.2543 28.9379 14.1119 28.5671 13.2094C28.515 13.0825 28.4601 12.9533 28.4045 12.8223C28.0392 11.9619 27.6408 11.0236 27.757 10.1297C28.0667 7.74813 27.4851 4.85572 24.7765 4.23652C24.4968 4.17049 24.225 4.1433 23.9647 4.1433C22.3227 4.14604 21.0747 5.37675 20.1517 7.04199C19.5317 8.16046 18.0385 8.59043 16.7696 8.74882C16.4586 8.78764 16.1447 8.88393 15.8468 9.06457C15.5477 9.24713 15.2913 9.48406 15.0738 9.75596C14.6766 10.2478 14.4031 10.8464 14.2164 11.4028C13.9537 12.1855 12.9682 12.6755 12.1451 12.6108C11.6674 12.572 11.244 12.6497 10.875 12.8167C9.43396 13.4615 8.79695 15.4618 9.01446 17.369C9.18925 18.9304 9.30966 21.1638 8.74646 23.0127C8.64158 23.3662 8.50952 23.7002 8.35027 24.0187C7.62029 25.467 6.28868 26.4728 3.94413 26.3532C3.94283 26.3532 3.94171 26.3542 3.94171 26.3555C3.94171 26.3564 3.94225 26.3572 3.94309 26.3576C3.98794 26.3768 4.0328 26.3965 4.07765 26.4161C4.16829 26.4558 4.25892 26.4955 4.34955 26.5318C4.7302 26.691 5.12639 26.8425 5.542 26.9785C5.60987 27.0014 5.67812 27.024 5.74677 27.0462C5.73824 27.0433 5.72966 27.0404 5.72105 27.0375C6.05392 26.962 6.38966 26.8897 6.73165 26.8162C7.97591 26.5485 9.30284 26.263 10.875 25.7359C12.4364 25.2115 13.7609 24.4382 14.9612 23.6225C14.3785 22.8573 13.2871 21.1405 13.0385 18.7867C13.0113 18.4993 13.2171 18.239 13.5085 18.208C13.792 18.1769 14.0522 18.3866 14.0833 18.6741C14.3086 20.7987 15.3146 22.3524 15.8118 23.0088C18.4608 20.9618 20.1854 18.3827 21.2885 16.1144C20.8845 15.6794 20.1349 14.7238 19.7853 13.2712C19.7193 12.9876 19.8941 12.7079 20.1737 12.6419C20.4534 12.5759 20.7369 12.7468 20.8069 13.0303C21.0244 13.947 21.4439 14.6345 21.774 15.0618C22.7567 12.7468 23.083 10.9562 23.1179 10.7503C23.1646 10.4629 23.4365 10.2726 23.7239 10.3192C24.0074 10.3658 24.2016 10.6377 24.1511 10.9212C24.1434 10.9834 23.7394 13.2323 22.4071 16.0755C22.3916 16.161 22.3644 16.2464 22.3023 16.3202C22.2945 16.328 22.2906 16.3319 22.2829 16.3358C21.7041 17.5399 20.9545 18.8372 20.0028 20.1112C20.566 20.2627 21.5837 20.4025 22.9354 20.0996C23.2189 20.0335 23.4986 20.2122 23.5607 20.4957C23.6268 20.7793 23.4481 21.0551 23.1646 21.1211C22.5353 21.2609 21.9605 21.3231 21.4594 21.3308C20.4184 21.3425 19.6804 21.1328 19.3037 20.9968C18.4025 22.0766 17.3383 23.1176 16.0953 24.0498C16.0881 24.057 16.0823 24.0658 16.0762 24.0752C16.0725 24.0808 16.0686 24.0867 16.0643 24.0925C16.0138 24.1391 15.9555 24.1741 15.8895 24.2013C13.6949 25.7899 10.941 27.029 7.49963 27.5145C8.92124 27.8252 10.4982 28 12.2345 28C20.8229 28 25.5209 23.6508 26.7225 20.6547C26.9201 20.162 27.133 19.5447 27.3534 18.9055Z"/>
</mask>
<path fill-rule="evenodd" clip-rule="evenodd" d="M27.3534 18.9055C27.6784 17.963 28.0199 16.9729 28.3529 16.2645C28.8279 15.2543 28.9379 14.1119 28.5671 13.2094C28.515 13.0825 28.4601 12.9533 28.4045 12.8223C28.0392 11.9619 27.6408 11.0236 27.757 10.1297C28.0667 7.74813 27.4851 4.85572 24.7765 4.23652C24.4968 4.17049 24.225 4.1433 23.9647 4.1433C22.3227 4.14604 21.0747 5.37675 20.1517 7.04199C19.5317 8.16046 18.0385 8.59043 16.7696 8.74882C16.4586 8.78764 16.1447 8.88393 15.8468 9.06457C15.5477 9.24713 15.2913 9.48406 15.0738 9.75596C14.6766 10.2478 14.4031 10.8464 14.2164 11.4028C13.9537 12.1855 12.9682 12.6755 12.1451 12.6108C11.6674 12.572 11.244 12.6497 10.875 12.8167C9.43396 13.4615 8.79695 15.4618 9.01446 17.369C9.18925 18.9304 9.30966 21.1638 8.74646 23.0127C8.64158 23.3662 8.50952 23.7002 8.35027 24.0187C7.62029 25.467 6.28868 26.4728 3.94413 26.3532C3.94283 26.3532 3.94171 26.3542 3.94171 26.3555C3.94171 26.3564 3.94225 26.3572 3.94309 26.3576C3.98794 26.3768 4.0328 26.3965 4.07765 26.4161C4.16829 26.4558 4.25892 26.4955 4.34955 26.5318C4.7302 26.691 5.12639 26.8425 5.542 26.9785C5.60987 27.0014 5.67812 27.024 5.74677 27.0462C5.73824 27.0433 5.72966 27.0404 5.72105 27.0375C6.05392 26.962 6.38966 26.8897 6.73165 26.8162C7.97591 26.5485 9.30284 26.263 10.875 25.7359C12.4364 25.2115 13.7609 24.4382 14.9612 23.6225C14.3785 22.8573 13.2871 21.1405 13.0385 18.7867C13.0113 18.4993 13.2171 18.239 13.5085 18.208C13.792 18.1769 14.0522 18.3866 14.0833 18.6741C14.3086 20.7987 15.3146 22.3524 15.8118 23.0088C18.4608 20.9618 20.1854 18.3827 21.2885 16.1144C20.8845 15.6794 20.1349 14.7238 19.7853 13.2712C19.7193 12.9876 19.8941 12.7079 20.1737 12.6419C20.4534 12.5759 20.7369 12.7468 20.8069 13.0303C21.0244 13.947 21.4439 14.6345 21.774 15.0618C22.7567 12.7468 23.083 10.9562 23.1179 10.7503C23.1646 10.4629 23.4365 10.2726 23.7239 10.3192C24.0074 10.3658 24.2016 10.6377 24.1511 10.9212C24.1434 10.9834 23.7394 13.2323 22.4071 16.0755C22.3916 16.161 22.3644 16.2464 22.3023 16.3202C22.2945 16.328 22.2906 16.3319 22.2829 16.3358C21.7041 17.5399 20.9545 18.8372 20.0028 20.1112C20.566 20.2627 21.5837 20.4025 22.9354 20.0996C23.2189 20.0335 23.4986 20.2122 23.5607 20.4957C23.6268 20.7793 23.4481 21.0551 23.1646 21.1211C22.5353 21.2609 21.9605 21.3231 21.4594 21.3308C20.4184 21.3425 19.6804 21.1328 19.3037 20.9968C18.4025 22.0766 17.3383 23.1176 16.0953 24.0498C16.0881 24.057 16.0823 24.0658 16.0762 24.0752C16.0725 24.0808 16.0686 24.0867 16.0643 24.0925C16.0138 24.1391 15.9555 24.1741 15.8895 24.2013C13.6949 25.7899 10.941 27.029 7.49963 27.5145C8.92124 27.8252 10.4982 28 12.2345 28C20.8229 28 25.5209 23.6508 26.7225 20.6547C26.9201 20.162 27.133 19.5447 27.3534 18.9055Z" fill="black"/>
<path d="M28.3529 16.2645L29.2579 16.69V16.69L28.3529 16.2645ZM27.3534 18.9055L28.2988 19.2315V19.2315L27.3534 18.9055ZM28.5671 13.2094L29.4921 12.8294L29.4921 12.8294L28.5671 13.2094ZM28.4045 12.8223L27.484 13.2131V13.2131L28.4045 12.8223ZM27.757 10.1297L26.7654 10.0008V10.0008L27.757 10.1297ZM24.7765 4.23652L24.5467 5.20979L24.5537 5.21138L24.7765 4.23652ZM23.9647 4.1433V3.1433L23.963 3.1433L23.9647 4.1433ZM20.1517 7.04199L19.277 6.55719V6.55719L20.1517 7.04199ZM16.7696 8.74882L16.6457 7.75653L16.7696 8.74882ZM15.8468 9.06457L15.3282 8.20949L15.3258 8.21102L15.8468 9.06457ZM15.0738 9.75596L15.8518 10.3843L15.8547 10.3807L15.0738 9.75596ZM14.2164 11.4028L13.2683 11.0846V11.0846L14.2164 11.4028ZM12.1451 12.6108L12.0641 13.6076L12.0668 13.6078L12.1451 12.6108ZM10.875 12.8167L11.2834 13.7295L11.2873 13.7277L10.875 12.8167ZM9.01446 17.369L10.0083 17.2577L10.008 17.2557L9.01446 17.369ZM8.74646 23.0127L7.78983 22.7213L7.78776 22.7283L8.74646 23.0127ZM8.35027 24.0187L9.24326 24.4688L9.2447 24.4659L8.35027 24.0187ZM3.94413 26.3532L3.99507 25.3545L3.99406 25.3545L3.94413 26.3532ZM3.94309 26.3576L4.33714 25.4385L4.33618 25.4381L3.94309 26.3576ZM4.07765 26.4161L3.67637 27.3321L3.67638 27.3321L4.07765 26.4161ZM4.34955 26.5318L4.7355 25.6093C4.73067 25.6072 4.72581 25.6052 4.72094 25.6033L4.34955 26.5318ZM5.542 26.9785L5.86242 26.0311L5.85289 26.028L5.542 26.9785ZM5.74677 27.0462L5.43917 27.9977C5.96247 28.1669 6.52417 27.8817 6.69645 27.3594C6.86872 26.8371 6.58689 26.2737 6.06563 26.0984L5.74677 27.0462ZM5.72105 27.0375L5.49976 26.0623C5.06304 26.1614 4.74545 26.5387 4.72238 26.986C4.6993 27.4332 4.97637 27.8412 5.40056 27.9848L5.72105 27.0375ZM6.73165 26.8162L6.52132 25.8385H6.52132L6.73165 26.8162ZM10.875 25.7359L11.1929 26.684L11.1933 26.6839L10.875 25.7359ZM14.9612 23.6225L15.5232 24.4496C15.7503 24.2953 15.904 24.0544 15.9481 23.7834C15.9923 23.5124 15.9231 23.2352 15.7568 23.0167L14.9612 23.6225ZM13.0385 18.7867L12.0429 18.8809L12.044 18.8917L13.0385 18.7867ZM13.5085 18.208L13.6145 19.2023L13.6174 19.202L13.5085 18.208ZM14.0833 18.6741L15.0778 18.5686L15.0775 18.5666L14.0833 18.6741ZM15.8118 23.0088L15.0146 23.6126C15.1758 23.8253 15.4153 23.9649 15.6798 24.0001C15.9444 24.0353 16.212 23.9633 16.4232 23.8001L15.8118 23.0088ZM21.2885 16.1144L22.1878 16.5517C22.3683 16.1805 22.3022 15.7364 22.0213 15.4339L21.2885 16.1144ZM19.7853 13.2712L18.8113 13.498L18.8131 13.5051L19.7853 13.2712ZM20.1737 12.6419L19.9439 11.6687L19.9439 11.6687L20.1737 12.6419ZM20.8069 13.0303L21.7799 12.7994L21.7778 12.7909L20.8069 13.0303ZM21.774 15.0618L20.9827 15.6732C21.1999 15.9542 21.5497 16.099 21.9019 16.0536C22.2541 16.0081 22.5558 15.7794 22.6945 15.4525L21.774 15.0618ZM23.1179 10.7503L24.1039 10.9177L24.1051 10.9104L23.1179 10.7503ZM23.7239 10.3192L23.8861 9.33241L23.884 9.33206L23.7239 10.3192ZM24.1511 10.9212L23.1666 10.7459C23.1636 10.7629 23.161 10.78 23.1589 10.7972L24.1511 10.9212ZM22.4071 16.0755L21.5016 15.6512C21.465 15.7293 21.4387 15.8118 21.4233 15.8966L22.4071 16.0755ZM22.3023 16.3202L23.0094 17.0273C23.0296 17.0072 23.0488 16.9862 23.0672 16.9644L22.3023 16.3202ZM22.2829 16.3358L21.8357 15.4413C21.6374 15.5405 21.4776 15.7027 21.3816 15.9026L22.2829 16.3358ZM20.0028 20.1112L19.2017 19.5128C19.0033 19.7784 18.9494 20.125 19.0578 20.4383C19.1663 20.7516 19.423 20.9908 19.7431 21.0769L20.0028 20.1112ZM22.9354 20.0996L23.1541 21.0754L23.1622 21.0735L22.9354 20.0996ZM23.5607 20.4957L22.5839 20.7099L22.5868 20.7226L23.5607 20.4957ZM23.1646 21.1211L23.3815 22.0973L23.3914 22.095L23.1646 21.1211ZM21.4594 21.3308L21.4706 22.3308L21.4749 22.3307L21.4594 21.3308ZM19.3037 20.9968L19.6431 20.0562C19.2477 19.9135 18.8052 20.0333 18.5359 20.3561L19.3037 20.9968ZM16.0953 24.0498L15.4953 23.2498C15.4575 23.2782 15.4217 23.3092 15.3882 23.3427L16.0953 24.0498ZM16.0762 24.0752L16.9123 24.6236L16.9124 24.6236L16.0762 24.0752ZM16.0643 24.0925L16.7426 24.8273C16.7871 24.7861 16.8279 24.741 16.8643 24.6925L16.0643 24.0925ZM15.8895 24.2013L15.5087 23.2766C15.4359 23.3066 15.3669 23.345 15.3031 23.3912L15.8895 24.2013ZM7.49963 27.5145L7.35993 26.5243C6.88057 26.5919 6.51849 26.9932 6.50033 27.477C6.48218 27.9607 6.81315 28.388 7.28609 28.4914L7.49963 27.5145ZM26.7225 20.6547L25.7944 20.2825V20.2825L26.7225 20.6547ZM27.448 15.8391C27.0869 16.607 26.7267 17.6556 26.4081 18.5795L28.2988 19.2315C28.6302 18.2704 28.9529 17.3388 29.2579 16.69L27.448 15.8391ZM27.6422 13.5895C27.8791 14.1663 27.8379 15.0097 27.448 15.8391L29.2579 16.69C29.8179 15.4989 29.9966 14.0575 29.4921 12.8294L27.6422 13.5895ZM27.484 13.2131C27.5401 13.3451 27.5926 13.4689 27.6422 13.5895L29.4921 12.8294C29.4373 12.6961 29.3801 12.5614 29.3249 12.4314L27.484 13.2131ZM26.7654 10.0008C26.6074 11.2159 27.1475 12.4205 27.484 13.2131L29.3249 12.4314C28.9309 11.5033 28.6742 10.8314 28.7487 10.2587L26.7654 10.0008ZM24.5537 5.21138C25.5363 5.43601 26.1273 6.04798 26.4719 6.89796C26.8325 7.78741 26.9059 8.91963 26.7654 10.0008L28.7487 10.2587C28.9177 8.95823 28.8552 7.45345 28.3253 6.14649C27.7795 4.80007 26.7253 3.65623 24.9994 3.26167L24.5537 5.21138ZM23.9647 5.1433C24.1548 5.1433 24.3491 5.1631 24.5467 5.20976L25.0063 3.26328C24.6446 3.17788 24.2951 3.1433 23.9647 3.1433V5.1433ZM21.0263 7.52678C21.9009 5.94894 22.8903 5.14509 23.9664 5.1433L23.963 3.1433C21.7552 3.14698 20.2485 4.80455 19.277 6.55719L21.0263 7.52678ZM16.8934 9.74112C17.5805 9.65536 18.3751 9.4914 19.1054 9.17132C19.8343 8.85185 20.5739 8.34297 21.0263 7.52678L19.277 6.55719C19.1095 6.85948 18.7925 7.12481 18.3026 7.33954C17.814 7.55367 17.2276 7.68389 16.6457 7.75653L16.8934 9.74112ZM16.3653 9.91965C16.528 9.82096 16.704 9.76477 16.8934 9.74112L16.6457 7.75653C16.2131 7.81052 15.7613 7.94689 15.3283 8.2095L16.3653 9.91965ZM15.8547 10.3807C16.0099 10.1867 16.1811 10.032 16.3678 9.91813L15.3258 8.21102C14.9142 8.46222 14.5728 8.78146 14.2929 9.13126L15.8547 10.3807ZM15.1644 11.7209C15.3299 11.2278 15.5561 10.7503 15.8517 10.3843L14.2959 9.12762C13.7971 9.74519 13.4763 10.4649 13.2683 11.0846L15.1644 11.7209ZM12.0668 13.6078C12.6918 13.6569 13.3386 13.4975 13.8765 13.1987C14.4122 12.9012 14.933 12.4105 15.1644 11.7209L13.2683 11.0846C13.2371 11.1777 13.1338 11.3235 12.9053 11.4504C12.679 11.5761 12.4215 11.6295 12.2235 11.6139L12.0668 13.6078ZM11.2873 13.7277C11.4943 13.6341 11.747 13.5818 12.0641 13.6075L12.2262 11.6141C11.5878 11.5622 10.9937 11.6653 10.4626 11.9057L11.2873 13.7277ZM10.008 17.2557C9.91501 16.4402 10.009 15.6267 10.2572 14.9756C10.5067 14.3209 10.8762 13.9117 11.2834 13.7295L10.4666 11.9039C9.43278 12.3665 8.76318 13.2799 8.38835 14.2633C8.01212 15.2504 7.8964 16.3906 8.02091 17.4823L10.008 17.2557ZM9.70306 23.3041C10.3299 21.2464 10.1851 18.8377 10.0083 17.2577L8.02067 17.4802C8.19339 19.0231 8.28946 21.0812 7.78985 22.7213L9.70306 23.3041ZM9.2447 24.4659C9.43041 24.0945 9.58386 23.7059 9.70515 23.2971L7.78776 22.7283C7.69931 23.0264 7.58863 23.3059 7.45584 23.5715L9.2447 24.4659ZM3.89319 27.3519C5.22085 27.4196 6.34041 27.171 7.25578 26.6381C8.17109 26.1053 8.80869 25.331 9.24325 24.4688L7.45728 23.5686C7.16187 24.1547 6.76868 24.6075 6.24954 24.9097C5.73047 25.2119 5.01196 25.4064 3.99507 25.3545L3.89319 27.3519ZM4.94171 26.3555C4.94171 26.9465 4.4435 27.3794 3.8942 27.352L3.99406 25.3545C3.44217 25.3269 2.94171 25.7619 2.94171 26.3555H4.94171ZM4.33618 25.4381C4.70412 25.5954 4.94171 25.9568 4.94171 26.3555H2.94171C2.94171 26.756 3.18038 27.1191 3.54999 27.2771L4.33618 25.4381ZM4.47893 25.5002C4.43469 25.4808 4.38622 25.4595 4.33714 25.4385L3.54903 27.2767C3.58966 27.2941 3.63091 27.3121 3.67637 27.3321L4.47893 25.5002ZM4.72094 25.6033C4.64791 25.5741 4.57218 25.541 4.47893 25.5002L3.67638 27.3321C3.76439 27.3706 3.86993 27.417 3.97816 27.4603L4.72094 25.6033ZM5.85289 26.028C5.4674 25.9019 5.09658 25.7603 4.7355 25.6093L3.9636 27.4543C4.36382 27.6217 4.78538 27.7831 5.23111 27.9289L5.85289 26.028ZM6.05437 26.0947C5.98995 26.0738 5.92596 26.0527 5.8624 26.0312L5.2216 27.9257C5.29377 27.9501 5.36629 27.9741 5.43917 27.9977L6.05437 26.0947ZM6.06563 26.0984C6.05746 26.0956 6.04946 26.0929 6.04154 26.0902L5.40056 27.9848C5.40987 27.9879 5.41901 27.991 5.42791 27.994L6.06563 26.0984ZM5.94234 28.0127C6.26881 27.9386 6.59902 27.8676 6.94197 27.7938L6.52132 25.8385C6.18031 25.9119 5.83904 25.9853 5.49976 26.0623L5.94234 28.0127ZM6.94197 27.7938C8.18633 27.5261 9.5623 27.2307 11.1929 26.684L10.5571 24.7878C9.04339 25.2953 7.76549 25.5709 6.52132 25.8385L6.94197 27.7938ZM11.1933 26.6839C12.8749 26.1192 14.2842 25.2916 15.5232 24.4496L14.3991 22.7954C13.2376 23.5848 11.998 24.3039 10.5566 24.7879L11.1933 26.6839ZM15.7568 23.0167C15.2362 22.3331 14.2553 20.7873 14.0329 18.6817L12.044 18.8917C12.3188 21.4937 13.5208 23.3816 14.1655 24.2283L15.7568 23.0167ZM14.034 18.6925C14.0572 18.9372 13.8807 19.1739 13.6145 19.2023L13.4024 17.2136C12.5536 17.3041 11.9654 18.0614 12.0429 18.8809L14.034 18.6925ZM13.6174 19.202C13.345 19.2319 13.1168 19.0374 13.0891 18.7815L15.0775 18.5666C14.9877 17.7359 14.239 17.1219 13.3995 17.2139L13.6174 19.202ZM13.0889 18.7795C13.3409 21.1564 14.4609 22.8815 15.0146 23.6126L16.6089 22.4051C16.1683 21.8233 15.2763 20.441 15.0777 18.5686L13.0889 18.7795ZM16.4232 23.8001C19.2272 21.6334 21.0383 18.9154 22.1878 16.5517L20.3892 15.677C19.3325 17.85 17.6944 20.2903 15.2003 22.2175L16.4232 23.8001ZM22.0213 15.4339C21.6905 15.0777 21.0542 14.2701 20.7576 13.0372L18.8131 13.5051C19.2155 15.1776 20.0786 16.281 20.5557 16.7948L22.0213 15.4339ZM20.7593 13.0443C20.8181 13.2969 20.6608 13.5544 20.4035 13.6152L19.9439 11.6687C19.1274 11.8615 18.6205 12.6783 18.8114 13.498L20.7593 13.0443ZM20.4035 13.6152C20.1508 13.6748 19.8976 13.52 19.8359 13.2697L21.7778 12.7909C21.5762 11.9736 20.756 11.4769 19.9439 11.6687L20.4035 13.6152ZM19.8339 13.2612C20.092 14.3488 20.5888 15.1634 20.9827 15.6732L22.5653 14.4503C22.2989 14.1056 21.9568 13.5452 21.7798 12.7995L19.8339 13.2612ZM22.6945 15.4525C23.7162 13.0457 24.0601 11.1752 24.1038 10.9177L22.1321 10.5829C22.1059 10.7372 21.7972 12.4479 20.8535 14.671L22.6945 15.4525ZM24.1051 10.9104C24.0607 11.184 23.8055 11.3455 23.5638 11.3063L23.884 9.33206C23.0674 9.19965 22.2684 9.74174 22.1308 10.5902L24.1051 10.9104ZM23.5617 11.3059C23.2995 11.2628 23.1186 11.0155 23.1666 10.7459L25.1357 11.0965C25.2847 10.2598 24.7154 9.46873 23.8861 9.33241L23.5617 11.3059ZM23.1589 10.7972C23.1643 10.7538 22.7901 12.9016 21.5016 15.6512L23.3127 16.4998C24.6888 13.563 25.1225 11.2129 25.1434 11.0453L23.1589 10.7972ZM21.4233 15.8966C21.4233 15.8965 21.4236 15.8949 21.4242 15.8921C21.4248 15.8892 21.4259 15.8849 21.4274 15.8794C21.4303 15.8683 21.4354 15.8516 21.4437 15.8309C21.461 15.7876 21.4903 15.7319 21.5374 15.6761L23.0672 16.9644C23.2885 16.7016 23.3606 16.4219 23.391 16.2544L21.4233 15.8966ZM21.5951 15.6132C21.5913 15.617 21.597 15.6113 21.6039 15.6046C21.6119 15.5969 21.6291 15.5807 21.6523 15.5613C21.677 15.5407 21.7065 15.5183 21.7408 15.4958C21.7749 15.4735 21.8071 15.4556 21.8357 15.4413L22.73 17.2303C22.9004 17.145 23.0073 17.0295 23.0094 17.0273L21.5951 15.6132ZM21.3816 15.9026C20.8269 17.0565 20.1097 18.2971 19.2017 19.5128L20.804 20.7096C21.7992 19.3773 22.5813 18.0233 23.1841 16.769L21.3816 15.9026ZM19.7431 21.0769C20.4473 21.2663 21.6297 21.417 23.1541 21.0753L22.7167 19.1238C21.5377 19.388 20.6848 19.2591 20.2626 19.1455L19.7431 21.0769ZM23.1622 21.0735C22.8978 21.1351 22.64 20.9656 22.5839 20.7098L24.5376 20.2817C24.3572 19.4588 23.5401 18.932 22.7086 19.1256L23.1622 21.0735ZM22.5868 20.7226C22.5228 20.4477 22.7042 20.2016 22.9377 20.1472L23.3914 22.095C24.192 21.9086 24.7308 21.1109 24.5347 20.2689L22.5868 20.7226ZM22.9476 20.1449C22.3824 20.2705 21.8751 20.3243 21.4439 20.331L21.4749 22.3307C22.0459 22.3219 22.6882 22.2514 23.3815 22.0973L22.9476 20.1449ZM21.4482 20.3309C20.5501 20.341 19.9318 20.1604 19.6431 20.0562L18.9643 21.9374C19.429 22.1052 20.2867 22.344 21.4706 22.3308L21.4482 20.3309ZM18.5359 20.3561C17.6803 21.3813 16.6715 22.3676 15.4953 23.2498L16.6953 24.8498C18.005 23.8675 19.1248 22.7719 20.0714 21.6375L18.5359 20.3561ZM15.3882 23.3427C15.3363 23.3946 15.2994 23.4422 15.2773 23.4726C15.2571 23.5003 15.2404 23.526 15.24 23.5267L16.9124 24.6236C16.9181 24.6149 16.9074 24.6316 16.8934 24.6508C16.8774 24.6727 16.8471 24.7123 16.8024 24.7569L15.3882 23.3427ZM15.24 23.5267C15.2375 23.5305 15.24 23.5266 15.2434 23.5217C15.2473 23.5159 15.2545 23.5055 15.2643 23.4925L16.8643 24.6925C16.8904 24.6576 16.9109 24.6259 16.9123 24.6236L15.24 23.5267ZM15.386 23.3577C15.4373 23.3103 15.4853 23.2862 15.5087 23.2766L16.2702 25.1259C16.4257 25.0619 16.5902 24.9679 16.7426 24.8273L15.386 23.3577ZM15.3031 23.3912C13.2355 24.8879 10.634 26.0624 7.35993 26.5243L7.63933 28.5047C11.2481 27.9955 14.1543 26.6919 16.4759 25.0113L15.3031 23.3912ZM12.2345 27C10.5654 27 9.0603 26.832 7.71317 26.5375L7.28609 28.4914C8.78219 28.8184 10.431 29 12.2345 29V27ZM25.7944 20.2825C24.7722 22.8312 20.4931 27 12.2345 27V29C21.1527 29 26.2696 24.4704 27.6506 21.027L25.7944 20.2825ZM26.4081 18.5795C26.185 19.2263 25.9808 19.8176 25.7944 20.2825L27.6506 21.027C27.8594 20.5065 28.081 19.8631 28.2988 19.2315L26.4081 18.5795Z" fill="black" mask="url(#path-1-inside-1_14_675)"/>
</svg>
