<svg width="32" height="32" viewBox="0 0 32 32" fill="none" xmlns="http://www.w3.org/2000/svg">
<path fill-rule="evenodd" clip-rule="evenodd" d="M27.1724 16.3C27.1724 19.7794 21.9851 22.6 15.5862 22.6C9.18732 22.6 4 19.7794 4 16.3C4 16.2115 4.00335 16.1235 4.00999 16.0359C4.00335 15.9554 4 15.8744 4 15.7931C4 12.5937 9.18732 10 15.5862 10C21.9851 10 27.1724 12.5937 27.1724 15.7931C27.1724 15.8744 27.1691 15.9554 27.1624 16.0359C27.1691 16.1235 27.1724 16.2115 27.1724 16.3ZM15.0793 13.6931C16.7066 13.1214 17.2611 13.2778 17.7215 13.4076C18.0191 13.4916 18.2774 13.5645 18.7607 13.4223C20.1365 11.5879 17.9034 11.2054 17.2517 11.2054C15.3077 11.0567 12.6442 11.2307 10.0828 12.1913C4.86896 14.1464 5.79866 17.5499 7.60901 18.2016C8.71069 18.5982 9.41011 18.1098 10.2785 17.5035C10.837 17.1135 11.4655 16.6747 12.3159 16.3913C13.3461 16.0478 13.4181 15.6351 13.4948 15.1955C13.5798 14.7082 13.6706 14.1881 15.0793 13.6931ZM16.3103 19.9931C11.8931 20.2827 10.9517 18.8345 13.7759 17.2414C15.233 16.1677 17.3806 16.089 19.0788 16.0267C20.5874 15.9715 21.7414 15.9292 21.7414 15.2138C21.7414 14.5594 21.3122 14.3073 21.008 14.1285C20.6052 13.8919 20.4213 13.7839 21.7414 13.0414C24.0586 11.7379 25.7965 14.8517 25 16.7345C24.2034 18.6172 20.7276 19.7034 16.3103 19.9931Z" fill="black"/>
<path fill-rule="evenodd" clip-rule="evenodd" d="M15.4745 11.5392C15.1979 11.5411 14.9755 11.815 14.9778 12.151C14.9801 12.4871 15.2062 12.7579 15.4828 12.756C15.7594 12.7542 15.9818 12.4802 15.9795 12.1442C15.9772 11.8082 15.7511 11.5373 15.4745 11.5392ZM13.2745 12.6016C13.2046 12.2729 13.3672 11.9598 13.6377 11.9022C13.9083 11.8447 14.1843 12.0645 14.2543 12.3931C14.3242 12.7218 14.1616 13.0349 13.891 13.0925C13.6204 13.15 13.3444 12.9303 13.2745 12.6016ZM11.7636 12.5165C11.4887 12.6387 11.4266 13.0993 11.6248 13.5453C11.8231 13.9913 12.2066 14.2538 12.4816 14.1316C12.7565 14.0094 12.8186 13.5488 12.6204 13.1028C12.4221 12.6568 12.0385 12.3943 11.7636 12.5165ZM10.0778 14.3587C9.76062 14.005 9.67243 13.5667 9.88085 13.3798C10.0893 13.1929 10.5154 13.3281 10.8326 13.6818C11.1498 14.0356 11.238 14.4738 11.0296 14.6607C10.8211 14.8476 10.395 14.7124 10.0778 14.3587ZM7.99546 14.8849C7.89567 15.1464 8.17462 15.4958 8.61853 15.6651C9.06243 15.8345 9.50318 15.7598 9.60298 15.4982C9.70277 15.2367 9.42382 14.8873 8.97992 14.718C8.53601 14.5486 8.09526 14.6233 7.99546 14.8849ZM8.33861 17.2556C7.86433 17.2274 7.49332 16.978 7.50994 16.6986C7.52655 16.4191 7.9245 16.2154 8.39878 16.2436C8.87305 16.2718 9.24406 16.5212 9.22745 16.8007C9.21083 17.0801 8.81289 17.2838 8.33861 17.2556ZM15.1844 18.6906C14.9462 18.9604 14.583 19.029 14.3731 18.8437C14.1633 18.6584 14.1862 18.2895 14.4244 18.0196C14.6626 17.7498 15.0259 17.6812 15.2357 17.8665C15.4456 18.0518 15.4227 18.4207 15.1844 18.6906ZM16.749 12.2083C16.7467 11.8723 16.9691 11.5984 17.2457 11.5965C17.5223 11.5946 17.7484 11.8655 17.7507 12.2015C17.753 12.5376 17.5306 12.8115 17.254 12.8134C16.9774 12.8152 16.7513 12.5444 16.749 12.2083ZM16.3724 19.1598C16.6466 19.2162 16.9423 18.9053 17.0328 18.4652C17.1234 18.0252 16.9804 17.3918 16.7062 17.3353C16.432 17.2789 16.1304 17.8208 16.0398 18.2609C15.9493 18.7009 16.0982 19.1034 16.3724 19.1598ZM18.8162 17.9845C18.8955 18.4267 18.7364 18.8253 18.4608 18.8746C18.1852 18.924 17.8976 18.6056 17.8183 18.1634C17.7391 17.7211 17.818 17.106 18.0935 17.0566C18.3691 17.0072 18.737 17.5423 18.8162 17.9845ZM20.1778 18.7216C20.4534 18.6722 20.6125 18.2736 20.5332 17.8314C20.454 17.3892 20.0861 16.8541 19.8105 16.9035C19.535 16.9529 19.4561 17.5681 19.5353 18.0103C19.6146 18.4525 19.9022 18.7709 20.1778 18.7216ZM22.1459 17.3942C22.2025 17.7097 22.0365 18.0035 21.7753 18.0503C21.514 18.0971 21.2564 17.8793 21.1998 17.5637C21.1433 17.2482 21.2425 16.8015 21.5038 16.7547C21.765 16.7079 22.0893 17.0786 22.1459 17.3942ZM23.4713 17.1126C23.6735 16.9408 23.6692 16.6034 23.4616 16.3591C23.2541 16.1148 22.7873 15.9575 22.585 16.1293C22.3828 16.3012 22.5216 16.7372 22.7292 16.9815C22.9368 17.2258 23.269 17.2845 23.4713 17.1126ZM23.8519 14.8916C24.1688 14.94 24.3932 15.192 24.3531 15.4543C24.313 15.7167 24.0236 15.8901 23.7067 15.8417C23.3898 15.7932 22.9991 15.555 23.0393 15.2926C23.0794 15.0302 23.535 14.8431 23.8519 14.8916ZM23.3252 13.6416C23.1226 13.4701 22.7905 13.5294 22.5834 13.7741C22.3762 14.0188 22.2972 14.505 22.4998 14.6764C22.7024 14.8479 23.1098 14.6398 23.317 14.3951C23.5241 14.1504 23.5278 13.813 23.3252 13.6416Z" fill="black"/>
</svg>
