<svg width="32" height="32" viewBox="0 0 32 32" fill="none" xmlns="http://www.w3.org/2000/svg">
<path d="M26.6603 18.1924C28.4315 19.8976 23.9569 28 12.2345 28C10.4982 28 8.92124 27.8252 7.49963 27.5145C7.39864 27.4951 7.30154 27.4718 7.20443 27.4484C6.6218 27.3125 6.07025 27.1571 5.542 26.9785C5.12639 26.8425 4.7302 26.691 4.34955 26.5318C4.21361 26.4774 4.07766 26.4153 3.94171 26.357V26.3531C6.28776 26.4735 7.62004 25.4675 8.35027 24.0187C8.50952 23.7002 8.64158 23.3662 8.74646 23.0127C9.30966 21.1638 9.18925 18.9304 9.01446 17.369C8.79695 15.4618 9.43396 13.4615 10.875 12.8167C11.244 12.6497 11.6674 12.572 12.1451 12.6108C12.6889 12.6536 13.3648 12.8633 13.8347 13.143C13.8347 13.143 14.0134 11.0688 15.0738 9.75596C15.2913 9.48407 15.5477 9.24713 15.8468 9.06457C17.3072 8.17898 19.1522 9.32093 19.1522 9.32093C20.0922 6.63307 21.6303 4.14719 23.9647 4.1433C24.225 4.1433 24.4968 4.17049 24.7765 4.23653C28.2257 5.02502 28.2257 9.4996 27.3284 11.9117C29.7055 13.0342 28.9637 16.798 26.6603 18.1924Z" stroke="black" stroke-width="2" stroke-miterlimit="10" stroke-linejoin="round"/>
<mask id="path-2-inside-1_14_675" fill="white">
<path d="M22.2829 16.3358C21.7041 17.5399 20.9545 18.8372 20.0028 20.1112C20.5661 20.2627 21.5837 20.4025 22.9354 20.0996C23.219 20.0335 23.4986 20.2122 23.5608 20.4957C23.6268 20.7793 23.4481 21.0551 23.1646 21.1211C22.5353 21.2609 21.9605 21.3231 21.4594 21.3308C20.4185 21.3425 19.6805 21.1328 19.3037 20.9968C18.4026 22.0766 17.3383 23.1176 16.0954 24.0498C16.0837 24.0614 16.0759 24.077 16.0643 24.0925C16.0138 24.1391 15.9555 24.1741 15.8895 24.2013C13.6949 25.7899 10.941 27.029 7.49964 27.5145C7.39865 27.4951 7.30155 27.4718 7.20444 27.4484C6.62181 27.3125 6.24932 27.2162 5.72107 27.0375C7.26503 26.6871 8.87076 26.4079 10.875 25.7359C12.4364 25.2115 13.761 24.4382 14.9612 23.6225C14.3785 22.8573 13.2871 21.1405 13.0385 18.7867C13.0113 18.4993 13.2172 18.239 13.5085 18.208C13.792 18.1769 14.0523 18.3866 14.0833 18.6741C14.3086 20.7987 15.3146 22.3524 15.8118 23.0088C18.4608 20.9618 20.1854 18.3827 21.2885 16.1144C20.8846 15.6794 20.1349 14.7238 19.7853 13.2712C19.7193 12.9876 19.8941 12.7079 20.1738 12.6419C20.4534 12.5759 20.737 12.7468 20.8069 13.0303C21.0244 13.947 21.4439 14.6345 21.774 15.0618C22.7567 12.7468 23.083 10.9562 23.118 10.7503C23.1646 10.4629 23.4365 10.2726 23.7239 10.3192C24.0074 10.3658 24.2017 10.6377 24.1512 10.9212C24.1434 10.9834 23.7394 13.2323 22.4072 16.0755C22.3916 16.161 22.3644 16.2464 22.3023 16.3202C22.2945 16.328 22.2906 16.3319 22.2829 16.3358Z"/>
</mask>
<path d="M22.2829 16.3358L21.3884 14.5469L20.7766 14.8528L20.4803 15.4694L22.2829 16.3358ZM20.0028 20.1112L18.4005 18.9143L16.6359 21.2767L19.4834 22.0426L20.0028 20.1112ZM22.9354 20.0996L23.3728 22.0511L23.3809 22.0493L23.389 22.0474L22.9354 20.0996ZM23.5608 20.4957L21.6071 20.9239L21.6099 20.9367L21.6129 20.9494L23.5608 20.4957ZM23.1646 21.1211L23.5984 23.0735L23.6083 23.0713L23.6182 23.069L23.1646 21.1211ZM21.4594 21.3308L21.4818 23.3307L21.4904 23.3306L21.4594 21.3308ZM19.3037 20.9968L19.9825 19.1155L18.6654 18.6403L17.7682 19.7154L19.3037 20.9968ZM16.0954 24.0498L14.8954 22.4498L14.7816 22.5351L14.6811 22.6356L16.0954 24.0498ZM16.0643 24.0925L17.4208 25.5621L17.5549 25.4384L17.6643 25.2925L16.0643 24.0925ZM15.8895 24.2013L15.128 22.3519L14.9088 22.4422L14.7167 22.5812L15.8895 24.2013ZM7.49964 27.5145L7.12195 29.4785L7.44913 29.5414L7.77904 29.4949L7.49964 27.5145ZM7.20444 27.4484L7.6712 25.5036L7.6589 25.5008L7.20444 27.4484ZM5.72107 27.0375L5.27848 25.0871L-1.64357 26.6578L5.08026 28.9321L5.72107 27.0375ZM10.875 25.7359L11.5108 27.6322L11.5117 27.6319L10.875 25.7359ZM14.9612 23.6225L16.0854 25.2767L17.8311 24.0903L16.5524 22.4109L14.9612 23.6225ZM13.0385 18.7867L11.0474 18.9751L11.0484 18.9859L11.0496 18.9968L13.0385 18.7867ZM13.5085 18.208L13.7206 20.1967L13.7264 20.1961L13.5085 18.208ZM14.0833 18.6741L16.0722 18.4632L16.0718 18.4591L14.0833 18.6741ZM15.8118 23.0088L14.2175 24.2164L15.4368 25.8262L17.0347 24.5914L15.8118 23.0088ZM21.2885 16.1144L23.0871 16.989L23.6862 15.7572L22.7541 14.7535L21.2885 16.1144ZM19.7853 13.2712L17.8375 13.7248L17.8391 13.7319L17.8408 13.7391L19.7853 13.2712ZM20.8069 13.0303L22.7528 12.5686L22.7508 12.56L22.7487 12.5515L20.8069 13.0303ZM21.774 15.0618L20.1915 16.2847L22.2802 18.9877L23.615 15.8433L21.774 15.0618ZM23.118 10.7503L25.0897 11.0851L25.091 11.0778L25.0922 11.0705L23.118 10.7503ZM23.7239 10.3192L24.0483 8.34565L24.044 8.34496L23.7239 10.3192ZM24.1512 10.9212L22.1821 10.5706L22.173 10.6217L22.1666 10.6731L24.1512 10.9212ZM22.4072 16.0755L20.5961 15.2269L20.4859 15.4622L20.4394 15.7178L22.4072 16.0755ZM22.3023 16.3202L23.7165 17.7345L23.777 17.674L23.8321 17.6085L22.3023 16.3202ZM20.4803 15.4694C19.9498 16.5731 19.2649 17.7571 18.4005 18.9143L21.6052 21.3081C22.644 19.9173 23.4585 18.5067 24.0855 17.2022L20.4803 15.4694ZM19.4834 22.0426C20.3285 22.2699 21.6756 22.4315 23.3728 22.0511L22.498 18.148C21.4918 18.3735 20.8036 18.2555 20.5223 18.1799L19.4834 22.0426ZM23.389 22.0474C22.5766 22.2366 21.7814 21.719 21.6071 20.9239L25.5144 20.0676C25.2158 18.7054 23.8613 17.8304 22.4818 18.1517L23.389 22.0474ZM21.6129 20.9494C21.4188 20.116 21.9603 19.348 22.711 19.1732L23.6182 23.069C24.936 22.7621 25.8348 21.4426 25.5086 20.0421L21.6129 20.9494ZM22.7307 19.1687C22.2296 19.2801 21.7897 19.3255 21.4284 19.3311L21.4904 23.3306C22.1313 23.3207 22.8411 23.2418 23.5984 23.0735L22.7307 19.1687ZM21.437 19.331C20.6819 19.3394 20.1832 19.188 19.9825 19.1155L18.6249 22.8781C19.1777 23.0775 20.1551 23.3456 21.4818 23.3307L21.437 19.331ZM17.7682 19.7154C16.9581 20.6861 16.0048 21.6177 14.8954 22.4498L17.2954 25.6498C18.6718 24.6174 19.8471 23.4672 20.8392 22.2783L17.7682 19.7154ZM14.6811 22.6356C14.6002 22.7165 14.5393 22.7908 14.4977 22.8454C14.4572 22.8984 14.4276 22.9424 14.4157 22.9603C14.4096 22.9695 14.4041 22.9778 14.4038 22.9784C14.402 22.9811 14.4048 22.9768 14.4083 22.9715C14.4158 22.9603 14.436 22.9302 14.4643 22.8925L17.6643 25.2925C17.6984 25.247 17.7239 25.2092 17.7365 25.1903C17.7426 25.1812 17.7479 25.1731 17.7486 25.1721C17.7506 25.1689 17.7476 25.1735 17.7439 25.1791C17.7369 25.1897 17.7121 25.2267 17.6768 25.273C17.6402 25.3209 17.5846 25.3889 17.5096 25.464L14.6811 22.6356ZM14.7077 22.6229C14.8609 22.4815 15.015 22.3984 15.128 22.3519L16.651 26.0506C16.896 25.9497 17.1667 25.7967 17.4208 25.5621L14.7077 22.6229ZM14.7167 22.5812C12.7762 23.986 10.3269 25.0958 7.22024 25.5341L7.77904 29.4949C11.5551 28.9621 14.6137 27.5938 17.0623 25.8213L14.7167 22.5812ZM7.87734 25.5505C7.82823 25.541 7.77475 25.5285 7.67119 25.5037L6.7377 29.3932C6.82835 29.415 6.96908 29.4491 7.12195 29.4785L7.87734 25.5505ZM7.6589 25.5008C7.10776 25.3722 6.80448 25.2926 6.36188 25.1429L5.08026 28.9321C5.69415 29.1397 6.13586 29.2528 6.74998 29.3961L7.6589 25.5008ZM6.16365 28.9879C7.61022 28.6597 9.38065 28.3463 11.5108 27.6322L10.2392 23.8396C8.36087 24.4694 6.91985 24.7146 5.27848 25.0871L6.16365 28.9879ZM11.5117 27.6319C13.3134 27.0268 14.8076 26.1451 16.0854 25.2767L13.837 21.9684C12.7144 22.7313 11.5595 23.3963 10.2383 23.84L11.5117 27.6319ZM16.5524 22.4109C16.0939 21.8088 15.2236 20.4342 15.0274 18.5767L11.0496 18.9968C11.3506 21.8469 12.6632 23.9059 13.3699 24.8341L16.5524 22.4109ZM15.0296 18.5984C15.1031 19.3751 14.5443 20.1088 13.7206 20.1967L13.2964 16.2192C11.89 16.3693 10.9195 17.6234 11.0474 18.9751L15.0296 18.5984ZM13.7264 20.1961C12.898 20.2868 12.1813 19.6881 12.0949 18.889L16.0718 18.4591C15.9232 17.0852 14.6861 16.0669 13.2906 16.2199L13.7264 20.1961ZM12.0945 18.8849C12.3733 21.514 13.6072 23.4106 14.2175 24.2164L17.4061 21.8013C17.0221 21.2942 16.244 20.0834 16.0722 18.4632L12.0945 18.8849ZM17.0347 24.5914C19.9937 22.3049 21.8912 19.4481 23.0871 16.989L19.4899 15.2397C18.4796 17.3174 16.9279 19.6188 14.5889 21.4262L17.0347 24.5914ZM22.7541 14.7535C22.4965 14.476 21.9736 13.8163 21.7298 12.8032L17.8408 13.7391C18.2962 15.6314 19.2726 16.8827 19.8229 17.4753L22.7541 14.7535ZM21.7332 12.8175C21.9169 13.6063 21.4275 14.4009 20.6333 14.5884L19.7142 10.6954C18.3607 11.015 17.5217 12.3689 17.8375 13.7248L21.7332 12.8175ZM20.6333 14.5884C19.8481 14.7738 19.0584 14.2932 18.865 13.5091L22.7487 12.5515C22.4156 11.2004 21.0587 10.378 19.7142 10.6954L20.6333 14.5884ZM18.8609 13.4921C19.1596 14.7507 19.7338 15.6923 20.1915 16.2847L23.3566 13.8389C23.154 13.5767 22.8892 13.1433 22.7528 12.5686L18.8609 13.4921ZM23.615 15.8433C24.6757 13.3446 25.0373 11.3942 25.0897 11.0851L21.1462 10.4155C21.1288 10.5181 20.8378 12.1489 19.933 14.2803L23.615 15.8433ZM25.0922 11.0705C24.9568 11.9052 24.1746 12.4184 23.4038 12.2934L24.044 8.34496C22.6984 8.12674 21.3723 9.02059 21.1438 10.4302L25.0922 11.0705ZM23.3995 12.2927C22.5915 12.1599 22.0356 11.3934 22.1821 10.5706L26.1202 11.2719C26.3677 9.88193 25.4234 8.57169 24.0483 8.34566L23.3995 12.2927ZM22.1666 10.6731C22.1852 10.5243 21.8407 12.5708 20.5961 15.2269L24.2182 16.9242C25.6382 13.8938 26.1016 11.4424 26.1357 11.1693L22.1666 10.6731ZM20.4394 15.7178C20.4537 15.6392 20.5163 15.3361 20.7725 15.032L23.8321 17.6085C24.2125 17.1568 24.3295 16.6828 24.3749 16.4333L20.4394 15.7178ZM20.8881 14.906C20.8823 14.9118 20.8954 14.8986 20.9108 14.8838C20.9284 14.8668 20.9641 14.8331 21.0121 14.7931C21.1279 14.6966 21.2546 14.6139 21.3884 14.5469L23.1773 18.1246C23.3189 18.0538 23.4514 17.9672 23.5731 17.8658C23.6239 17.8234 23.6626 17.787 23.6834 17.767C23.6941 17.7567 23.7027 17.7482 23.7076 17.7434C23.7121 17.7389 23.7163 17.7347 23.7165 17.7345L20.8881 14.906Z" fill="black" mask="url(#path-2-inside-1_14_675)"/>
</svg>
