<svg width="380" height="100" viewBox="0 0 380 100" fill="none" xmlns="http://www.w3.org/2000/svg">
<path fill-rule="evenodd" clip-rule="evenodd" d="M102 96C114.829 96 126.954 94.49 137.7 91.8061C147.042 94.4837 157.694 96 169 96C206.003 96 236 79.7573 236 59.7209C236 39.6846 206.003 19.814 169 19.814C162.487 19.814 156.192 20.4295 150.239 21.5531C136.827 15.6837 120.117 12 102 12C57.8172 12 22 33.9086 22 56C22 78.0914 57.8172 96 102 96ZM100.5 87C107.859 87 114.939 86.4158 121.556 85.3372C109.471 78.7749 102 69.7203 102 59.7209C102 46.719 114.631 33.7869 133.612 26.309C123.862 23.5678 112.556 22 100.5 22C63.7731 22 34 36.5507 34 54.5C34 72.4493 63.7731 87 100.5 87ZM112.05 58.3605C112.05 68.1914 121.143 76.8984 135.121 82.2537C154.239 76.5452 167 66.2509 167 54.5C167 45.3001 159.178 36.9931 146.608 31.0805C126.33 35.486 112.05 46.0406 112.05 58.3605ZM167.744 87.8372C162.657 87.8372 157.729 87.4762 153.047 86.8C170.735 79.4629 182 68.3892 182 56C182 46.3467 175.161 36.7282 163.773 28.9575C165.085 28.9086 166.409 28.8837 167.744 28.8837C198.503 28.8837 223.437 42.0809 223.437 58.3605C223.437 74.64 198.503 87.8372 167.744 87.8372ZM366 62.5814C366 81.5903 339.585 97 307 97C274.415 97 248 81.5903 248 62.5814C248 43.5725 274.415 24.7209 307 24.7209C339.585 24.7209 366 43.5725 366 62.5814ZM354.938 61.2907C354.938 76.7354 332.98 89.2558 305.894 89.2558C278.808 89.2558 256.85 76.7354 256.85 61.2907C256.85 45.846 278.808 33.3256 305.894 33.3256C332.98 33.3256 354.938 45.846 354.938 61.2907Z" fill="black" fill-opacity="0.1"/>
<mask id="path-2-inside-1_6_316" fill="white">
<path fill-rule="evenodd" clip-rule="evenodd" d="M169 91C206.003 91 236 74.7573 236 54.7209C236 34.6846 206.003 14.814 169 14.814C131.997 14.814 102 34.6846 102 54.7209C102 74.7573 131.997 91 169 91ZM167.744 82.8372C198.503 82.8372 223.437 69.64 223.437 53.3605C223.437 37.0809 198.503 23.8837 167.744 23.8837C136.985 23.8837 112.05 37.0809 112.05 53.3605C112.05 69.64 136.985 82.8372 167.744 82.8372Z"/>
</mask>
<path fill-rule="evenodd" clip-rule="evenodd" d="M169 91C206.003 91 236 74.7573 236 54.7209C236 34.6846 206.003 14.814 169 14.814C131.997 14.814 102 34.6846 102 54.7209C102 74.7573 131.997 91 169 91ZM167.744 82.8372C198.503 82.8372 223.437 69.64 223.437 53.3605C223.437 37.0809 198.503 23.8837 167.744 23.8837C136.985 23.8837 112.05 37.0809 112.05 53.3605C112.05 69.64 136.985 82.8372 167.744 82.8372Z" fill="#FDF4F6"/>
<path d="M234 54.7209C234 63.6566 227.282 72.1945 215.424 78.6154C203.645 84.9935 187.235 89 169 89V93C187.768 93 204.858 88.8852 217.328 82.1328C229.72 75.4232 238 65.8216 238 54.7209H234ZM169 16.814C187.162 16.814 203.543 21.6945 215.327 28.9564C227.198 36.2724 234 45.7175 234 54.7209H238C238 43.688 229.804 33.1796 217.425 25.5512C204.96 17.8688 187.841 12.814 169 12.814V16.814ZM104 54.7209C104 45.7175 110.802 36.2724 122.673 28.9564C134.457 21.6945 150.838 16.814 169 16.814V12.814C150.159 12.814 133.04 17.8688 120.575 25.5512C108.196 33.1796 100 43.688 100 54.7209H104ZM169 89C150.765 89 134.355 84.9935 122.576 78.6154C110.718 72.1945 104 63.6566 104 54.7209H100C100 65.8216 108.28 75.4232 120.672 82.1328C133.142 88.8852 150.232 93 169 93V89ZM221.437 53.3605C221.437 60.3941 216.016 67.2352 206.19 72.436C196.453 77.5893 182.864 80.8372 167.744 80.8372V84.8372C183.383 84.8372 197.64 81.4865 208.061 75.9713C218.392 70.5036 225.437 62.6064 225.437 53.3605H221.437ZM167.744 25.8837C182.864 25.8837 196.453 29.1316 206.19 34.2849C216.016 39.4857 221.437 46.3268 221.437 53.3605H225.437C225.437 44.1145 218.392 36.2173 208.061 30.7496C197.64 25.2344 183.383 21.8837 167.744 21.8837V25.8837ZM114.05 53.3605C114.05 46.3268 119.472 39.4857 129.298 34.2849C139.035 29.1316 152.624 25.8837 167.744 25.8837V21.8837C152.105 21.8837 137.847 25.2344 127.427 30.7496C117.096 36.2173 110.05 44.1145 110.05 53.3605H114.05ZM167.744 80.8372C152.624 80.8372 139.035 77.5893 129.298 72.436C119.472 67.2352 114.05 60.3941 114.05 53.3605H110.05C110.05 62.6064 117.096 70.5036 127.427 75.9713C137.847 81.4865 152.105 84.8372 167.744 84.8372V80.8372Z" fill="#D382B9" mask="url(#path-2-inside-1_6_316)"/>
<mask id="path-4-inside-2_6_316" fill="white">
<path fill-rule="evenodd" clip-rule="evenodd" d="M169 85.5581C206.003 85.5581 236 69.3154 236 49.2791C236 29.2427 206.003 13 169 13C131.997 13 102 29.2427 102 49.2791C102 69.3154 131.997 85.5581 169 85.5581ZM167.744 77.3953C198.503 77.3953 223.437 64.1982 223.437 47.9186C223.437 31.639 198.503 18.4419 167.744 18.4419C136.985 18.4419 112.05 31.639 112.05 47.9186C112.05 64.1982 136.985 77.3953 167.744 77.3953Z"/>
</mask>
<path fill-rule="evenodd" clip-rule="evenodd" d="M169 85.5581C206.003 85.5581 236 69.3154 236 49.2791C236 29.2427 206.003 13 169 13C131.997 13 102 29.2427 102 49.2791C102 69.3154 131.997 85.5581 169 85.5581ZM167.744 77.3953C198.503 77.3953 223.437 64.1982 223.437 47.9186C223.437 31.639 198.503 18.4419 167.744 18.4419C136.985 18.4419 112.05 31.639 112.05 47.9186C112.05 64.1982 136.985 77.3953 167.744 77.3953Z" fill="#FDF4F6"/>
<path d="M234 49.2791C234 58.2147 227.282 66.7527 215.424 73.1735C203.645 79.5516 187.235 83.5581 169 83.5581V87.5581C187.768 87.5581 204.858 83.4433 217.328 76.691C229.72 69.9814 238 60.3798 238 49.2791H234ZM169 15C187.235 15 203.645 19.0065 215.424 25.3846C227.282 31.8055 234 40.3434 234 49.2791H238C238 38.1784 229.72 28.5768 217.328 21.8672C204.858 15.1148 187.768 11 169 11V15ZM104 49.2791C104 40.3434 110.718 31.8055 122.576 25.3846C134.355 19.0065 150.765 15 169 15V11C150.232 11 133.142 15.1148 120.672 21.8672C108.28 28.5768 100 38.1784 100 49.2791H104ZM169 83.5581C150.765 83.5581 134.355 79.5516 122.576 73.1735C110.718 66.7527 104 58.2147 104 49.2791H100C100 60.3798 108.28 69.9814 120.672 76.691C133.142 83.4433 150.232 87.5581 169 87.5581V83.5581ZM221.437 47.9186C221.437 54.9522 216.016 61.7934 206.19 66.9941C196.453 72.1474 182.864 75.3953 167.744 75.3953V79.3953C183.383 79.3953 197.64 76.0447 208.061 70.5295C218.392 65.0617 225.437 57.1645 225.437 47.9186H221.437ZM167.744 20.4419C182.864 20.4419 196.453 23.6898 206.19 28.8431C216.016 34.0438 221.437 40.885 221.437 47.9186H225.437C225.437 38.6727 218.392 30.7755 208.061 25.3077C197.64 19.7925 183.383 16.4419 167.744 16.4419V20.4419ZM114.05 47.9186C114.05 40.885 119.472 34.0438 129.298 28.8431C139.035 23.6898 152.624 20.4419 167.744 20.4419V16.4419C152.105 16.4419 137.847 19.7925 127.427 25.3077C117.096 30.7755 110.05 38.6727 110.05 47.9186H114.05ZM167.744 75.3953C152.624 75.3953 139.035 72.1474 129.298 66.9941C119.472 61.7934 114.05 54.9522 114.05 47.9186H110.05C110.05 57.1645 117.096 65.0617 127.427 70.5295C137.847 76.0447 152.105 79.3953 167.744 79.3953V75.3953Z" fill="#D382B9" mask="url(#path-4-inside-2_6_316)"/>
<mask id="path-6-inside-3_6_316" fill="white">
<path fill-rule="evenodd" clip-rule="evenodd" d="M102 91C146.183 91 182 73.0914 182 51C182 28.9086 146.183 7 102 7C57.8172 7 22 28.9086 22 51C22 73.0914 57.8172 91 102 91ZM100.5 82C137.227 82 167 67.4493 167 49.5C167 31.5507 137.227 17 100.5 17C63.7731 17 34 31.5507 34 49.5C34 67.4493 63.7731 82 100.5 82Z"/>
</mask>
<path fill-rule="evenodd" clip-rule="evenodd" d="M102 91C146.183 91 182 73.0914 182 51C182 28.9086 146.183 7 102 7C57.8172 7 22 28.9086 22 51C22 73.0914 57.8172 91 102 91ZM100.5 82C137.227 82 167 67.4493 167 49.5C167 31.5507 137.227 17 100.5 17C63.7731 17 34 31.5507 34 49.5C34 67.4493 63.7731 82 100.5 82Z" fill="#FDF4F6"/>
<path d="M180 51C180 60.88 171.939 70.3631 157.674 77.4954C143.529 84.5679 123.848 89 102 89V93C124.335 93 144.654 88.4778 159.463 81.0731C174.153 73.7282 184 63.2114 184 51H180ZM102 9C123.782 9 143.434 14.4044 157.579 22.454C171.846 30.5727 180 41.0483 180 51H184C184 38.8603 174.246 27.3359 159.558 18.9775C144.749 10.5499 124.401 5 102 5V9ZM24 51C24 41.0483 32.1542 30.5727 46.4206 22.454C60.5658 14.4044 80.2185 9 102 9V5C79.5987 5 59.2515 10.5499 44.4423 18.9775C29.7544 27.3359 20 38.8603 20 51H24ZM102 89C80.1518 89 60.4708 84.5679 46.3259 77.4954C32.0613 70.3631 24 60.88 24 51H20C20 63.2114 29.8473 73.7282 44.537 81.0731C59.3464 88.4778 79.6654 93 102 93V89ZM165 49.5C165 57.2849 158.483 64.8981 146.644 70.6841C134.938 76.405 118.627 80 100.5 80V84C119.1 84 136.038 80.3196 148.401 74.2779C160.63 68.3011 169 59.6643 169 49.5H165ZM100.5 19C118.627 19 134.938 22.595 146.644 28.3159C158.483 34.1019 165 41.7151 165 49.5H169C169 39.3357 160.63 30.6989 148.401 24.7221C136.038 18.6804 119.1 15 100.5 15V19ZM36 49.5C36 41.7151 42.5166 34.1019 54.3556 28.3159C66.0615 22.595 82.3735 19 100.5 19V15C81.8996 15 64.9616 18.6804 52.5992 24.7221C40.3699 30.6989 32 39.3357 32 49.5H36ZM100.5 80C82.3735 80 66.0615 76.405 54.3556 70.6841C42.5166 64.8981 36 57.2849 36 49.5H32C32 59.6643 40.3699 68.3011 52.5992 74.2779C64.9616 80.3196 81.8996 84 100.5 84V80Z" fill="#D382B9" mask="url(#path-6-inside-3_6_316)"/>
<mask id="path-8-inside-4_6_316" fill="white">
<path fill-rule="evenodd" clip-rule="evenodd" d="M102 85C146.183 85 182 67.0914 182 45C182 22.9086 146.183 5 102 5C57.8172 5 22 22.9086 22 45C22 67.0914 57.8172 85 102 85ZM100.5 76C137.227 76 167 61.4493 167 43.5C167 25.5507 137.227 11 100.5 11C63.7731 11 34 25.5507 34 43.5C34 61.4493 63.7731 76 100.5 76Z"/>
</mask>
<path fill-rule="evenodd" clip-rule="evenodd" d="M102 85C146.183 85 182 67.0914 182 45C182 22.9086 146.183 5 102 5C57.8172 5 22 22.9086 22 45C22 67.0914 57.8172 85 102 85ZM100.5 76C137.227 76 167 61.4493 167 43.5C167 25.5507 137.227 11 100.5 11C63.7731 11 34 25.5507 34 43.5C34 61.4493 63.7731 76 100.5 76Z" fill="#FDF4F6"/>
<path d="M180 45C180 54.88 171.939 64.3631 157.674 71.4954C143.529 78.5679 123.848 83 102 83V87C124.335 87 144.654 82.4778 159.463 75.0731C174.153 67.7282 184 57.2114 184 45H180ZM102 7C123.848 7 143.529 11.4321 157.674 18.5046C171.939 25.6369 180 35.12 180 45H184C184 32.7886 174.153 22.2718 159.463 14.9269C144.654 7.52218 124.335 3 102 3V7ZM24 45C24 35.12 32.0613 25.6369 46.3259 18.5046C60.4708 11.4321 80.1518 7 102 7V3C79.6654 3 59.3464 7.52218 44.537 14.9269C29.8473 22.2718 20 32.7886 20 45H24ZM102 83C80.1518 83 60.4708 78.5679 46.3259 71.4954C32.0613 64.3631 24 54.88 24 45H20C20 57.2114 29.8473 67.7282 44.537 75.0731C59.3464 82.4778 79.6654 87 102 87V83ZM165 43.5C165 51.2849 158.483 58.8981 146.644 64.6841C134.938 70.405 118.627 74 100.5 74V78C119.1 78 136.038 74.3196 148.401 68.2779C160.63 62.3011 169 53.6643 169 43.5H165ZM100.5 13C118.627 13 134.938 16.595 146.644 22.3159C158.483 28.1019 165 35.7151 165 43.5H169C169 33.3357 160.63 24.6989 148.401 18.7221C136.038 12.6804 119.1 9 100.5 9V13ZM36 43.5C36 35.7151 42.5166 28.1019 54.3556 22.3159C66.0615 16.595 82.3735 13 100.5 13V9C81.8996 9 64.9616 12.6804 52.5992 18.7221C40.3699 24.6989 32 33.3357 32 43.5H36ZM100.5 74C82.3735 74 66.0615 70.405 54.3556 64.6841C42.5166 58.8981 36 51.2849 36 43.5H32C32 53.6643 40.3699 62.3011 52.5992 68.2779C64.9616 74.3196 81.8996 78 100.5 78V74Z" fill="#D382B9" mask="url(#path-8-inside-4_6_316)"/>
<mask id="path-10-inside-5_6_316" fill="white">
<path fill-rule="evenodd" clip-rule="evenodd" d="M309 92C341.585 92 368 76.5903 368 57.5814C368 38.5725 341.585 19.7209 309 19.7209C276.415 19.7209 250 38.5725 250 57.5814C250 76.5903 276.415 92 309 92ZM307.894 84.2558C334.98 84.2558 356.938 71.7354 356.938 56.2907C356.938 40.846 334.98 28.3256 307.894 28.3256C280.808 28.3256 258.85 40.846 258.85 56.2907C258.85 71.7354 280.808 84.2558 307.894 84.2558Z"/>
</mask>
<path fill-rule="evenodd" clip-rule="evenodd" d="M309 92C341.585 92 368 76.5903 368 57.5814C368 38.5725 341.585 19.7209 309 19.7209C276.415 19.7209 250 38.5725 250 57.5814C250 76.5903 276.415 92 309 92ZM307.894 84.2558C334.98 84.2558 356.938 71.7354 356.938 56.2907C356.938 40.846 334.98 28.3256 307.894 28.3256C280.808 28.3256 258.85 40.846 258.85 56.2907C258.85 71.7354 280.808 84.2558 307.894 84.2558Z" fill="#FDF4F6"/>
<path d="M366 57.5814C366 66.0792 360.081 74.1423 349.712 80.1915C339.391 86.212 325.002 90 309 90V94C325.583 94 340.694 90.0831 351.727 83.6466C362.711 77.2387 370 68.0924 370 57.5814H366ZM309 21.7209C324.923 21.7209 339.284 26.3307 349.613 33.189C360.006 40.0893 366 49.0199 366 57.5814H370C370 47.134 362.787 37.1344 351.826 29.8567C340.801 22.537 325.662 17.7209 309 17.7209V21.7209ZM252 57.5814C252 49.0199 257.994 40.0893 268.387 33.189C278.716 26.3307 293.077 21.7209 309 21.7209V17.7209C292.338 17.7209 277.199 22.537 266.174 29.8567C255.213 37.1344 248 47.134 248 57.5814H252ZM309 90C292.998 90 278.609 86.212 268.288 80.1915C257.919 74.1423 252 66.0792 252 57.5814H248C248 68.0924 255.289 77.2387 266.273 83.6466C277.306 90.0831 292.417 94 309 94V90ZM354.938 56.2907C354.938 62.9834 350.161 69.4357 341.582 74.3276C333.06 79.1868 321.154 82.2558 307.894 82.2558V86.2558C321.72 86.2558 334.335 83.0646 343.564 77.8024C352.735 72.573 358.938 65.0427 358.938 56.2907H354.938ZM307.894 30.3256C321.154 30.3256 333.06 33.3946 341.582 38.2538C350.161 43.1457 354.938 49.598 354.938 56.2907H358.938C358.938 47.5387 352.735 40.0084 343.564 34.779C334.335 29.5168 321.72 26.3256 307.894 26.3256V30.3256ZM260.85 56.2907C260.85 49.598 265.626 43.1457 274.205 38.2538C282.727 33.3946 294.634 30.3256 307.894 30.3256V26.3256C294.068 26.3256 281.452 29.5168 272.224 34.779C263.053 40.0084 256.85 47.5387 256.85 56.2907H260.85ZM307.894 82.2558C294.634 82.2558 282.727 79.1868 274.205 74.3276C265.626 69.4357 260.85 62.9834 260.85 56.2907H256.85C256.85 65.0427 263.053 72.573 272.224 77.8024C281.452 83.0646 294.068 86.2558 307.894 86.2558V82.2558Z" fill="#D382B9" mask="url(#path-10-inside-5_6_316)"/>
<mask id="path-12-inside-6_6_316" fill="white">
<path fill-rule="evenodd" clip-rule="evenodd" d="M309 86.8372C341.585 86.8372 368 71.4275 368 52.4186C368 33.4097 341.585 18 309 18C276.415 18 250 33.4097 250 52.4186C250 71.4275 276.415 86.8372 309 86.8372ZM307.894 79.093C334.98 79.093 356.938 66.5726 356.938 51.1279C356.938 35.6832 334.98 23.1628 307.894 23.1628C280.808 23.1628 258.85 35.6832 258.85 51.1279C258.85 66.5726 280.808 79.093 307.894 79.093Z"/>
</mask>
<path fill-rule="evenodd" clip-rule="evenodd" d="M309 86.8372C341.585 86.8372 368 71.4275 368 52.4186C368 33.4097 341.585 18 309 18C276.415 18 250 33.4097 250 52.4186C250 71.4275 276.415 86.8372 309 86.8372ZM307.894 79.093C334.98 79.093 356.938 66.5726 356.938 51.1279C356.938 35.6832 334.98 23.1628 307.894 23.1628C280.808 23.1628 258.85 35.6832 258.85 51.1279C258.85 66.5726 280.808 79.093 307.894 79.093Z" fill="#FDF4F6"/>
<path d="M366 52.4186C366 60.9164 360.081 68.9795 349.712 75.0287C339.391 81.0492 325.002 84.8372 309 84.8372V88.8372C325.583 88.8372 340.694 84.9203 351.727 78.4838C362.711 72.0759 370 62.9296 370 52.4186H366ZM309 20C325.002 20 339.391 23.788 349.712 29.8085C360.081 35.8577 366 43.9208 366 52.4186H370C370 41.9076 362.711 32.7613 351.727 26.3534C340.694 19.9169 325.583 16 309 16V20ZM252 52.4186C252 43.9208 257.919 35.8577 268.288 29.8085C278.609 23.788 292.998 20 309 20V16C292.417 16 277.306 19.9169 266.273 26.3534C255.289 32.7613 248 41.9076 248 52.4186H252ZM309 84.8372C292.998 84.8372 278.609 81.0492 268.288 75.0287C257.919 68.9795 252 60.9164 252 52.4186H248C248 62.9296 255.289 72.0759 266.273 78.4838C277.306 84.9203 292.417 88.8372 309 88.8372V84.8372ZM354.938 51.1279C354.938 57.8206 350.161 64.2729 341.582 69.1648C333.06 74.024 321.154 77.093 307.894 77.093V81.093C321.72 81.093 334.335 77.9018 343.564 72.6396C352.735 67.4102 358.938 59.8799 358.938 51.1279H354.938ZM307.894 25.1628C321.154 25.1628 333.06 28.2318 341.582 33.091C350.161 37.9829 354.938 44.4352 354.938 51.1279H358.938C358.938 42.3759 352.735 34.8456 343.564 29.6162C334.335 24.354 321.72 21.1628 307.894 21.1628V25.1628ZM260.85 51.1279C260.85 44.4352 265.626 37.9829 274.205 33.091C282.727 28.2318 294.634 25.1628 307.894 25.1628V21.1628C294.068 21.1628 281.452 24.354 272.224 29.6162C263.053 34.8456 256.85 42.3759 256.85 51.1279H260.85ZM307.894 77.093C294.634 77.093 282.727 74.024 274.205 69.1648C265.626 64.2729 260.85 57.8206 260.85 51.1279H256.85C256.85 59.8799 263.053 67.4102 272.224 72.6396C281.452 77.9018 294.068 81.093 307.894 81.093V77.093Z" fill="#D382B9" mask="url(#path-12-inside-6_6_316)"/>
</svg>
