<svg width="380" height="100" viewBox="0 0 380 100" fill="none" xmlns="http://www.w3.org/2000/svg">
<path fill-rule="evenodd" clip-rule="evenodd" d="M178.56 26.7172C163.886 17.1143 141.756 11 117 11C72.8172 11 37 30.4756 37 54.5C37 78.5244 72.8172 98 117 98C143.434 98 166.874 91.0287 181.44 80.2828C196.114 89.8857 218.244 96 243 96C287.183 96 323 76.5244 323 52.5C323 28.4756 287.183 9 243 9C216.566 9 193.126 15.9713 178.56 26.7172Z" fill="black" fill-opacity="0.1"/>
<path d="M40.5 48.5C40.5 59.7035 48.8727 70.1792 63.148 77.9414C77.3655 85.6721 97.1094 90.5 119 90.5C140.891 90.5 160.634 85.6721 174.852 77.9414C189.127 70.1792 197.5 59.7035 197.5 48.5C197.5 37.2965 189.127 26.8208 174.852 19.0586C160.634 11.3279 140.891 6.5 119 6.5C97.1094 6.5 77.3655 11.3279 63.148 19.0586C48.8727 26.8208 40.5 37.2965 40.5 48.5Z" fill="#F78165" stroke="#BF0601" stroke-width="3"/>
<path d="M40.5 45C40.5 55.1715 48.7846 64.7838 63.1023 71.9426C77.3303 79.0566 97.091 83.5 119 83.5C140.909 83.5 160.67 79.0566 174.898 71.9426C189.215 64.7838 197.5 55.1715 197.5 45C197.5 34.8285 189.215 25.2162 174.898 18.0574C160.67 10.9434 140.909 6.5 119 6.5C97.091 6.5 77.3303 10.9434 63.1023 18.0574C48.7846 25.2162 40.5 34.8285 40.5 45Z" fill="#F78165" stroke="#BF0601" stroke-width="3"/>
<path d="M130.763 56.3065L130.684 56.2617L130.61 56.2076C121.541 49.5254 108.278 48.6272 96.8173 48.1864C96.148 48.1607 95.4837 48.1364 94.8264 48.1124C89.9741 47.9353 85.4982 47.7719 82.1367 47.1211C80.2277 46.7515 78.4884 46.1937 77.2 45.2538C75.8274 44.2526 75 42.8345 75 41C75 35.547 78.8131 33.3503 80.8931 32.1521C81.1972 31.9769 81.4643 31.823 81.677 31.6834C81.8073 31.5979 81.9047 31.5274 81.9769 31.4714C81.7223 31.1663 81.2046 30.7003 80.2387 30.0303C79.2013 29.3106 77.7479 28.423 75.7646 27.3074C72.0803 25.2349 68.7438 24.9698 65.8784 25.8001C62.9787 26.6404 60.4065 28.6496 58.3967 31.3876C54.3339 36.9224 52.8757 44.993 55.3815 50.9155C57.877 56.8142 64.7323 61.7491 75.1295 65.4624C85.4524 69.1491 98.9274 71.5084 114.098 72.5032C121.651 72.9985 127.645 72.7448 132.078 71.9457C136.585 71.1331 139.196 69.8063 140.344 68.4187C140.88 67.771 141.097 67.1147 141.075 66.4215C141.052 65.6965 140.76 64.7994 140.038 63.73C138.575 61.5631 135.564 59.0147 130.763 56.3065Z" fill="#A70502" stroke="#BF0601" stroke-width="3"/>
<path d="M107.614 14.8189L107.557 14.8233H107.5C106.493 14.8233 104.799 14.9744 102.975 15.3954C101.141 15.8188 99.2931 16.4885 97.8962 17.4588C96.521 18.4141 95.6913 19.5742 95.5624 21.0274C95.4346 22.4676 95.9638 24.5141 97.9828 27.3244C100.561 28.0002 101.879 27.6307 103.731 27.1117C104.32 26.9468 104.963 26.7667 105.717 26.6003C109.061 25.8624 113.589 25.7791 122.997 29.0848C127.736 30.7496 130.572 32.522 132.295 34.4505C134.06 36.4251 134.523 38.4175 134.829 40.1104C134.859 40.2758 134.887 40.4361 134.915 40.5917C135.176 42.0673 135.363 43.1241 136.096 44.155C136.881 45.2611 138.452 46.5059 142.055 47.707C148.155 49.7404 152.722 52.9322 156.594 55.6379C157.637 56.3669 158.63 57.0606 159.589 57.6868C161.886 59.1881 163.975 60.307 166.177 60.8172C168.339 61.3182 170.701 61.2525 173.573 60.2187C179.146 58.2123 183.463 51.9052 182.248 44.4978C181.039 37.1279 174.228 28.1927 156.473 21.5346C139.035 14.9951 120.871 13.8044 107.614 14.8189Z" fill="#A70502" stroke="#BF0601" stroke-width="3"/>
<path d="M154.5 76C175.5 70 196 56 192 44C190.33 54 175 63.5 171 66C167 68.5 162.5 69 144 58.5C125.5 48 133.5 46 124 36C114.5 26 88.5 37.5 85 42.5C81.5 47.5 92 44 106 44C120 44 128 50 137 56C146 62 151 68.5 150.5 73C150 77.5 120 76 110.5 76C101 76 56.5 67 75.5 74C94.5 81 133.5 82 154.5 76Z" fill="#FF9C85"/>
<ellipse cx="3.5" cy="4.5" rx="3.5" ry="4.5" transform="matrix(-0.749684 0.661796 0.661796 0.749684 124.044 57)" fill="#F78165" stroke="#BF0601" stroke-width="3"/>
<ellipse cx="3.5" cy="5.93998" rx="3.5" ry="5.93998" transform="matrix(0.0593486 0.998237 0.998237 -0.0593486 162.698 48.4631)" fill="#F78165" stroke="#BF0601" stroke-width="3"/>
<ellipse cx="3.5" cy="5.93998" rx="3.5" ry="5.93998" transform="matrix(0.356474 0.934305 0.934305 -0.356474 159.065 39.6937)" fill="#F78165" stroke="#BF0601" stroke-width="3"/>
<ellipse cx="3.5" cy="5.93998" rx="3.5" ry="5.93998" transform="matrix(0.74448 0.667645 0.667645 -0.74448 147.857 34.8444)" fill="#F78165" stroke="#BF0601" stroke-width="3"/>
<ellipse cx="3.76132" cy="6.10216" rx="3.76132" ry="6.10216" transform="matrix(0.913794 0.406178 0.406178 -0.913794 137 32)" fill="#F78165" stroke="#BF0601" stroke-width="3"/>
<ellipse cx="3.45828" cy="4.20108" rx="3.45828" ry="4.20108" transform="matrix(0.978105 0.208114 0.208114 -0.978105 127.323 25.633)" fill="#F78165" stroke="#BF0601" stroke-width="3"/>
<ellipse cx="3.45828" cy="4.20108" rx="3.45828" ry="4.20108" transform="matrix(0.999977 0.00679892 0.00679892 -0.999977 116.256 24.0063)" fill="#F78165" stroke="#BF0601" stroke-width="3"/>
<ellipse cx="3.45828" cy="4.20108" rx="3.45828" ry="4.20108" transform="matrix(0.999977 0.00679892 0.00679892 -0.999977 104.026 24.402)" fill="#F78165" stroke="#BF0601" stroke-width="3"/>
<path d="M109.011 63.4503C109.637 66.4887 111.679 68.6359 113.572 68.2463C115.465 67.8566 116.493 65.0776 115.868 62.0392C115.242 59.0009 113.16 55.2591 111.267 55.6488C109.373 56.0384 108.386 60.4119 109.011 63.4503Z" fill="#F78165" stroke="#BF0601" stroke-width="3"/>
<path d="M96.6978 60.1311C96.1506 63.1846 97.2494 65.9363 99.1521 66.2773C101.055 66.6183 103.041 64.4194 103.588 61.366C104.135 58.3126 103.591 54.0652 101.688 53.7242C99.7852 53.3832 97.245 57.0777 96.6978 60.1311Z" fill="#F78165" stroke="#BF0601" stroke-width="3"/>
<path d="M84.842 59.0741C84.2947 62.1275 85.3935 64.8792 87.2962 65.2202C89.1989 65.5612 91.185 63.3623 91.7322 60.3089C92.2794 57.2555 91.7347 53.0081 89.8321 52.6671C87.9294 52.3261 85.3892 56.0206 84.842 59.0741Z" fill="#F78165" stroke="#BF0601" stroke-width="3"/>
<path d="M73.707 56.0549C73.3166 58.2337 74.4623 60.2621 76.2662 60.5854C78.0701 60.9087 79.849 59.4045 80.2395 57.2256C80.63 55.0468 79.9446 51.9628 78.1407 51.6395C76.3368 51.3162 74.0975 53.8761 73.707 56.0549Z" fill="#F78165" stroke="#BF0601" stroke-width="3"/>
<path d="M64.622 48.908C63.1887 50.5949 63.1589 52.9243 64.5555 54.1109C65.952 55.2976 68.2461 54.8921 69.6794 53.2053C71.1127 51.5184 72.0713 48.5081 70.6748 47.3215C69.2782 46.1348 66.0553 47.2212 64.622 48.908Z" fill="#F78165" stroke="#BF0601" stroke-width="3"/>
<path d="M61.9277 38.775C59.7396 39.1095 58.1903 40.8493 58.4672 42.6609C58.7442 44.4724 60.7425 45.6698 62.9306 45.3353C65.1187 45.0008 67.8158 43.3556 67.5389 41.5441C67.2619 39.7325 64.1158 38.4405 61.9277 38.775Z" fill="#F78165" stroke="#BF0601" stroke-width="3"/>
<path d="M70.6865 31.059C69.2563 29.3696 66.963 28.9599 65.5643 30.144C64.1656 31.3281 64.1911 33.6575 65.6213 35.347C67.0515 37.0365 69.8649 38.4737 71.2636 37.2896C72.6623 36.1055 72.1168 32.7485 70.6865 31.059Z" fill="#F78165" stroke="#BF0601" stroke-width="3"/>
<path d="M321.5 46.5C321.5 57.7035 313.127 68.1792 298.852 75.9414C284.634 83.6721 264.891 88.5 243 88.5C221.109 88.5 201.366 83.6721 187.148 75.9414C172.873 68.1792 164.5 57.7035 164.5 46.5C164.5 35.2965 172.873 24.8208 187.148 17.0586C201.366 9.32787 221.109 4.5 243 4.5C264.891 4.5 284.634 9.32787 298.852 17.0586C313.127 24.8208 321.5 35.2965 321.5 46.5Z" fill="#F78165" stroke="#BF0601" stroke-width="3"/>
<path d="M321.5 43C321.5 53.1715 313.215 62.7838 298.898 69.9426C284.67 77.0566 264.909 81.5 243 81.5C221.091 81.5 201.33 77.0566 187.102 69.9426C172.785 62.7838 164.5 53.1715 164.5 43C164.5 32.8285 172.785 23.2162 187.102 16.0574C201.33 8.94338 221.091 4.5 243 4.5C264.909 4.5 284.67 8.94338 298.898 16.0574C313.215 23.2162 321.5 32.8285 321.5 43Z" fill="#F78165" stroke="#BF0601" stroke-width="3"/>
<path d="M231.237 54.3065L231.316 54.2617L231.39 54.2076C240.459 47.5254 253.722 46.6272 265.183 46.1864C265.852 46.1607 266.516 46.1364 267.174 46.1124C272.026 45.9353 276.502 45.7719 279.863 45.1211C281.772 44.7515 283.512 44.1937 284.8 43.2538C286.173 42.2526 287 40.8345 287 39C287 33.547 283.187 31.3503 281.107 30.1521C280.803 29.9769 280.536 29.823 280.323 29.6834C280.193 29.5979 280.095 29.5274 280.023 29.4714C280.278 29.1663 280.795 28.7003 281.761 28.0303C282.799 27.3106 284.252 26.423 286.235 25.3074C289.92 23.2349 293.256 22.9698 296.122 23.8001C299.021 24.6404 301.593 26.6496 303.603 29.3876C307.666 34.9224 309.124 42.993 306.619 48.9155C304.123 54.8142 297.268 59.7491 286.871 63.4624C276.548 67.1491 263.073 69.5084 247.902 70.5032C240.349 70.9985 234.355 70.7448 229.922 69.9457C225.415 69.1331 222.804 67.8063 221.656 66.4187C221.12 65.771 220.903 65.1147 220.925 64.4215C220.948 63.6965 221.24 62.7994 221.962 61.73C223.425 59.5631 226.436 57.0147 231.237 54.3065Z" fill="#A70502" stroke="#BF0601" stroke-width="3"/>
<path d="M254.386 12.8189L254.443 12.8233H254.5C255.507 12.8233 257.201 12.9744 259.025 13.3954C260.859 13.8188 262.707 14.4885 264.104 15.4588C265.479 16.4141 266.309 17.5742 266.438 19.0274C266.565 20.4676 266.036 22.5141 264.017 25.3244C261.439 26.0002 260.121 25.6307 258.269 25.1117C257.68 24.9468 257.037 24.7667 256.283 24.6003C252.939 23.8624 248.411 23.7791 239.003 27.0848C234.264 28.7496 231.428 30.522 229.705 32.4505C227.94 34.4251 227.477 36.4175 227.171 38.1104C227.141 38.2758 227.113 38.4361 227.085 38.5917C226.824 40.0673 226.637 41.1241 225.904 42.155C225.119 43.2611 223.548 44.5059 219.945 45.707C213.845 47.7404 209.278 50.9322 205.406 53.6379C204.363 54.3669 203.37 55.0606 202.411 55.6868C200.114 57.1881 198.025 58.307 195.823 58.8172C193.661 59.3182 191.299 59.2525 188.427 58.2187C182.854 56.2123 178.537 49.9052 179.752 42.4978C180.961 35.1279 187.772 26.1927 205.527 19.5346C222.965 12.9951 241.129 11.8044 254.386 12.8189Z" fill="#A70502" stroke="#BF0601" stroke-width="3"/>
<path d="M207.5 74C186.5 68 166 54 170 42C171.67 52 187 61.5 191 64C195 66.5 199.5 67 218 56.5C236.5 46 228.5 44 238 34C247.5 24 273.5 35.5 277 40.5C280.5 45.5 270 42 256 42C242 42 234 48 225 54C216 60 211 66.5 211.5 71C212 75.5 242 74 251.5 74C261 74 305.5 65 286.5 72C267.5 79 228.5 80 207.5 74Z" fill="#FF9C85"/>
<ellipse cx="237.602" cy="60.6899" rx="3.5" ry="4.5" transform="rotate(41.437 237.602 60.6899)" fill="#F78165" stroke="#BF0601" stroke-width="3"/>
<ellipse cx="193.165" cy="49.6044" rx="3.5" ry="5.93998" transform="rotate(93.4024 193.165 49.6044)" fill="#F78165" stroke="#BF0601" stroke-width="3"/>
<ellipse cx="196.137" cy="38.8464" rx="3.5" ry="5.93998" transform="rotate(110.884 196.137 38.8464)" fill="#F78165" stroke="#BF0601" stroke-width="3"/>
<ellipse cx="207.571" cy="30.759" rx="3.5" ry="5.93998" transform="rotate(138.114 207.571 30.759)" fill="#F78165" stroke="#BF0601" stroke-width="3"/>
<ellipse cx="219.084" cy="25.9517" rx="3.76132" ry="6.10216" transform="rotate(156.035 219.084 25.9517)" fill="#F78165" stroke="#BF0601" stroke-width="3"/>
<ellipse cx="230.42" cy="20.2436" rx="3.45828" ry="4.20108" transform="rotate(167.988 230.42 20.2436)" fill="#F78165" stroke="#BF0601" stroke-width="3"/>
<ellipse cx="242.257" cy="17.8288" rx="3.45828" ry="4.20108" transform="rotate(179.61 242.257 17.8288)" fill="#F78165" stroke="#BF0601" stroke-width="3"/>
<ellipse cx="254.487" cy="18.2245" rx="3.45828" ry="4.20108" transform="rotate(179.61 254.487 18.2245)" fill="#F78165" stroke="#BF0601" stroke-width="3"/>
<path d="M252.989 61.4503C252.363 64.4887 250.321 66.6359 248.428 66.2463C246.535 65.8566 245.507 63.0776 246.132 60.0392C246.758 57.0009 248.84 53.2591 250.733 53.6488C252.627 54.0384 253.614 58.4119 252.989 61.4503Z" fill="#F78165" stroke="#BF0601" stroke-width="3"/>
<path d="M265.302 58.1311C265.849 61.1846 264.751 63.9363 262.848 64.2773C260.945 64.6183 258.959 62.4194 258.412 59.366C257.865 56.3126 258.409 52.0652 260.312 51.7242C262.215 51.3832 264.755 55.0777 265.302 58.1311Z" fill="#F78165" stroke="#BF0601" stroke-width="3"/>
<path d="M277.158 57.0741C277.705 60.1275 276.606 62.8792 274.704 63.2202C272.801 63.5612 270.815 61.3623 270.268 58.3089C269.721 55.2555 270.265 51.0081 272.168 50.6671C274.071 50.3261 276.611 54.0206 277.158 57.0741Z" fill="#F78165" stroke="#BF0601" stroke-width="3"/>
<path d="M288.293 54.0549C288.683 56.2337 287.538 58.2621 285.734 58.5854C283.93 58.9087 282.151 57.4045 281.761 55.2256C281.37 53.0468 282.055 49.9628 283.859 49.6395C285.663 49.3162 287.902 51.8761 288.293 54.0549Z" fill="#F78165" stroke="#BF0601" stroke-width="3"/>
<path d="M297.378 46.908C298.811 48.5949 298.841 50.9243 297.445 52.1109C296.048 53.2976 293.754 52.8921 292.321 51.2053C290.887 49.5184 289.929 46.5081 291.325 45.3215C292.722 44.1348 295.945 45.2212 297.378 46.908Z" fill="#F78165" stroke="#BF0601" stroke-width="3"/>
<path d="M300.072 36.775C302.26 37.1095 303.81 38.8493 303.533 40.6609C303.256 42.4724 301.257 43.6698 299.069 43.3353C296.881 43.0008 294.184 41.3556 294.461 39.5441C294.738 37.7325 297.884 36.4405 300.072 36.775Z" fill="#F78165" stroke="#BF0601" stroke-width="3"/>
<path d="M170.5 73.5C167.7 70.3 164.333 53.1667 163 45C163.833 46.6667 165.7 51.4 166.5 57C167.3 62.6 177.5 71.3333 182.5 75L170.5 82C171.667 80.5 173.3 76.7 170.5 73.5Z" fill="black" fill-opacity="0.1"/>
<path d="M291.313 29.059C292.744 27.3696 295.037 26.9599 296.436 28.144C297.834 29.3281 297.809 31.6575 296.379 33.347C294.949 35.0365 292.135 36.4737 290.736 35.2896C289.338 34.1055 289.883 30.7485 291.313 29.059Z" fill="#F78165" stroke="#BF0601" stroke-width="3"/>
</svg>
