<svg width="32" height="32" viewBox="0 0 32 32" fill="none" xmlns="http://www.w3.org/2000/svg">
<path d="M24.2345 9.16847C24.4718 9.05326 24.6427 8.96292 24.6427 8.96292C24.6427 8.96292 23.9935 8.58748 23.2803 8.22099C22.5671 7.85451 20.2477 7.24718 18.8611 7.24718C18.5222 7.24718 18.1928 7.26729 17.8753 7.30734C17.8775 7.29509 17.8791 7.28247 17.8816 7.26967C17.9763 6.70093 18.1287 6.44362 18.2015 6.32C18.2719 6.20131 18.4018 5.9804 18.3348 5.67755C18.2672 5.36301 18.0485 5 16.9616 5C16.8441 5 16.7036 5.00969 16.5573 5.08156C16.2166 5.24963 15.7703 5.85988 15.5383 6.84558C15.5008 7.00542 15.4724 7.16415 15.4512 7.3132C14.8591 7.25486 14.2726 7.22542 13.6999 7.22542C11.8323 7.22542 10.5888 7.53576 10.1409 7.66907L8.67155 8.27128C8.67155 8.27128 9.02716 8.4986 9.44259 8.72902C6.54621 10.0406 5 12.753 5 16.6775C5 22.4358 10.9694 26 16.5 26C22.7335 26 28 21.8131 28 16.8571C28 13.146 26.7373 10.5766 24.2345 9.16847ZM10.3435 8.37113C10.4242 8.34718 10.5209 8.32084 10.6296 8.29378C11.2434 8.14053 12.2942 7.95692 13.7008 7.95692C14.414 7.95692 15.2183 8.0041 16.1022 8.12663C16.1041 8.07981 16.1072 8.01069 16.1124 7.92711C16.1264 7.69998 16.1577 7.3591 16.2384 7.01602C16.4443 6.14023 16.8019 5.77448 16.8707 5.74046C16.8826 5.73425 16.916 5.7315 16.962 5.7315C17.167 5.7315 17.6236 5.78618 17.6347 5.83812C17.6487 5.90158 17.3339 6.19052 17.174 7.14678C17.1196 7.47266 17.1201 7.71168 17.1465 7.92693C17.1573 8.01434 17.1719 8.0981 17.1893 8.18149C17.7093 8.0447 18.2714 7.9785 18.8625 7.9785C20.1615 7.9785 21.5958 8.29926 23.0058 8.89617C22.7713 8.97444 22.5098 9.04869 22.2324 9.11635C21.42 9.31441 20.4693 9.45376 19.6476 9.45376C19.2251 9.45376 18.8368 9.417 18.5193 9.33269C19.6533 10.1895 20.2582 10.7134 20.9713 12.2243C19.3565 11.6624 17.9734 10.7255 17.2691 9.83286C17.2315 10.5653 16.6351 12.0356 15.562 13.3624C15.5063 12.4248 15.3324 10.8961 15.7978 9.62438C14.3594 10.6719 12.9341 11.1494 11.6317 12.0411C11.8387 11.3346 12.7435 9.90107 14.1173 9.25333C13.9768 9.27326 13.8325 9.2824 13.6854 9.2824C12.9715 9.2824 12.1961 9.06679 11.5121 8.82412C11.0776 8.66995 10.6801 8.50518 10.3595 8.37735C10.3541 8.37552 10.3486 8.37315 10.3435 8.37113ZM24.0742 22.7541C22.0258 24.3519 19.265 25.2685 16.5 25.2685C11.3151 25.2685 5.71875 21.984 5.71875 16.6775C5.71875 12.177 7.79576 10.0631 10.3313 9.1575C10.9315 9.41005 11.5633 9.63663 12.1898 9.79939C11.5173 10.5203 11.0907 11.3763 10.9419 11.8321C10.7931 12.2878 10.6796 13.3267 10.6796 13.3267C10.6796 13.3267 11.6971 12.8666 12.0319 12.6482C12.3666 12.4299 13.1871 11.9571 13.8162 11.6324C14.1342 11.4681 14.4566 11.3015 14.7833 11.1209C14.7376 11.8489 14.8104 12.6552 14.8435 13.4066C14.8765 14.1581 15.0467 14.9431 15.0467 14.9431C15.0467 14.9431 15.5854 14.3969 16.1156 13.8272C16.6461 13.2576 17.3199 12.0722 17.6498 11.2275C18.4872 11.9083 20.1507 12.7602 20.7377 12.9165C21.3248 13.0729 22.1266 13.2225 22.1266 13.2225C22.1266 13.2225 21.9108 12.4864 21.6177 11.9078C21.3246 11.3292 20.9031 10.5907 20.5216 10.1428C21.4277 10.06 22.6866 9.75825 23.228 9.59146C23.2733 9.57757 23.3215 9.56092 23.3704 9.54337C25.9927 10.7566 27.2812 13.1786 27.2812 16.8573C27.2812 19.0469 26.1422 21.1408 24.0742 22.7541Z" fill="white"/>
</svg>
