<svg width="380" height="100" viewBox="0 0 380 100" fill="none" xmlns="http://www.w3.org/2000/svg">
<ellipse cx="113" cy="51.5" rx="80" ry="43.5" fill="black" fill-opacity="0.1"/>
<path d="M191.5 45.5C191.5 56.7035 183.127 67.1792 168.852 74.9414C154.634 82.6721 134.891 87.5 113 87.5C91.1094 87.5 71.3655 82.6721 57.148 74.9414C42.8727 67.1792 34.5 56.7035 34.5 45.5C34.5 34.2965 42.8727 23.8208 57.148 16.0586C71.3655 8.32787 91.1094 3.5 113 3.5C134.891 3.5 154.634 8.32787 168.852 16.0586C183.127 23.8208 191.5 34.2965 191.5 45.5Z" fill="#F78165" stroke="#BF0601" stroke-width="3"/>
<path d="M191.5 42C191.5 52.1715 183.215 61.7838 168.898 68.9426C154.67 76.0566 134.909 80.5 113 80.5C91.091 80.5 71.3303 76.0566 57.1023 68.9426C42.7846 61.7838 34.5 52.1715 34.5 42C34.5 31.8285 42.7846 22.2162 57.1023 15.0574C71.3303 7.94338 91.091 3.5 113 3.5C134.909 3.5 154.67 7.94338 168.898 15.0574C183.215 22.2162 191.5 31.8285 191.5 42Z" fill="#F78165" stroke="#BF0601" stroke-width="3"/>
<path d="M101.237 53.3065L101.316 53.2617L101.39 53.2076C110.459 46.5254 123.722 45.6272 135.183 45.1864C135.852 45.1607 136.516 45.1364 137.174 45.1124C142.026 44.9353 146.502 44.7719 149.863 44.1211C151.772 43.7515 153.512 43.1937 154.8 42.2538C156.173 41.2526 157 39.8345 157 38C157 32.547 153.187 30.3503 151.107 29.1521C150.803 28.9769 150.536 28.823 150.323 28.6834C150.193 28.5979 150.095 28.5274 150.023 28.4714C150.278 28.1663 150.795 27.7003 151.761 27.0303C152.799 26.3106 154.252 25.423 156.235 24.3074C159.92 22.2349 163.256 21.9698 166.122 22.8001C169.021 23.6404 171.593 25.6496 173.603 28.3876C177.666 33.9224 179.124 41.993 176.619 47.9155C174.123 53.8142 167.268 58.7491 156.871 62.4624C146.548 66.1491 133.073 68.5084 117.902 69.5032C110.349 69.9985 104.355 69.7448 99.9224 68.9457C95.4148 68.1331 92.804 66.8063 91.6556 65.4187C91.1196 64.771 90.9026 64.1147 90.925 63.4215C90.9485 62.6965 91.24 61.7994 91.962 60.73C93.4249 58.5631 96.436 56.0147 101.237 53.3065Z" fill="#F78165" stroke="#BF0601" stroke-width="3"/>
<path d="M134.05 24.307C132.559 24.6415 131.33 24.3782 130.028 23.7819C129.282 23.4401 128.525 22.9942 127.67 22.4702C127.527 22.3828 127.382 22.2931 127.233 22.2017C126.513 21.758 125.728 21.274 124.891 20.8148C122.837 19.6889 120.386 18.6606 117.196 18.3706C114.016 18.0815 110.204 18.5348 105.422 20.2149C100.587 21.9136 97.857 24.1377 96.471 26.8058C95.1115 29.4232 95.2039 32.1978 95.3602 34.5423C95.3764 34.7858 95.393 35.0236 95.4093 35.2562C95.56 37.411 95.6789 39.1115 95.1526 40.6094C94.6398 42.0688 93.4004 43.5552 89.945 44.707C83.8449 46.7404 79.2776 49.9322 75.4058 52.6379C74.3627 53.3669 73.37 54.0606 72.4114 54.6868C70.1136 56.1881 68.0246 57.307 65.8229 57.8172C63.6613 58.3182 61.299 58.2525 58.4274 57.2187C52.9453 55.2452 49.1682 49.0369 50.941 41.603C52.7155 34.1614 60.1833 25.1956 77.9461 18.5346C95.7014 11.8763 113.596 10.7653 126.289 11.8744C132.651 12.4303 137.613 13.536 140.562 14.7245C141.837 15.2382 142.562 15.7006 142.904 16.0169C138.482 19.3499 135.38 22.6582 134.05 24.307ZM143.138 15.8249C143.138 15.8249 143.137 15.8264 143.134 15.8295C143.136 15.8264 143.137 15.8249 143.138 15.8249Z" fill="#F78165" stroke="#BF0601" stroke-width="3"/>
<ellipse cx="243" cy="52.5" rx="80" ry="43.5" fill="black" fill-opacity="0.1"/>
<path d="M321.5 46.5C321.5 57.7035 313.127 68.1792 298.852 75.9414C284.634 83.6721 264.891 88.5 243 88.5C221.109 88.5 201.366 83.6721 187.148 75.9414C172.873 68.1792 164.5 57.7035 164.5 46.5C164.5 35.2965 172.873 24.8208 187.148 17.0586C201.366 9.32787 221.109 4.5 243 4.5C264.891 4.5 284.634 9.32787 298.852 17.0586C313.127 24.8208 321.5 35.2965 321.5 46.5Z" fill="#F78165" stroke="#BF0601" stroke-width="3"/>
<path d="M321.5 43C321.5 53.1715 313.215 62.7838 298.898 69.9426C284.67 77.0566 264.909 81.5 243 81.5C221.091 81.5 201.33 77.0566 187.102 69.9426C172.785 62.7838 164.5 53.1715 164.5 43C164.5 32.8285 172.785 23.2162 187.102 16.0574C201.33 8.94338 221.091 4.5 243 4.5C264.909 4.5 284.67 8.94338 298.898 16.0574C313.215 23.2162 321.5 32.8285 321.5 43Z" fill="#F78165" stroke="#BF0601" stroke-width="3"/>
<path d="M231.237 54.3065L231.316 54.2617L231.39 54.2076C240.459 47.5254 253.722 46.6272 265.183 46.1864C265.852 46.1607 266.516 46.1364 267.174 46.1124C272.026 45.9353 276.502 45.7719 279.863 45.1211C281.772 44.7515 283.512 44.1937 284.8 43.2538C286.173 42.2526 287 40.8345 287 39C287 33.547 283.187 31.3503 281.107 30.1521C280.803 29.9769 280.536 29.823 280.323 29.6834C280.193 29.5979 280.095 29.5274 280.023 29.4714C280.278 29.1663 280.795 28.7003 281.761 28.0303C282.799 27.3106 284.252 26.423 286.235 25.3074C289.92 23.2349 293.256 22.9698 296.122 23.8001C299.021 24.6404 301.593 26.6496 303.603 29.3876C307.666 34.9224 309.124 42.993 306.619 48.9155C304.123 54.8142 297.268 59.7491 286.871 63.4624C276.548 67.1491 263.073 69.5084 247.902 70.5032C240.349 70.9985 234.355 70.7448 229.922 69.9457C225.415 69.1331 222.804 67.8063 221.656 66.4187C221.12 65.771 220.903 65.1147 220.925 64.4215C220.948 63.6965 221.24 62.7994 221.962 61.73C223.425 59.5631 226.436 57.0147 231.237 54.3065Z" fill="#F78165" stroke="#BF0601" stroke-width="3"/>
<path d="M264.05 25.307C262.559 25.6415 261.33 25.3782 260.028 24.7819C259.282 24.4401 258.525 23.9942 257.67 23.4702C257.527 23.3828 257.382 23.2931 257.233 23.2017C256.513 22.758 255.728 22.274 254.891 21.8148C252.837 20.6889 250.386 19.6606 247.196 19.3706C244.016 19.0815 240.204 19.5348 235.422 21.2149C230.587 22.9136 227.857 25.1377 226.471 27.8058C225.111 30.4232 225.204 33.1978 225.36 35.5423C225.376 35.7858 225.393 36.0236 225.409 36.2562C225.56 38.411 225.679 40.1115 225.153 41.6094C224.64 43.0688 223.4 44.5552 219.945 45.707C213.845 47.7404 209.278 50.9322 205.406 53.6379C204.363 54.3669 203.37 55.0606 202.411 55.6868C200.114 57.1881 198.025 58.307 195.823 58.8172C193.661 59.3182 191.299 59.2525 188.427 58.2187C182.945 56.2452 179.168 50.0369 180.941 42.603C182.715 35.1614 190.183 26.1956 207.946 19.5346C225.701 12.8763 243.596 11.7653 256.289 12.8744C262.651 13.4303 267.613 14.536 270.562 15.7245C271.837 16.2382 272.562 16.7006 272.904 17.0169C268.482 20.3499 265.38 23.6582 264.05 25.307ZM273.138 16.8249C273.138 16.8249 273.137 16.8264 273.134 16.8295C273.136 16.8264 273.137 16.8249 273.138 16.8249Z" fill="#F78165" stroke="#BF0601" stroke-width="3"/>
</svg>
