<svg width="380" height="100" viewBox="0 0 380 100" fill="none" xmlns="http://www.w3.org/2000/svg">
<path fill-rule="evenodd" clip-rule="evenodd" d="M282 96C262.504 96 244.637 92.513 230.757 86.7184C218.893 92.4891 203.204 96 186 96C157.607 96 133.34 86.4371 123.583 72.935C112.845 81.464 95.5307 87 76 87C43.4152 87 17 71.5903 17 52.5814C17 33.5725 43.4152 14.7209 76 14.7209C100.329 14.7209 121.219 25.2304 130.243 38.4679C142.256 27.6624 162.745 19.814 186 19.814C199.758 19.814 212.548 22.5609 223.187 27.0421C237.805 18.0702 258.743 12 282 12C326.183 12 362 33.9086 362 56C362 78.0914 326.183 96 282 96ZM119.738 65.1249C119.252 63.3618 119 61.5573 119 59.7209C119 54.5107 121.028 49.3116 124.681 44.4703C119.342 32.3221 100.066 23.3256 77.1062 23.3256C50.0201 23.3256 28.0625 35.846 28.0625 51.2907C28.0625 66.7354 50.0201 79.2558 77.1062 79.2558C95.3665 79.2558 111.296 73.5654 119.738 65.1249ZM134.634 48.6817C142.201 37.1564 162.903 28.8837 187.256 28.8837C197.404 28.8837 206.917 30.32 215.111 32.8294C206.822 39.8128 202 47.8941 202 56C202 65.8508 209.122 74.87 220.932 81.8404C211.579 85.6035 199.911 87.8372 187.256 87.8372C159.48 87.8372 136.453 77.0754 132.249 63.0002C134.036 59.7136 135 56.2132 135 52.5814C135 51.2788 134.876 49.9769 134.634 48.6817ZM283.5 87C267.707 87 253.2 84.3094 241.793 79.815C248.873 74.0624 253 67.1526 253 59.7209C253 49.9122 245.811 40.1433 234.131 32.7258C246.301 26.1393 263.911 22 283.5 22C320.227 22 350 36.5507 350 54.5C350 72.4493 320.227 87 283.5 87ZM217 54.5C217 48.2957 220.557 42.4975 226.729 37.5659C236.754 42.8962 242.95 50.2454 242.95 58.3605C242.95 64.7284 239.135 70.6247 232.648 75.444C222.884 69.7876 217 62.4797 217 54.5Z" fill="black" fill-opacity="0.1"/>
<mask id="path-2-inside-1_17_806" fill="white">
<path fill-rule="evenodd" clip-rule="evenodd" d="M186 91C148.997 91 119 74.7573 119 54.7209C119 34.6845 148.997 14.8139 186 14.8139C223.003 14.8139 253 34.6845 253 54.7209C253 74.7573 223.003 91 186 91ZM187.256 82.8372C156.497 82.8372 131.563 69.64 131.563 53.3605C131.563 37.0809 156.497 23.8837 187.256 23.8837C218.015 23.8837 242.95 37.0809 242.95 53.3605C242.95 69.64 218.015 82.8372 187.256 82.8372Z"/>
</mask>
<path fill-rule="evenodd" clip-rule="evenodd" d="M186 91C148.997 91 119 74.7573 119 54.7209C119 34.6845 148.997 14.8139 186 14.8139C223.003 14.8139 253 34.6845 253 54.7209C253 74.7573 223.003 91 186 91ZM187.256 82.8372C156.497 82.8372 131.563 69.64 131.563 53.3605C131.563 37.0809 156.497 23.8837 187.256 23.8837C218.015 23.8837 242.95 37.0809 242.95 53.3605C242.95 69.64 218.015 82.8372 187.256 82.8372Z" fill="#FDFCF4"/>
<path d="M121 54.7209C121 63.6566 127.718 72.1945 139.576 78.6154C151.355 84.9935 167.765 89 186 89V93C167.232 93 150.142 88.8851 137.672 82.1328C125.28 75.4232 117 65.8216 117 54.7209H121ZM186 16.8139C167.838 16.8139 151.457 21.6945 139.673 28.9564C127.802 36.2724 121 45.7175 121 54.7209H117C117 43.688 125.196 33.1796 137.575 25.5512C150.04 17.8687 167.159 12.8139 186 12.8139V16.8139ZM251 54.7209C251 45.7175 244.198 36.2724 232.327 28.9564C220.543 21.6945 204.162 16.8139 186 16.8139V12.8139C204.841 12.8139 221.96 17.8687 234.425 25.5512C246.804 33.1796 255 43.688 255 54.7209H251ZM186 89C204.235 89 220.645 84.9935 232.424 78.6154C244.282 72.1945 251 63.6566 251 54.7209H255C255 65.8216 246.72 75.4232 234.328 82.1328C221.858 88.8851 204.768 93 186 93V89ZM133.563 53.3605C133.563 60.3941 138.984 67.2352 148.81 72.436C158.547 77.5893 172.136 80.8372 187.256 80.8372V84.8372C171.617 84.8372 157.36 81.4865 146.939 75.9713C136.608 70.5036 129.563 62.6064 129.563 53.3605H133.563ZM187.256 25.8837C172.136 25.8837 158.547 29.1316 148.81 34.2849C138.984 39.4857 133.563 46.3268 133.563 53.3605H129.563C129.563 44.1145 136.608 36.2173 146.939 30.7496C157.36 25.2344 171.617 21.8837 187.256 21.8837V25.8837ZM240.95 53.3605C240.95 46.3268 235.528 39.4857 225.702 34.2849C215.965 29.1316 202.376 25.8837 187.256 25.8837V21.8837C202.895 21.8837 217.153 25.2344 227.573 30.7496C237.904 36.2173 244.95 44.1145 244.95 53.3605H240.95ZM187.256 80.8372C202.376 80.8372 215.965 77.5893 225.702 72.436C235.528 67.2352 240.95 60.3941 240.95 53.3605H244.95C244.95 62.6064 237.904 70.5036 227.573 75.9713C217.153 81.4865 202.895 84.8372 187.256 84.8372V80.8372Z" fill="#EEE9BB" mask="url(#path-2-inside-1_17_806)"/>
<mask id="path-4-inside-2_17_806" fill="white">
<path fill-rule="evenodd" clip-rule="evenodd" d="M186 85.5581C148.997 85.5581 119 69.3154 119 49.2791C119 29.2427 148.997 13 186 13C223.003 13 253 29.2427 253 49.2791C253 69.3154 223.003 85.5581 186 85.5581ZM187.256 77.3953C156.497 77.3953 131.563 64.1982 131.563 47.9186C131.563 31.639 156.497 18.4419 187.256 18.4419C218.015 18.4419 242.95 31.639 242.95 47.9186C242.95 64.1982 218.015 77.3953 187.256 77.3953Z"/>
</mask>
<path fill-rule="evenodd" clip-rule="evenodd" d="M186 85.5581C148.997 85.5581 119 69.3154 119 49.2791C119 29.2427 148.997 13 186 13C223.003 13 253 29.2427 253 49.2791C253 69.3154 223.003 85.5581 186 85.5581ZM187.256 77.3953C156.497 77.3953 131.563 64.1982 131.563 47.9186C131.563 31.639 156.497 18.4419 187.256 18.4419C218.015 18.4419 242.95 31.639 242.95 47.9186C242.95 64.1982 218.015 77.3953 187.256 77.3953Z" fill="#FDFCF4"/>
<path d="M121 49.2791C121 58.2147 127.718 66.7527 139.576 73.1735C151.355 79.5516 167.765 83.5581 186 83.5581V87.5581C167.232 87.5581 150.142 83.4433 137.672 76.691C125.28 69.9814 117 60.3798 117 49.2791H121ZM186 15C167.765 15 151.355 19.0065 139.576 25.3846C127.718 31.8055 121 40.3434 121 49.2791H117C117 38.1784 125.28 28.5768 137.672 21.8672C150.142 15.1148 167.232 11 186 11V15ZM251 49.2791C251 40.3434 244.282 31.8055 232.424 25.3846C220.645 19.0065 204.235 15 186 15V11C204.768 11 221.858 15.1148 234.328 21.8672C246.72 28.5768 255 38.1784 255 49.2791H251ZM186 83.5581C204.235 83.5581 220.645 79.5516 232.424 73.1735C244.282 66.7527 251 58.2147 251 49.2791H255C255 60.3798 246.72 69.9814 234.328 76.691C221.858 83.4433 204.768 87.5581 186 87.5581V83.5581ZM133.563 47.9186C133.563 54.9522 138.984 61.7934 148.81 66.9941C158.547 72.1474 172.136 75.3953 187.256 75.3953V79.3953C171.617 79.3953 157.36 76.0447 146.939 70.5295C136.608 65.0617 129.563 57.1645 129.563 47.9186H133.563ZM187.256 20.4419C172.136 20.4419 158.547 23.6898 148.81 28.8431C138.984 34.0438 133.563 40.885 133.563 47.9186H129.563C129.563 38.6727 136.608 30.7755 146.939 25.3077C157.36 19.7925 171.617 16.4419 187.256 16.4419V20.4419ZM240.95 47.9186C240.95 40.885 235.528 34.0438 225.702 28.8431C215.965 23.6898 202.376 20.4419 187.256 20.4419V16.4419C202.895 16.4419 217.153 19.7925 227.573 25.3077C237.904 30.7755 244.95 38.6727 244.95 47.9186H240.95ZM187.256 75.3953C202.376 75.3953 215.965 72.1474 225.702 66.9941C235.528 61.7934 240.95 54.9522 240.95 47.9186H244.95C244.95 57.1645 237.904 65.0617 227.573 70.5295C217.153 76.0447 202.895 79.3953 187.256 79.3953V75.3953Z" fill="#EEE9BB" mask="url(#path-4-inside-2_17_806)"/>
<mask id="path-6-inside-3_17_806" fill="white">
<path fill-rule="evenodd" clip-rule="evenodd" d="M283 91C238.817 91 203 73.0914 203 51C203 28.9086 238.817 7 283 7C327.183 7 363 28.9086 363 51C363 73.0914 327.183 91 283 91ZM284.5 82C247.773 82 218 67.4493 218 49.5C218 31.5507 247.773 17 284.5 17C321.227 17 351 31.5507 351 49.5C351 67.4493 321.227 82 284.5 82Z"/>
</mask>
<path fill-rule="evenodd" clip-rule="evenodd" d="M283 91C238.817 91 203 73.0914 203 51C203 28.9086 238.817 7 283 7C327.183 7 363 28.9086 363 51C363 73.0914 327.183 91 283 91ZM284.5 82C247.773 82 218 67.4493 218 49.5C218 31.5507 247.773 17 284.5 17C321.227 17 351 31.5507 351 49.5C351 67.4493 321.227 82 284.5 82Z" fill="#FDFCF4"/>
<path d="M205 51C205 60.88 213.061 70.3631 227.326 77.4954C241.471 84.5679 261.152 89 283 89V93C260.665 93 240.346 88.4778 225.537 81.0731C210.847 73.7282 201 63.2114 201 51H205ZM283 9C261.218 9 241.566 14.4044 227.421 22.454C213.154 30.5727 205 41.0483 205 51H201C201 38.8603 210.754 27.3359 225.442 18.9775C240.251 10.5499 260.599 5 283 5V9ZM361 51C361 41.0483 352.846 30.5727 338.579 22.454C324.434 14.4044 304.782 9 283 9V5C305.401 5 325.749 10.5499 340.558 18.9775C355.246 27.3359 365 38.8603 365 51H361ZM283 89C304.848 89 324.529 84.5679 338.674 77.4954C352.939 70.3631 361 60.88 361 51H365C365 63.2114 355.153 73.7282 340.463 81.0731C325.654 88.4778 305.335 93 283 93V89ZM220 49.5C220 57.2849 226.517 64.8981 238.356 70.6841C250.062 76.405 266.373 80 284.5 80V84C265.9 84 248.962 80.3196 236.599 74.2779C224.37 68.3011 216 59.6643 216 49.5H220ZM284.5 19C266.373 19 250.062 22.595 238.356 28.3159C226.517 34.1019 220 41.7151 220 49.5H216C216 39.3357 224.37 30.6989 236.599 24.7221C248.962 18.6804 265.9 15 284.5 15V19ZM349 49.5C349 41.7151 342.483 34.1019 330.644 28.3159C318.938 22.595 302.627 19 284.5 19V15C303.1 15 320.038 18.6804 332.401 24.7221C344.63 30.6989 353 39.3357 353 49.5H349ZM284.5 80C302.627 80 318.938 76.405 330.644 70.6841C342.483 64.8981 349 57.2849 349 49.5H353C353 59.6643 344.63 68.3011 332.401 74.2779C320.038 80.3196 303.1 84 284.5 84V80Z" fill="#EEE9BB" mask="url(#path-6-inside-3_17_806)"/>
<mask id="path-8-inside-4_17_806" fill="white">
<path fill-rule="evenodd" clip-rule="evenodd" d="M283 85C238.817 85 203 67.0914 203 45C203 22.9086 238.817 5 283 5C327.183 5 363 22.9086 363 45C363 67.0914 327.183 85 283 85ZM284.5 76C247.773 76 218 61.4493 218 43.5C218 25.5507 247.773 11 284.5 11C321.227 11 351 25.5507 351 43.5C351 61.4493 321.227 76 284.5 76Z"/>
</mask>
<path fill-rule="evenodd" clip-rule="evenodd" d="M283 85C238.817 85 203 67.0914 203 45C203 22.9086 238.817 5 283 5C327.183 5 363 22.9086 363 45C363 67.0914 327.183 85 283 85ZM284.5 76C247.773 76 218 61.4493 218 43.5C218 25.5507 247.773 11 284.5 11C321.227 11 351 25.5507 351 43.5C351 61.4493 321.227 76 284.5 76Z" fill="#FDFCF4"/>
<path d="M205 45C205 54.88 213.061 64.3631 227.326 71.4954C241.471 78.5679 261.152 83 283 83V87C260.665 87 240.346 82.4778 225.537 75.0731C210.847 67.7282 201 57.2114 201 45H205ZM283 7C261.152 7 241.471 11.4321 227.326 18.5046C213.061 25.6369 205 35.12 205 45H201C201 32.7886 210.847 22.2718 225.537 14.9269C240.346 7.52218 260.665 3 283 3V7ZM361 45C361 35.12 352.939 25.6369 338.674 18.5046C324.529 11.4321 304.848 7 283 7V3C305.335 3 325.654 7.52218 340.463 14.9269C355.153 22.2718 365 32.7886 365 45H361ZM283 83C304.848 83 324.529 78.5679 338.674 71.4954C352.939 64.3631 361 54.88 361 45H365C365 57.2114 355.153 67.7282 340.463 75.0731C325.654 82.4778 305.335 87 283 87V83ZM220 43.5C220 51.2849 226.517 58.8981 238.356 64.6841C250.062 70.405 266.373 74 284.5 74V78C265.9 78 248.962 74.3196 236.599 68.2779C224.37 62.3011 216 53.6643 216 43.5H220ZM284.5 13C266.373 13 250.062 16.595 238.356 22.3159C226.517 28.1019 220 35.7151 220 43.5H216C216 33.3357 224.37 24.6989 236.599 18.7221C248.962 12.6804 265.9 9 284.5 9V13ZM349 43.5C349 35.7151 342.483 28.1019 330.644 22.3159C318.938 16.595 302.627 13 284.5 13V9C303.1 9 320.038 12.6804 332.401 18.7221C344.63 24.6989 353 33.3357 353 43.5H349ZM284.5 74C302.627 74 318.938 70.405 330.644 64.6841C342.483 58.8981 349 51.2849 349 43.5H353C353 53.6643 344.63 62.3011 332.401 68.2779C320.038 74.3196 303.1 78 284.5 78V74Z" fill="#EEE9BB" mask="url(#path-8-inside-4_17_806)"/>
<mask id="path-10-inside-5_17_806" fill="white">
<path fill-rule="evenodd" clip-rule="evenodd" d="M76 82C43.4152 82 17 66.5903 17 47.5814C17 28.5725 43.4152 9.72093 76 9.72093C108.585 9.72093 135 28.5725 135 47.5814C135 66.5903 108.585 82 76 82ZM77.1062 74.2558C50.0201 74.2558 28.0625 61.7354 28.0625 46.2907C28.0625 30.846 50.0201 18.3256 77.1062 18.3256C104.192 18.3256 126.15 30.846 126.15 46.2907C126.15 61.7354 104.192 74.2558 77.1062 74.2558Z"/>
</mask>
<path fill-rule="evenodd" clip-rule="evenodd" d="M76 82C43.4152 82 17 66.5903 17 47.5814C17 28.5725 43.4152 9.72093 76 9.72093C108.585 9.72093 135 28.5725 135 47.5814C135 66.5903 108.585 82 76 82ZM77.1062 74.2558C50.0201 74.2558 28.0625 61.7354 28.0625 46.2907C28.0625 30.846 50.0201 18.3256 77.1062 18.3256C104.192 18.3256 126.15 30.846 126.15 46.2907C126.15 61.7354 104.192 74.2558 77.1062 74.2558Z" fill="#FDFCF4"/>
<path d="M19 47.5814C19 56.0792 24.919 64.1423 35.2885 70.1915C45.6088 76.212 59.9981 80 76 80V84C59.4171 84 44.3064 80.0831 33.2729 73.6466C22.2886 67.2387 15 58.0924 15 47.5814H19ZM76 11.7209C60.077 11.7209 45.7165 16.3307 35.387 23.189C24.9943 30.0893 19 39.0199 19 47.5814H15C15 37.134 22.2133 27.1344 33.1744 19.8567C44.1987 12.537 59.3382 7.72093 76 7.72093V11.7209ZM133 47.5814C133 39.0199 127.006 30.0893 116.613 23.189C106.284 16.3307 91.923 11.7209 76 11.7209V7.72093C92.6618 7.72093 107.801 12.537 118.826 19.8567C129.787 27.1344 137 37.134 137 47.5814H133ZM76 80C92.0019 80 106.391 76.212 116.712 70.1915C127.081 64.1423 133 56.0792 133 47.5814H137C137 58.0924 129.711 67.2387 118.727 73.6466C107.694 80.0831 92.5829 84 76 84V80ZM30.0625 46.2907C30.0625 52.9834 34.8385 59.4357 43.4177 64.3276C51.9396 69.1868 63.846 72.2558 77.1062 72.2558V76.2558C63.2803 76.2558 50.6649 73.0646 41.4364 67.8024C32.2653 62.573 26.0625 55.0427 26.0625 46.2907H30.0625ZM77.1062 20.3256C63.846 20.3256 51.9396 23.3946 43.4177 28.2538C34.8385 33.1457 30.0625 39.598 30.0625 46.2907H26.0625C26.0625 37.5387 32.2653 30.0084 41.4364 24.779C50.6649 19.5168 63.2803 16.3256 77.1062 16.3256V20.3256ZM124.15 46.2907C124.15 39.598 119.374 33.1457 110.795 28.2538C102.273 23.3946 90.3664 20.3256 77.1062 20.3256V16.3256C90.9322 16.3256 103.548 19.5168 112.776 24.779C121.947 30.0084 128.15 37.5387 128.15 46.2907H124.15ZM77.1062 72.2558C90.3664 72.2558 102.273 69.1868 110.795 64.3276C119.374 59.4357 124.15 52.9834 124.15 46.2907H128.15C128.15 55.0427 121.947 62.573 112.776 67.8024C103.548 73.0646 90.9322 76.2558 77.1062 76.2558V72.2558Z" fill="#EEE9BB" mask="url(#path-10-inside-5_17_806)"/>
<mask id="path-12-inside-6_17_806" fill="white">
<path fill-rule="evenodd" clip-rule="evenodd" d="M76 76.8372C43.4152 76.8372 17 61.4275 17 42.4186C17 23.4097 43.4152 8 76 8C108.585 8 135 23.4097 135 42.4186C135 61.4275 108.585 76.8372 76 76.8372ZM77.1062 69.093C50.0201 69.093 28.0625 56.5726 28.0625 41.1279C28.0625 25.6832 50.0201 13.1628 77.1062 13.1628C104.192 13.1628 126.15 25.6832 126.15 41.1279C126.15 56.5726 104.192 69.093 77.1062 69.093Z"/>
</mask>
<path fill-rule="evenodd" clip-rule="evenodd" d="M76 76.8372C43.4152 76.8372 17 61.4275 17 42.4186C17 23.4097 43.4152 8 76 8C108.585 8 135 23.4097 135 42.4186C135 61.4275 108.585 76.8372 76 76.8372ZM77.1062 69.093C50.0201 69.093 28.0625 56.5726 28.0625 41.1279C28.0625 25.6832 50.0201 13.1628 77.1062 13.1628C104.192 13.1628 126.15 25.6832 126.15 41.1279C126.15 56.5726 104.192 69.093 77.1062 69.093Z" fill="#FDFCF4"/>
<path d="M19 42.4186C19 50.9164 24.919 58.9795 35.2885 65.0287C45.6088 71.0492 59.9981 74.8372 76 74.8372V78.8372C59.4171 78.8372 44.3064 74.9203 33.2729 68.4838C22.2886 62.0759 15 52.9296 15 42.4186H19ZM76 10C59.9981 10 45.6088 13.788 35.2885 19.8085C24.919 25.8577 19 33.9208 19 42.4186H15C15 31.9076 22.2886 22.7613 33.2729 16.3534C44.3064 9.91691 59.4171 6 76 6V10ZM133 42.4186C133 33.9208 127.081 25.8577 116.712 19.8085C106.391 13.788 92.0019 10 76 10V6C92.5829 6 107.694 9.91691 118.727 16.3534C129.711 22.7613 137 31.9076 137 42.4186H133ZM76 74.8372C92.0019 74.8372 106.391 71.0492 116.712 65.0287C127.081 58.9795 133 50.9164 133 42.4186H137C137 52.9296 129.711 62.0759 118.727 68.4838C107.694 74.9203 92.5829 78.8372 76 78.8372V74.8372ZM30.0625 41.1279C30.0625 47.8206 34.8385 54.2729 43.4177 59.1648C51.9396 64.024 63.846 67.093 77.1062 67.093V71.093C63.2803 71.093 50.6649 67.9018 41.4364 62.6396C32.2653 57.4102 26.0625 49.8799 26.0625 41.1279H30.0625ZM77.1062 15.1628C63.846 15.1628 51.9396 18.2318 43.4177 23.091C34.8385 27.9829 30.0625 34.4352 30.0625 41.1279H26.0625C26.0625 32.3759 32.2653 24.8456 41.4364 19.6162C50.6649 14.354 63.2803 11.1628 77.1062 11.1628V15.1628ZM124.15 41.1279C124.15 34.4352 119.374 27.9829 110.795 23.091C102.273 18.2318 90.3664 15.1628 77.1062 15.1628V11.1628C90.9322 11.1628 103.548 14.354 112.776 19.6162C121.947 24.8456 128.15 32.3759 128.15 41.1279H124.15ZM77.1062 67.093C90.3664 67.093 102.273 64.024 110.795 59.1648C119.374 54.2729 124.15 47.8206 124.15 41.1279H128.15C128.15 49.8799 121.947 57.4102 112.776 62.6396C103.548 67.9018 90.9322 71.093 77.1062 71.093V67.093Z" fill="#EEE9BB" mask="url(#path-12-inside-6_17_806)"/>
</svg>
