<svg width="32" height="32" viewBox="0 0 32 32" fill="none" xmlns="http://www.w3.org/2000/svg">
<path d="M18.293 14.49C18.3871 14.407 18.4884 14.3327 18.5958 14.268C18.6156 14.2558 18.6365 14.243 18.6592 14.2302C18.5243 13.7513 18.2872 13.2853 17.8386 13.0499C17.4097 12.825 16.9402 12.8651 16.5072 13.0255C16.5781 11.9742 16.5578 10.7045 15.9482 9.89145C15.2909 9.01394 14.1757 9.08658 13.2285 9.3911C13.2738 7.88015 12.9722 5.93219 11.2207 5.60908C9.89044 5.36326 8.90309 6.40291 8.87636 7.57622C7.78208 6.74694 6.21825 6.10944 4.99206 6.74113C4.43301 7.0317 4.20579 7.66223 4.28831 8.26137C4.35746 8.76406 4.63699 9.15923 4.98567 9.49861C4.07561 9.4405 3.05921 9.58985 3.37302 10.712C3.59385 11.5012 4.59805 12.0847 5.4128 12.402L5.48079 12.3787C5.49645 12.3569 5.51618 12.3384 5.53891 12.3241C5.70297 12.2368 5.87524 12.166 6.05321 12.1125C6.02545 12.087 5.99285 12.0672 5.95732 12.0544C5.37806 11.824 4.82862 11.5247 4.32085 11.163C3.91406 10.8759 3.29864 9.94259 4.22206 9.92225C4.73404 9.91238 5.2681 10.0135 5.76439 10.1193C5.99684 10.1687 6.23917 9.86007 6.02008 9.67992C5.60748 9.3417 5.12805 8.97036 4.90257 8.47233C4.77007 8.18176 4.7073 7.76567 4.87351 7.47278C5.08097 7.10608 5.5546 7.04971 5.93815 7.05029C7.17015 7.05029 8.26617 7.74068 9.11695 8.57984C9.368 8.8274 9.73062 8.51591 9.5865 8.21779C8.92692 6.85213 10.5332 5.5347 11.7367 6.4494C12.7653 7.22928 12.7118 8.65771 12.6241 9.81184C12.6107 9.98618 12.8228 10.1605 12.9914 10.0919C13.9119 9.72641 15.1863 9.41493 15.6501 10.5952C16.0045 11.4995 15.8354 12.6292 15.8081 13.5712C15.8011 13.8036 16.0987 13.9995 16.2998 13.8536C16.6723 13.5857 17.2267 13.2243 17.6573 13.5555C17.9746 13.8002 18.1135 14.1947 18.1989 14.5818C18.2287 14.5495 18.2601 14.5189 18.293 14.49Z" fill="white"/>
<path d="M16.4405 12.148C16.9676 11.2246 18.1839 10.905 18.9394 11.7894C19.0794 11.9533 19.3461 11.7778 19.2909 11.5849C19.1846 11.1912 19.2201 10.7726 19.3913 10.4025C19.5624 10.0323 19.8583 9.73418 20.2271 9.56021C20.9902 9.21153 21.9008 9.44398 22.5209 9.967C22.6807 10.1012 22.876 10.0385 22.9527 9.85078C23.2857 9.04416 24.2015 7.73661 25.2191 7.77903C25.7659 7.80228 26.0054 8.34971 25.9746 8.82507C25.9368 9.39575 25.5678 9.86472 25.326 10.3593C25.2545 10.5051 25.3376 10.7184 25.5253 10.7079C26.2029 10.6655 27.2531 10.3965 27.2379 11.4146C27.2269 12.1643 26.5842 12.8634 26.1251 13.398C25.9705 13.5787 26.2093 13.8228 26.3877 13.6607C27.1142 12.9988 27.9522 12.112 27.7563 11.0316C27.6895 10.6626 27.4657 10.3453 27.0996 10.2181C26.6033 10.0437 26.0885 10.3407 25.5887 10.2529L25.6904 10.6388C26.4517 9.81184 27.1752 7.86272 25.6637 7.32052C24.2532 6.81493 22.9068 8.6211 22.4587 9.7113L22.8905 9.59508C22.0728 8.90469 20.9222 8.62633 19.9418 9.15341C19.0445 9.63634 18.5866 10.7149 18.8894 11.6872L19.241 11.4826C18.2885 10.4023 16.5619 10.5348 16.0035 11.9533C15.9023 12.2108 16.3109 12.3706 16.4434 12.1387L16.4405 12.148Z" fill="white"/>
<path d="M18.9614 9.49222C18.9614 9.87228 18.8754 10.2936 18.9614 10.6655C18.9833 10.5983 19.0103 10.5328 19.0422 10.4697C19.1098 10.3418 19.1888 10.2202 19.2781 10.1065C19.3589 10.0001 19.46 9.88099 19.5309 9.78627C19.5401 9.77461 19.5502 9.76373 19.5611 9.75373C19.5734 9.46955 19.5611 9.18712 19.5524 8.95932C19.5373 8.39155 19.5489 7.66106 19.1805 7.19151C18.4692 6.28494 17.0501 6.78471 16.0935 7.23219C15.9686 6.14605 15.5531 4.85244 14.4733 4.47238C13.7946 4.23296 12.9589 4.55142 12.7375 5.16974C12.0918 4.53456 11.2782 3.92495 10.3711 4.133C9.32506 4.37243 9.24137 5.53237 9.46162 6.40407C9.51974 6.64001 9.91491 6.59817 9.89573 6.34596C9.83762 5.59048 9.73011 4.4689 10.8558 4.60256C11.6432 4.69728 12.3086 5.46961 12.8246 6.01762C12.9961 6.20009 13.3604 6.01181 13.264 5.76192C13.2279 5.67377 13.2112 5.57892 13.2148 5.48376C13.2184 5.38859 13.2424 5.2953 13.285 5.21015C13.3277 5.125 13.3881 5.04996 13.4621 4.99007C13.5362 4.93018 13.6222 4.88682 13.7144 4.8629C14.2165 4.73041 14.6988 5.1279 14.9551 5.50854C15.3723 6.12803 15.5199 6.94394 15.5542 7.67617C15.5548 7.72673 15.5686 7.77625 15.5941 7.81986C15.6197 7.86347 15.6562 7.89965 15.7001 7.92482C15.7439 7.95 15.7936 7.9633 15.8441 7.96342C15.8947 7.96353 15.9444 7.95046 15.9883 7.92548C16.8856 7.48033 18.7603 6.55749 18.9155 8.22244C18.955 8.64027 18.9608 9.06973 18.9614 9.49222Z" fill="white"/>
<path d="M15.9081 6.91838C16.2092 6.22102 16.6154 5.48414 17.2976 5.09013C18.3076 4.509 18.9149 5.3098 19.2357 6.17569C19.3031 6.35816 19.5588 6.41918 19.6663 6.2338C20.0016 5.65267 20.4352 4.86407 21.2087 4.8693C22.2297 4.87685 21.9118 6.04551 21.9845 6.70568C22.01 6.93523 22.2471 7.03983 22.4279 6.88932C22.6712 6.67499 22.9623 6.52214 23.2769 6.44359C23.5931 6.36979 23.6709 6.44882 23.7378 6.77135C23.8458 7.29088 23.643 7.80809 23.4019 8.25498C23.281 8.47872 23.5832 8.73907 23.7657 8.53625C24.2887 7.95512 24.5792 6.81842 24.1039 6.11409C23.6616 5.45799 22.4848 6.18557 22.0606 6.52088L22.4947 6.63711C22.3616 5.75437 22.6813 4.49621 21.4208 4.35906C20.3521 4.24284 19.7163 5.17265 19.2595 5.9967L19.6902 6.05481C19.3432 5.15347 18.8045 4.21669 17.687 4.45611C16.616 4.68334 15.8099 5.75669 15.5019 6.74985C15.4287 6.98579 15.8082 7.15664 15.9087 6.92419L15.9081 6.91838Z" fill="white"/>
<path d="M14.4803 26.0505C12.8055 25.4164 12.2023 23.9189 11.9919 22.2388C11.8239 20.9057 11.9181 19.2448 11.1359 18.0843C11.058 17.968 10.8529 18.0366 10.8999 18.1836C11.1777 19.0554 11.4131 19.8689 11.5119 20.7906C11.6066 21.6681 11.6554 22.5549 11.8786 23.4127C12.2272 24.7412 13.0315 25.929 14.4216 26.2672C14.5652 26.3021 14.6157 26.1004 14.4797 26.0499L14.4803 26.0505Z" fill="white"/>
<path d="M17.5219 25.9162C18.9928 25.2125 19.4368 23.608 19.8749 22.1702C20.1405 21.2985 20.4834 20.4634 20.9593 19.6847C21.4208 18.9292 22.0455 18.3254 22.5598 17.6165C22.6377 17.5084 22.4831 17.3573 22.3756 17.4322C21.1947 18.2563 20.3724 19.8434 19.8819 21.1585C19.2804 22.7723 19.1224 24.8539 17.4197 25.7407C17.3034 25.8017 17.4051 25.9732 17.5219 25.9151V25.9162Z" fill="white"/>
<path d="M18.0723 21.825C18.4239 20.8638 18.6464 19.7829 18.4558 18.7619C18.4337 18.6457 18.2588 18.6776 18.2542 18.7892C18.2147 19.8137 18.1908 20.7825 17.8974 21.7768C17.8637 21.8901 18.0328 21.9331 18.0717 21.825H18.0723Z" fill="white"/>
<path d="M23.6645 16.6983C23.897 16.6355 24.1672 16.5356 24.3322 16.3542C24.3483 16.3378 24.3579 16.3161 24.3591 16.2931C24.3604 16.2701 24.3532 16.2475 24.339 16.2294C24.3247 16.2113 24.3044 16.199 24.2818 16.1948C24.2591 16.1906 24.2358 16.1948 24.216 16.2066C24.0074 16.3054 23.8319 16.428 23.6052 16.492C23.4733 16.5292 23.5291 16.7349 23.6633 16.6983H23.6645Z" fill="white"/>
<path d="M13.2814 20.9894C13.3598 20.3646 13.7201 19.9137 14.2007 19.5365C14.3088 19.4517 14.1711 19.2983 14.0601 19.3546C13.4528 19.6632 13.1053 20.3333 13.0367 20.9894C13.0199 21.1474 13.2622 21.1428 13.2814 20.9894Z" fill="white"/>
<path d="M10.6878 16.3775C10.6059 16.0829 10.5455 15.7661 10.4257 15.4837C10.3851 15.3884 10.2125 15.4349 10.2258 15.5378C10.2659 15.8423 10.3746 16.1462 10.4542 16.4426C10.4943 16.5931 10.7303 16.5286 10.6867 16.3775H10.6878Z" fill="white"/>
<path d="M14.5756 15.7975C14.4454 14.8462 14.6087 13.9379 14.9626 13.0528C15.0015 12.9546 14.8464 12.8942 14.7947 12.9819C14.2815 13.8664 14.1554 14.8642 14.335 15.8638C14.3635 16.0242 14.5965 15.9527 14.5756 15.7975Z" fill="white"/>
<path d="M11.3357 11.4681C11.3642 10.8991 11.4281 10.3331 11.445 9.7636C11.4442 9.74323 11.4362 9.72378 11.4225 9.70869C11.4088 9.69361 11.3902 9.68385 11.37 9.68114C11.3498 9.67843 11.3292 9.68295 11.312 9.69388C11.2948 9.70482 11.282 9.72149 11.2759 9.74094C11.1521 10.3105 11.1196 10.8869 11.0952 11.4681C11.0888 11.6232 11.3276 11.6227 11.3357 11.4681Z" fill="white"/>
<path d="M20.9622 12.9215C20.9913 12.474 21.0023 12.026 20.9094 11.5849C20.8815 11.4541 20.6839 11.4878 20.6815 11.6157C20.6723 12.0509 20.7031 12.4874 20.6815 12.9209C20.674 13.1005 20.9483 13.0981 20.9599 12.9209L20.9622 12.9215Z" fill="white"/>
<path d="M23.976 10.7655C23.9832 10.6064 24.0066 10.4485 24.0458 10.2942C24.0525 10.2673 24.0494 10.2389 24.0371 10.2141C24.0247 10.1892 24.0039 10.1697 23.9783 10.1589C23.9528 10.1481 23.9242 10.1467 23.8978 10.1551C23.8714 10.1635 23.8488 10.1811 23.8342 10.2047C23.7273 10.368 23.6988 10.5743 23.6959 10.7655C23.6959 10.9462 23.9784 10.9462 23.976 10.7655Z" fill="white"/>
<path d="M16.9896 9.84787C17.0535 9.42946 17.2348 9.08368 17.3789 8.69258C17.4173 8.58914 17.2662 8.50545 17.1941 8.58565C16.9111 8.90121 16.7908 9.36669 16.7345 9.77756C16.7118 9.94318 16.964 10.017 16.9896 9.84787Z" fill="white"/>
<path d="M14.6 8.57112C14.5727 8.36888 14.5547 8.16897 14.4762 7.97894C14.4691 7.95614 14.4541 7.9366 14.434 7.92377C14.4138 7.91094 14.3898 7.90566 14.3661 7.90886C14.3425 7.91207 14.3207 7.92355 14.3047 7.94127C14.2887 7.95899 14.2794 7.9818 14.2786 8.00567C14.2519 8.22244 14.292 8.43339 14.321 8.64841C14.3315 8.72628 14.4309 8.76463 14.4989 8.74894C14.5354 8.73798 14.5662 8.71339 14.585 8.68028C14.6039 8.64717 14.6092 8.60807 14.6 8.57112Z" fill="white"/>
<path d="M20.8379 8.15851C20.8379 7.78659 20.8792 7.38735 20.7972 7.0224C20.7894 6.99686 20.7735 6.9745 20.752 6.95863C20.7305 6.94275 20.7045 6.93418 20.6778 6.93418C20.6511 6.93418 20.6251 6.94275 20.6036 6.95863C20.5821 6.9745 20.5662 6.99686 20.5584 7.0224C20.4759 7.38735 20.5165 7.78717 20.5177 8.15851C20.5177 8.36423 20.8367 8.36482 20.8379 8.15851Z" fill="white"/>
<path d="M3.48116 12.6501C5.39891 13.2644 7.39219 14.6149 8.35281 16.435C9.39304 18.4056 9.34074 20.6267 9.54471 22.7764C9.71324 24.5389 10.3955 26.0516 12.0163 26.9158C13.5272 27.7201 15.3316 27.6027 17.0053 27.0198C17.4464 26.8658 16.9472 26.2876 16.4945 26.4241C14.8295 26.9291 13.078 27.0593 11.6351 25.8825C10.0079 24.5552 10.2148 22.4131 10.0265 20.5297C9.84167 18.6811 9.41396 16.6413 8.2145 15.1728C7.07431 13.7781 5.39251 12.5577 3.60262 12.209C3.3167 12.1509 3.1999 12.5577 3.48175 12.6478L3.48116 12.6501Z" fill="white"/>
<path d="M16.9762 26.4276C16.5485 26.1673 16.097 25.8988 15.7745 25.5077C15.2991 24.9306 15.3892 24.2292 15.5536 23.5516C15.8512 22.3202 16.3672 21.1405 16.5683 19.8904C16.7153 18.9879 16.5683 18.0511 15.7303 17.5461C15.3037 17.2887 14.8888 17.0231 14.3826 16.9813C13.9375 16.9464 13.4976 17.0086 13.0629 17.0975C13.1675 16.3647 13.2215 15.6179 13.2715 14.8834C13.3174 14.1994 13.4737 13.4213 13.1134 12.7867C12.8275 12.2834 12.2516 12.062 11.7088 12.2764C11.334 12.4246 11.0917 12.753 10.8836 13.108C10.6785 11.8104 9.86781 10.3767 8.60094 10.0972C7.61998 9.88041 6.71806 10.8091 6.91565 11.7243C6.34904 11.679 5.73304 11.8778 5.19433 11.9748C4.65562 12.0719 4.18897 12.2195 3.63457 12.1602C3.45035 12.141 3.77404 11.9208 3.92514 11.8115C4.07623 11.7023 4.4069 11.5651 4.34762 11.3274C4.33109 11.2779 4.29944 11.2347 4.25712 11.2041C4.2148 11.1734 4.16393 11.1568 4.11168 11.1566C4.00605 11.1585 3.90396 11.195 3.82111 11.2606C3.4335 11.5378 2.47695 12.4269 3.36899 12.707C3.8432 12.8558 4.58124 12.5908 5.05021 12.5327C5.43434 12.4833 5.81615 12.4229 6.19969 12.3688C6.93134 12.266 7.28351 12.3688 7.41252 12.2183C7.51422 12.1021 7.30152 11.8167 7.35441 11.3466C7.3683 11.2089 7.4125 11.0759 7.48384 10.9572C7.55517 10.8386 7.65187 10.7372 7.76701 10.6603C8.27783 10.3238 8.81944 10.6835 9.16464 11.0746C9.82771 11.8249 10.4646 12.9924 10.3891 14.021C10.3682 14.3023 10.7488 14.3563 10.8836 14.1546C11.1539 13.7519 11.3648 13.0993 11.9 12.979C12.5654 12.8297 12.5393 13.5921 12.5927 14.0495C12.7305 15.2408 12.5736 16.3089 12.2836 17.4642C12.2133 17.7449 12.4579 17.9483 12.7218 17.9018C13.7591 17.7199 15.4833 17.341 15.9407 18.6381C16.14 19.203 15.9686 19.819 15.7588 20.3524C15.5315 20.9272 15.3206 21.506 15.1393 22.0958C14.84 23.0745 14.3943 24.2588 14.7679 25.2746C15.0068 25.9249 15.5234 26.3747 16.0877 26.7484C16.089 26.7459 16.0906 26.7436 16.0923 26.7414C16.1248 26.7105 16.1678 26.6933 16.2126 26.6933C16.2574 26.6933 16.3005 26.7105 16.3329 26.7414C16.3411 26.749 16.3504 26.7554 16.3492 26.7554L16.3602 26.7629C16.3769 26.7739 16.3942 26.784 16.412 26.7931L16.4247 26.799L16.4393 26.8059C16.4584 26.8129 16.477 26.8199 16.4974 26.8257C16.5388 26.8381 16.5809 26.8482 16.6235 26.8559L16.6723 26.8635L16.7205 26.8693C16.8507 26.8821 16.9803 26.8855 17.1099 26.8972C17.1522 26.8167 17.1619 26.7231 17.137 26.6357C17.1121 26.5482 17.0545 26.4737 16.9762 26.4276Z" fill="white"/>
<path d="M16.4591 26.8774C17.7544 27.408 19.5135 27.4214 20.638 26.5154C21.8619 25.5274 22.1983 23.9845 22.522 22.5288C22.8957 20.8476 23.4873 19.2367 24.7356 18.0035C25.7868 16.9644 27.1182 15.8998 28.5182 15.4053C28.825 15.2966 28.6111 14.9566 28.2933 15.0566C27.0107 15.4587 26.0077 16.2851 24.9546 17.0905C23.7563 18.0064 22.9457 19.2082 22.4424 20.625C21.9043 22.1394 21.8927 23.8852 20.9995 25.2561C20.5572 25.9348 19.9174 26.4421 19.1125 26.602C18.2269 26.7763 17.3935 26.4735 16.5189 26.4358C16.2446 26.4241 16.2411 26.7891 16.4608 26.8786L16.4591 26.8774Z" fill="white"/>
<path d="M27.9149 15.4076C27.9509 15.3971 27.9875 15.3855 28.023 15.3721C28.0367 15.368 28.0501 15.363 28.0631 15.357C28.0189 15.3803 28.0724 15.3524 28.0811 15.3483C28.1154 15.332 28.1485 15.3152 28.1834 15.2995L28.1921 15.2954C28.1537 14.4766 27.7818 13.6194 26.9996 13.2673C26.7712 13.163 26.5187 13.1232 26.2693 13.1523C26.0199 13.1814 25.7833 13.2782 25.5851 13.4323C25.187 12.3863 24.3264 11.3757 23.0932 11.8505C21.9059 12.3066 21.652 13.5468 21.6142 14.6922C20.7704 13.9547 19.6616 13.2394 18.6214 13.917C17.5812 14.5946 17.4975 15.8347 17.6096 16.9679C16.8053 16.5466 15.782 16.5454 15.0637 17.1649C14.8829 17.3212 15.1137 17.5874 15.3101 17.484C16.1115 17.0621 17.0145 17.008 17.7404 17.6298C17.9351 17.7972 18.1803 17.6327 18.1472 17.3939C18.0042 16.3978 17.7985 14.9212 18.8533 14.3139C19.865 13.7327 21.0267 14.8811 21.6938 15.5209C21.8589 15.679 22.1826 15.5738 22.1686 15.3245C22.1146 14.354 22.0565 13.0581 23.0118 12.4699C24.1631 11.7586 24.9778 13.1993 25.2004 14.1111C25.2544 14.3325 25.6182 14.4069 25.7193 14.1791C26.0053 13.534 26.7305 13.6427 27.1338 14.1041C27.475 14.4935 27.5313 15.0118 27.6191 15.4988C27.7161 15.4634 27.8167 15.4395 27.9149 15.4076Z" fill="white"/>
<path d="M28.8023 13.7502C28.5629 13.2922 28.1631 12.9947 27.7086 12.7716C27.5697 12.7018 27.4181 12.6234 27.2623 12.5542C27.2292 12.6518 27.1814 12.7437 27.1205 12.8268C27.0694 12.8971 27.013 12.9627 26.9561 13.0273L26.9438 13.0441C27.2054 13.1452 27.4767 13.2336 27.7115 13.3719C28.0055 13.5366 28.2496 13.7775 28.4182 14.0692C28.5925 14.3871 28.6838 14.7922 28.2653 15.038C28.1177 15.1246 27.8702 15.117 27.7075 15.1542C27.5331 15.196 27.518 15.4913 27.7075 15.5203C28.8587 15.7016 29.2893 14.6794 28.8023 13.7502Z" fill="white"/>
</svg>
