<svg width="380" height="100" viewBox="0 0 380 100" fill="none" xmlns="http://www.w3.org/2000/svg">
<path fill-rule="evenodd" clip-rule="evenodd" d="M178.56 26.7172C163.886 17.1143 141.756 11 117 11C72.8172 11 37 30.4756 37 54.5C37 78.5244 72.8172 98 117 98C143.434 98 166.874 91.0287 181.44 80.2828C196.114 89.8857 218.244 96 243 96C287.183 96 323 76.5244 323 52.5C323 28.4756 287.183 9 243 9C216.566 9 193.126 15.9713 178.56 26.7172Z" fill="black" fill-opacity="0.1"/>
<ellipse cx="80" cy="43.5" rx="80" ry="43.5" transform="matrix(-1 0 0 1 199 5)" fill="#E36B4E"/>
<ellipse cx="80" cy="40" rx="80" ry="40" transform="matrix(-1 0 0 1 199 5)" fill="#F78165"/>
<path d="M131.009 55.871L130.956 55.8411L130.907 55.8051C121.694 49.017 108.269 48.1265 96.8365 47.6868C96.1661 47.661 95.5019 47.6367 94.8455 47.6127C89.9837 47.435 85.5521 47.2731 82.2318 46.6302C80.3471 46.2653 78.6941 45.7248 77.4947 44.8499C76.2391 43.934 75.5 42.6605 75.5 41C75.5 35.861 79.0252 33.8164 81.1171 32.6032C81.4337 32.4195 81.7176 32.2549 81.9513 32.1015C82.4238 31.7914 82.5714 31.6159 82.6085 31.5457C82.6001 31.5136 82.5671 31.4215 82.4478 31.2611C82.1737 30.8927 81.5977 30.3646 80.5237 29.6195C79.4675 28.8868 77.9986 27.9903 76.0097 26.8716C72.2202 24.74 68.7458 24.4486 65.7393 25.3199C62.7098 26.1978 60.0523 28.2872 57.9936 31.0917C53.8476 36.7399 52.3338 44.9953 54.921 51.1104C57.5013 57.2094 64.5299 62.2077 74.9613 65.9333C85.3432 69.6411 98.8683 72.0056 114.065 73.0022C121.642 73.499 127.68 73.2465 132.166 72.4377C136.703 71.62 139.464 70.2667 140.73 68.7374C141.337 68.0036 141.601 67.2301 141.575 66.4054C141.547 65.5594 141.21 64.572 140.452 63.4502C138.925 61.1879 135.834 58.5931 131.009 55.871Z" fill="#A70502" stroke="#BF0601" stroke-width="2"/>
<path d="M107.576 14.3204L107.538 14.3233H107.5C106.454 14.3233 104.722 14.479 102.863 14.9082C100.996 15.3389 99.0805 16.0274 97.611 17.0482C96.1558 18.0589 95.2102 19.3382 95.0643 20.9832C94.9195 22.6157 95.5406 24.8266 97.6818 27.7613C100.515 28.5362 101.981 28.1248 103.908 27.5838C104.488 27.4209 105.111 27.2461 105.825 27.0885C109.047 26.3774 113.476 26.2694 122.832 29.5565C127.532 31.2081 130.279 32.9444 131.922 34.7836C133.594 36.6536 134.036 38.5342 134.337 40.1995C134.367 40.3666 134.396 40.53 134.424 40.6899C134.681 42.1486 134.887 43.3173 135.688 44.4446C136.561 45.6731 138.245 46.964 141.897 48.1814C147.921 50.1893 152.412 53.3269 156.279 56.0287C157.331 56.7637 158.337 57.4664 159.315 58.1054C161.628 59.6166 163.776 60.774 166.064 61.3043C168.326 61.8284 170.786 61.7533 173.742 60.6892C179.541 58.6015 183.995 52.0635 182.741 44.4169C181.491 36.7953 174.486 27.7552 156.649 21.0664C139.128 14.496 120.888 13.3016 107.576 14.3204Z" fill="#A70502" stroke="#BF0601" stroke-width="2"/>
<path d="M154.5 76C175.5 70 196 56 192 44C190.33 54 175 63.5 171 66C167 68.5 162.5 69 144 58.5C125.5 48 133.5 46 124 36C114.5 26 88.5 37.5 85 42.5C81.5 47.5 92 44 106 44C120 44 128 50 137 56C146 62 151 68.5 150.5 73C150 77.5 120 76 110.5 76C101 76 56.5 67 75.5 74C94.5 81 133.5 82 154.5 76Z" fill="#FF9C85"/>
<ellipse cx="3.5" cy="4.5" rx="3.5" ry="4.5" transform="matrix(-0.749684 0.661796 0.661796 0.749684 124.044 57)" fill="#F78165" stroke="#BF0601" stroke-width="2"/>
<ellipse cx="3.5" cy="5.93998" rx="3.5" ry="5.93998" transform="matrix(0.0593486 0.998237 0.998237 -0.0593486 162.698 48.4631)" fill="#F78165" stroke="#BF0601" stroke-width="2"/>
<ellipse cx="3.5" cy="5.93998" rx="3.5" ry="5.93998" transform="matrix(0.356474 0.934305 0.934305 -0.356474 159.065 39.6937)" fill="#F78165" stroke="#BF0601" stroke-width="2"/>
<ellipse cx="3.5" cy="5.93998" rx="3.5" ry="5.93998" transform="matrix(0.74448 0.667645 0.667645 -0.74448 147.857 34.8444)" fill="#F78165" stroke="#BF0601" stroke-width="2"/>
<ellipse cx="3.76132" cy="6.10216" rx="3.76132" ry="6.10216" transform="matrix(0.913794 0.406178 0.406178 -0.913794 137 32)" fill="#F78165" stroke="#BF0601" stroke-width="2"/>
<ellipse cx="3.45828" cy="4.20108" rx="3.45828" ry="4.20108" transform="matrix(0.978105 0.208114 0.208114 -0.978105 127.323 25.633)" fill="#F78165" stroke="#BF0601" stroke-width="2"/>
<ellipse cx="3.45828" cy="4.20108" rx="3.45828" ry="4.20108" transform="matrix(0.999977 0.00679892 0.00679892 -0.999977 116.256 24.0063)" fill="#F78165" stroke="#BF0601" stroke-width="2"/>
<ellipse cx="3.45828" cy="4.20108" rx="3.45828" ry="4.20108" transform="matrix(0.999977 0.00679892 0.00679892 -0.999977 104.026 24.402)" fill="#F78165" stroke="#BF0601" stroke-width="2"/>
<path d="M109.011 63.4503C109.637 66.4887 111.679 68.6359 113.572 68.2463C115.465 67.8566 116.493 65.0776 115.868 62.0392C115.242 59.0009 113.16 55.2591 111.267 55.6488C109.373 56.0384 108.386 60.4119 109.011 63.4503Z" fill="#F78165" stroke="#BF0601" stroke-width="2"/>
<path d="M96.6978 60.1311C96.1506 63.1846 97.2494 65.9363 99.1521 66.2773C101.055 66.6183 103.041 64.4194 103.588 61.366C104.135 58.3126 103.591 54.0652 101.688 53.7242C99.7852 53.3832 97.245 57.0777 96.6978 60.1311Z" fill="#F78165" stroke="#BF0601" stroke-width="2"/>
<path d="M84.842 59.0741C84.2947 62.1275 85.3935 64.8792 87.2962 65.2202C89.1989 65.5612 91.185 63.3623 91.7322 60.3089C92.2794 57.2555 91.7347 53.0081 89.8321 52.6671C87.9294 52.3261 85.3892 56.0206 84.842 59.0741Z" fill="#F78165" stroke="#BF0601" stroke-width="2"/>
<path d="M73.707 56.0549C73.3166 58.2337 74.4623 60.2621 76.2662 60.5854C78.0701 60.9087 79.849 59.4045 80.2395 57.2256C80.63 55.0468 79.9446 51.9628 78.1407 51.6395C76.3368 51.3162 74.0975 53.8761 73.707 56.0549Z" fill="#F78165" stroke="#BF0601" stroke-width="2"/>
<path d="M64.622 48.908C63.1887 50.5949 63.1589 52.9243 64.5555 54.1109C65.952 55.2976 68.2461 54.8921 69.6794 53.2053C71.1127 51.5184 72.0713 48.5081 70.6748 47.3215C69.2782 46.1348 66.0553 47.2212 64.622 48.908Z" fill="#F78165" stroke="#BF0601" stroke-width="2"/>
<path d="M61.9277 38.775C59.7396 39.1095 58.1903 40.8493 58.4672 42.6609C58.7442 44.4724 60.7425 45.6698 62.9306 45.3353C65.1187 45.0008 67.8158 43.3556 67.5389 41.5441C67.2619 39.7325 64.1158 38.4405 61.9277 38.775Z" fill="#F78165" stroke="#BF0601" stroke-width="2"/>
<path d="M70.6865 31.059C69.2563 29.3696 66.963 28.9599 65.5643 30.144C64.1656 31.3281 64.1911 33.6575 65.6213 35.347C67.0515 37.0365 69.8649 38.4737 71.2636 37.2896C72.6623 36.1055 72.1168 32.7485 70.6865 31.059Z" fill="#F78165" stroke="#BF0601" stroke-width="2"/>
<ellipse cx="243" cy="46.5" rx="80" ry="43.5" fill="#E36B4E"/>
<ellipse cx="243" cy="43" rx="80" ry="40" fill="#F78165"/>
<path d="M230.991 53.871L231.044 53.8411L231.093 53.8051C240.306 47.017 253.731 46.1265 265.163 45.6868C265.834 45.661 266.498 45.6367 267.155 45.6127C272.016 45.435 276.448 45.2731 279.768 44.6302C281.653 44.2653 283.306 43.7248 284.505 42.8499C285.761 41.934 286.5 40.6605 286.5 39C286.5 33.861 282.975 31.8164 280.883 30.6032C280.566 30.4195 280.282 30.2549 280.049 30.1015C279.576 29.7914 279.429 29.6159 279.392 29.5457C279.4 29.5136 279.433 29.4215 279.552 29.2611C279.826 28.8927 280.402 28.3646 281.476 27.6195C282.532 26.8868 284.001 25.9903 285.99 24.8716C289.78 22.74 293.254 22.4486 296.261 23.3199C299.29 24.1978 301.948 26.2872 304.006 29.0917C308.152 34.7399 309.666 42.9953 307.079 49.1104C304.499 55.2094 297.47 60.2077 287.039 63.9333C276.657 67.6411 263.132 70.0056 247.935 71.0022C240.358 71.499 234.32 71.2465 229.834 70.4377C225.297 69.62 222.536 68.2667 221.27 66.7374C220.663 66.0036 220.399 65.2301 220.425 64.4054C220.453 63.5594 220.79 62.572 221.548 61.4502C223.075 59.1879 226.166 56.5931 230.991 53.871Z" fill="#A70502" stroke="#BF0601" stroke-width="2"/>
<path d="M254.424 12.3204L254.462 12.3233H254.5C255.546 12.3233 257.278 12.479 259.137 12.9082C261.004 13.3389 262.919 14.0274 264.389 15.0482C265.844 16.0589 266.79 17.3382 266.936 18.9832C267.08 20.6157 266.459 22.8266 264.318 25.7613C261.485 26.5362 260.019 26.1248 258.092 25.5838C257.512 25.4209 256.889 25.2461 256.175 25.0885C252.953 24.3774 248.524 24.2694 239.168 27.5565C234.468 29.2081 231.721 30.9444 230.078 32.7836C228.406 34.6536 227.964 36.5342 227.663 38.1995C227.633 38.3666 227.604 38.53 227.576 38.6899C227.319 40.1486 227.113 41.3173 226.312 42.4446C225.439 43.6731 223.755 44.964 220.103 46.1814C214.079 48.1893 209.588 51.3269 205.721 54.0287C204.669 54.7637 203.663 55.4664 202.685 56.1054C200.372 57.6166 198.224 58.774 195.936 59.3043C193.674 59.8284 191.214 59.7533 188.258 58.6892C182.459 56.6015 178.005 50.0635 179.259 42.4169C180.509 34.7953 187.514 25.7552 205.351 19.0664C222.872 12.496 241.112 11.3016 254.424 12.3204Z" fill="#A70502" stroke="#BF0601" stroke-width="2"/>
<path d="M207.5 74C186.5 68 166 54 170 42C171.67 52 187 61.5 191 64C195 66.5 199.5 67 218 56.5C236.5 46 228.5 44 238 34C247.5 24 273.5 35.5 277 40.5C280.5 45.5 270 42 256 42C242 42 234 48 225 54C216 60 211 66.5 211.5 71C212 75.5 242 74 251.5 74C261 74 305.5 65 286.5 72C267.5 79 228.5 80 207.5 74Z" fill="#FF9C85"/>
<ellipse cx="237.602" cy="60.6899" rx="3.5" ry="4.5" transform="rotate(41.437 237.602 60.6899)" fill="#F78165" stroke="#BF0601" stroke-width="2"/>
<ellipse cx="193.165" cy="49.6044" rx="3.5" ry="5.93998" transform="rotate(93.4024 193.165 49.6044)" fill="#F78165" stroke="#BF0601" stroke-width="2"/>
<ellipse cx="196.137" cy="38.8464" rx="3.5" ry="5.93998" transform="rotate(110.884 196.137 38.8464)" fill="#F78165" stroke="#BF0601" stroke-width="2"/>
<ellipse cx="207.571" cy="30.759" rx="3.5" ry="5.93998" transform="rotate(138.114 207.571 30.759)" fill="#F78165" stroke="#BF0601" stroke-width="2"/>
<ellipse cx="219.084" cy="25.9517" rx="3.76132" ry="6.10216" transform="rotate(156.035 219.084 25.9517)" fill="#F78165" stroke="#BF0601" stroke-width="2"/>
<ellipse cx="230.42" cy="20.2436" rx="3.45828" ry="4.20108" transform="rotate(167.988 230.42 20.2436)" fill="#F78165" stroke="#BF0601" stroke-width="2"/>
<ellipse cx="242.257" cy="17.8288" rx="3.45828" ry="4.20108" transform="rotate(179.61 242.257 17.8288)" fill="#F78165" stroke="#BF0601" stroke-width="2"/>
<ellipse cx="254.487" cy="18.2245" rx="3.45828" ry="4.20108" transform="rotate(179.61 254.487 18.2245)" fill="#F78165" stroke="#BF0601" stroke-width="2"/>
<path d="M252.989 61.4503C252.363 64.4887 250.321 66.6359 248.428 66.2463C246.535 65.8566 245.507 63.0776 246.132 60.0392C246.758 57.0009 248.84 53.2591 250.733 53.6488C252.627 54.0384 253.614 58.4119 252.989 61.4503Z" fill="#F78165" stroke="#BF0601" stroke-width="2"/>
<path d="M265.302 58.1311C265.849 61.1846 264.751 63.9363 262.848 64.2773C260.945 64.6183 258.959 62.4194 258.412 59.366C257.865 56.3126 258.409 52.0652 260.312 51.7242C262.215 51.3832 264.755 55.0777 265.302 58.1311Z" fill="#F78165" stroke="#BF0601" stroke-width="2"/>
<path d="M277.158 57.0741C277.705 60.1275 276.606 62.8792 274.704 63.2202C272.801 63.5612 270.815 61.3623 270.268 58.3089C269.721 55.2555 270.265 51.0081 272.168 50.6671C274.071 50.3261 276.611 54.0206 277.158 57.0741Z" fill="#F78165" stroke="#BF0601" stroke-width="2"/>
<path d="M288.293 54.0549C288.683 56.2337 287.538 58.2621 285.734 58.5854C283.93 58.9087 282.151 57.4045 281.761 55.2256C281.37 53.0468 282.055 49.9628 283.859 49.6395C285.663 49.3162 287.902 51.8761 288.293 54.0549Z" fill="#F78165" stroke="#BF0601" stroke-width="2"/>
<path d="M297.378 46.908C298.811 48.5949 298.841 50.9243 297.445 52.1109C296.048 53.2976 293.754 52.8921 292.321 51.2053C290.887 49.5184 289.929 46.5081 291.325 45.3215C292.722 44.1348 295.945 45.2212 297.378 46.908Z" fill="#F78165" stroke="#BF0601" stroke-width="2"/>
<path d="M300.072 36.775C302.26 37.1095 303.81 38.8493 303.533 40.6609C303.256 42.4724 301.257 43.6698 299.069 43.3353C296.881 43.0008 294.184 41.3556 294.461 39.5441C294.738 37.7325 297.884 36.4405 300.072 36.775Z" fill="#F78165" stroke="#BF0601" stroke-width="2"/>
<path d="M170.5 73.5C167.7 70.3 164.333 53.1667 163 45C163.833 46.6667 165.7 51.4 166.5 57C167.3 62.6 177.5 71.3333 182.5 75L170.5 82C171.667 80.5 173.3 76.7 170.5 73.5Z" fill="black" fill-opacity="0.1"/>
<path d="M291.313 29.059C292.744 27.3696 295.037 26.9599 296.436 28.144C297.834 29.3281 297.809 31.6575 296.379 33.347C294.949 35.0365 292.135 36.4737 290.736 35.2896C289.338 34.1055 289.883 30.7485 291.313 29.059Z" fill="#F78165" stroke="#BF0601" stroke-width="2"/>
</svg>
