<svg width="32" height="32" viewBox="0 0 32 32" fill="none" xmlns="http://www.w3.org/2000/svg">
<path d="M15.747 4.64832C15.747 9.71131 6.58533 9.36768 6.58533 17.5633C6.58533 22.121 10.6716 25.8148 15.7467 25.8148C20.8221 25.8148 24.9077 22.121 24.9077 17.5633C24.9077 9.36768 15.747 9.71097 15.747 4.64832Z" stroke="white"/>
<path d="M15.7745 25.8145C12.1987 25.8145 9.33368 22.1206 9.33368 17.563C9.33368 16.0705 9.66083 14.8523 10.1638 13.7996" stroke="white"/>
<path d="M14.2531 10.3774C14.9498 8.69857 15.747 7.06751 15.747 4.64832" stroke="white"/>
<path d="M15.7746 25.8145C14.0729 25.8145 12.694 22.1206 12.694 17.563C12.694 15.9756 12.8699 14.6996 13.1352 13.6008" stroke="white"/>
<path d="M15.5762 25.8145C19.1517 25.8145 22.0503 22.1206 22.0503 17.563C22.0503 11.0929 15.747 9.71096 15.747 4.64797" stroke="white"/>
<path d="M15.5762 25.8145C17.2775 25.8145 18.6564 22.1206 18.6564 17.563C18.6564 11.0929 15.747 9.71096 15.747 4.64797" stroke="white"/>
<path d="M14.2965 25.6746L13.3749 27.4254" stroke="white"/>
<path d="M17.0613 25.6746L17.9826 27.4254" stroke="white"/>
<path d="M15.6791 28V25.8777" stroke="white"/>
</svg>
