<svg width="380" height="100" viewBox="0 0 380 100" fill="none" xmlns="http://www.w3.org/2000/svg">
<path fill-rule="evenodd" clip-rule="evenodd" d="M102 96C114.829 96 126.954 94.49 137.7 91.8061C147.042 94.4837 157.694 96 169 96C197.393 96 221.66 86.4371 231.417 72.935C242.155 81.464 259.469 87 279 87C311.585 87 338 71.5903 338 52.5814C338 33.5725 311.585 14.7209 279 14.7209C254.671 14.7209 233.781 25.2304 224.757 38.4679C212.744 27.6624 192.255 19.814 169 19.814C162.487 19.814 156.192 20.4295 150.239 21.5531C136.827 15.6837 120.117 12 102 12C57.8172 12 22 33.9086 22 56C22 78.0914 57.8172 96 102 96ZM235.262 65.1249C235.748 63.3618 236 61.5573 236 59.7209C236 54.5107 233.972 49.3116 230.319 44.4703C235.658 32.3221 254.934 23.3256 277.894 23.3256C304.98 23.3256 326.938 35.846 326.938 51.2907C326.938 66.7354 304.98 79.2558 277.894 79.2558C259.633 79.2558 243.704 73.5654 235.262 65.1249ZM220.366 48.6817C212.799 37.1564 192.097 28.8837 167.744 28.8837C166.409 28.8837 165.085 28.9086 163.773 28.9575C175.161 36.7282 182 46.3467 182 56C182 68.3892 170.735 79.4629 153.047 86.8C157.729 87.4762 162.657 87.8372 167.744 87.8372C195.52 87.8372 218.547 77.0754 222.751 63.0002C220.964 59.7136 220 56.2132 220 52.5814C220 51.2788 220.124 49.9769 220.366 48.6817ZM100.5 87C107.859 87 114.939 86.4158 121.556 85.3372C109.471 78.7749 102 69.7203 102 59.7209C102 46.719 114.631 33.7869 133.612 26.309C123.862 23.5678 112.556 22 100.5 22C63.7731 22 34 36.5507 34 54.5C34 72.4493 63.7731 87 100.5 87ZM112.05 58.3605C112.05 68.1914 121.143 76.8984 135.121 82.2537C154.239 76.5452 167 66.2509 167 54.5C167 45.3001 159.178 36.9931 146.608 31.0805C126.33 35.486 112.05 46.0406 112.05 58.3605Z" fill="black" fill-opacity="0.1"/>
<mask id="path-2-inside-1_6_316" fill="white">
<path fill-rule="evenodd" clip-rule="evenodd" d="M169 91C206.003 91 236 74.7573 236 54.7209C236 34.6846 206.003 14.814 169 14.814C131.997 14.814 102 34.6846 102 54.7209C102 74.7573 131.997 91 169 91ZM167.744 82.8372C198.503 82.8372 223.437 69.64 223.437 53.3605C223.437 37.0809 198.503 23.8837 167.744 23.8837C136.985 23.8837 112.05 37.0809 112.05 53.3605C112.05 69.64 136.985 82.8372 167.744 82.8372Z"/>
</mask>
<path fill-rule="evenodd" clip-rule="evenodd" d="M169 91C206.003 91 236 74.7573 236 54.7209C236 34.6846 206.003 14.814 169 14.814C131.997 14.814 102 34.6846 102 54.7209C102 74.7573 131.997 91 169 91ZM167.744 82.8372C198.503 82.8372 223.437 69.64 223.437 53.3605C223.437 37.0809 198.503 23.8837 167.744 23.8837C136.985 23.8837 112.05 37.0809 112.05 53.3605C112.05 69.64 136.985 82.8372 167.744 82.8372Z" fill="#FDF4F6"/>
<path d="M234 54.7209C234 63.6566 227.282 72.1945 215.424 78.6154C203.645 84.9935 187.235 89 169 89V93C187.768 93 204.858 88.8852 217.328 82.1328C229.72 75.4232 238 65.8216 238 54.7209H234ZM169 16.814C187.162 16.814 203.543 21.6945 215.327 28.9564C227.198 36.2724 234 45.7175 234 54.7209H238C238 43.688 229.804 33.1796 217.425 25.5512C204.96 17.8688 187.841 12.814 169 12.814V16.814ZM104 54.7209C104 45.7175 110.802 36.2724 122.673 28.9564C134.457 21.6945 150.838 16.814 169 16.814V12.814C150.159 12.814 133.04 17.8688 120.575 25.5512C108.196 33.1796 100 43.688 100 54.7209H104ZM169 89C150.765 89 134.355 84.9935 122.576 78.6154C110.718 72.1945 104 63.6566 104 54.7209H100C100 65.8216 108.28 75.4232 120.672 82.1328C133.142 88.8852 150.232 93 169 93V89ZM221.437 53.3605C221.437 60.3941 216.016 67.2352 206.19 72.436C196.453 77.5893 182.864 80.8372 167.744 80.8372V84.8372C183.383 84.8372 197.64 81.4865 208.061 75.9713C218.392 70.5036 225.437 62.6064 225.437 53.3605H221.437ZM167.744 25.8837C182.864 25.8837 196.453 29.1316 206.19 34.2849C216.016 39.4857 221.437 46.3268 221.437 53.3605H225.437C225.437 44.1145 218.392 36.2173 208.061 30.7496C197.64 25.2344 183.383 21.8837 167.744 21.8837V25.8837ZM114.05 53.3605C114.05 46.3268 119.472 39.4857 129.298 34.2849C139.035 29.1316 152.624 25.8837 167.744 25.8837V21.8837C152.105 21.8837 137.847 25.2344 127.427 30.7496C117.096 36.2173 110.05 44.1145 110.05 53.3605H114.05ZM167.744 80.8372C152.624 80.8372 139.035 77.5893 129.298 72.436C119.472 67.2352 114.05 60.3941 114.05 53.3605H110.05C110.05 62.6064 117.096 70.5036 127.427 75.9713C137.847 81.4865 152.105 84.8372 167.744 84.8372V80.8372Z" fill="#D382B9" mask="url(#path-2-inside-1_6_316)"/>
<mask id="path-4-inside-2_6_316" fill="white">
<path fill-rule="evenodd" clip-rule="evenodd" d="M169 85.5581C206.003 85.5581 236 69.3154 236 49.2791C236 29.2427 206.003 13 169 13C131.997 13 102 29.2427 102 49.2791C102 69.3154 131.997 85.5581 169 85.5581ZM167.744 77.3953C198.503 77.3953 223.437 64.1982 223.437 47.9186C223.437 31.639 198.503 18.4419 167.744 18.4419C136.985 18.4419 112.05 31.639 112.05 47.9186C112.05 64.1982 136.985 77.3953 167.744 77.3953Z"/>
</mask>
<path fill-rule="evenodd" clip-rule="evenodd" d="M169 85.5581C206.003 85.5581 236 69.3154 236 49.2791C236 29.2427 206.003 13 169 13C131.997 13 102 29.2427 102 49.2791C102 69.3154 131.997 85.5581 169 85.5581ZM167.744 77.3953C198.503 77.3953 223.437 64.1982 223.437 47.9186C223.437 31.639 198.503 18.4419 167.744 18.4419C136.985 18.4419 112.05 31.639 112.05 47.9186C112.05 64.1982 136.985 77.3953 167.744 77.3953Z" fill="#FDF4F6"/>
<path d="M234 49.2791C234 58.2147 227.282 66.7527 215.424 73.1735C203.645 79.5516 187.235 83.5581 169 83.5581V87.5581C187.768 87.5581 204.858 83.4433 217.328 76.691C229.72 69.9814 238 60.3798 238 49.2791H234ZM169 15C187.235 15 203.645 19.0065 215.424 25.3846C227.282 31.8055 234 40.3434 234 49.2791H238C238 38.1784 229.72 28.5768 217.328 21.8672C204.858 15.1148 187.768 11 169 11V15ZM104 49.2791C104 40.3434 110.718 31.8055 122.576 25.3846C134.355 19.0065 150.765 15 169 15V11C150.232 11 133.142 15.1148 120.672 21.8672C108.28 28.5768 100 38.1784 100 49.2791H104ZM169 83.5581C150.765 83.5581 134.355 79.5516 122.576 73.1735C110.718 66.7527 104 58.2147 104 49.2791H100C100 60.3798 108.28 69.9814 120.672 76.691C133.142 83.4433 150.232 87.5581 169 87.5581V83.5581ZM221.437 47.9186C221.437 54.9522 216.016 61.7934 206.19 66.9941C196.453 72.1474 182.864 75.3953 167.744 75.3953V79.3953C183.383 79.3953 197.64 76.0447 208.061 70.5295C218.392 65.0617 225.437 57.1645 225.437 47.9186H221.437ZM167.744 20.4419C182.864 20.4419 196.453 23.6898 206.19 28.8431C216.016 34.0438 221.437 40.885 221.437 47.9186H225.437C225.437 38.6727 218.392 30.7755 208.061 25.3077C197.64 19.7925 183.383 16.4419 167.744 16.4419V20.4419ZM114.05 47.9186C114.05 40.885 119.472 34.0438 129.298 28.8431C139.035 23.6898 152.624 20.4419 167.744 20.4419V16.4419C152.105 16.4419 137.847 19.7925 127.427 25.3077C117.096 30.7755 110.05 38.6727 110.05 47.9186H114.05ZM167.744 75.3953C152.624 75.3953 139.035 72.1474 129.298 66.9941C119.472 61.7934 114.05 54.9522 114.05 47.9186H110.05C110.05 57.1645 117.096 65.0617 127.427 70.5295C137.847 76.0447 152.105 79.3953 167.744 79.3953V75.3953Z" fill="#D382B9" mask="url(#path-4-inside-2_6_316)"/>
<mask id="path-6-inside-3_6_316" fill="white">
<path fill-rule="evenodd" clip-rule="evenodd" d="M102 91C146.183 91 182 73.0914 182 51C182 28.9086 146.183 7 102 7C57.8172 7 22 28.9086 22 51C22 73.0914 57.8172 91 102 91ZM100.5 82C137.227 82 167 67.4493 167 49.5C167 31.5507 137.227 17 100.5 17C63.7731 17 34 31.5507 34 49.5C34 67.4493 63.7731 82 100.5 82Z"/>
</mask>
<path fill-rule="evenodd" clip-rule="evenodd" d="M102 91C146.183 91 182 73.0914 182 51C182 28.9086 146.183 7 102 7C57.8172 7 22 28.9086 22 51C22 73.0914 57.8172 91 102 91ZM100.5 82C137.227 82 167 67.4493 167 49.5C167 31.5507 137.227 17 100.5 17C63.7731 17 34 31.5507 34 49.5C34 67.4493 63.7731 82 100.5 82Z" fill="#FDF4F6"/>
<path d="M180 51C180 60.88 171.939 70.3631 157.674 77.4954C143.529 84.5679 123.848 89 102 89V93C124.335 93 144.654 88.4778 159.463 81.0731C174.153 73.7282 184 63.2114 184 51H180ZM102 9C123.782 9 143.434 14.4044 157.579 22.454C171.846 30.5727 180 41.0483 180 51H184C184 38.8603 174.246 27.3359 159.558 18.9775C144.749 10.5499 124.401 5 102 5V9ZM24 51C24 41.0483 32.1542 30.5727 46.4206 22.454C60.5658 14.4044 80.2185 9 102 9V5C79.5987 5 59.2515 10.5499 44.4423 18.9775C29.7544 27.3359 20 38.8603 20 51H24ZM102 89C80.1518 89 60.4708 84.5679 46.3259 77.4954C32.0613 70.3631 24 60.88 24 51H20C20 63.2114 29.8473 73.7282 44.537 81.0731C59.3464 88.4778 79.6654 93 102 93V89ZM165 49.5C165 57.2849 158.483 64.8981 146.644 70.6841C134.938 76.405 118.627 80 100.5 80V84C119.1 84 136.038 80.3196 148.401 74.2779C160.63 68.3011 169 59.6643 169 49.5H165ZM100.5 19C118.627 19 134.938 22.595 146.644 28.3159C158.483 34.1019 165 41.7151 165 49.5H169C169 39.3357 160.63 30.6989 148.401 24.7221C136.038 18.6804 119.1 15 100.5 15V19ZM36 49.5C36 41.7151 42.5166 34.1019 54.3556 28.3159C66.0615 22.595 82.3735 19 100.5 19V15C81.8996 15 64.9616 18.6804 52.5992 24.7221C40.3699 30.6989 32 39.3357 32 49.5H36ZM100.5 80C82.3735 80 66.0615 76.405 54.3556 70.6841C42.5166 64.8981 36 57.2849 36 49.5H32C32 59.6643 40.3699 68.3011 52.5992 74.2779C64.9616 80.3196 81.8996 84 100.5 84V80Z" fill="#D382B9" mask="url(#path-6-inside-3_6_316)"/>
<mask id="path-8-inside-4_6_316" fill="white">
<path fill-rule="evenodd" clip-rule="evenodd" d="M102 85C146.183 85 182 67.0914 182 45C182 22.9086 146.183 5 102 5C57.8172 5 22 22.9086 22 45C22 67.0914 57.8172 85 102 85ZM100.5 76C137.227 76 167 61.4493 167 43.5C167 25.5507 137.227 11 100.5 11C63.7731 11 34 25.5507 34 43.5C34 61.4493 63.7731 76 100.5 76Z"/>
</mask>
<path fill-rule="evenodd" clip-rule="evenodd" d="M102 85C146.183 85 182 67.0914 182 45C182 22.9086 146.183 5 102 5C57.8172 5 22 22.9086 22 45C22 67.0914 57.8172 85 102 85ZM100.5 76C137.227 76 167 61.4493 167 43.5C167 25.5507 137.227 11 100.5 11C63.7731 11 34 25.5507 34 43.5C34 61.4493 63.7731 76 100.5 76Z" fill="#FDF4F6"/>
<path d="M180 45C180 54.88 171.939 64.3631 157.674 71.4954C143.529 78.5679 123.848 83 102 83V87C124.335 87 144.654 82.4778 159.463 75.0731C174.153 67.7282 184 57.2114 184 45H180ZM102 7C123.848 7 143.529 11.4321 157.674 18.5046C171.939 25.6369 180 35.12 180 45H184C184 32.7886 174.153 22.2718 159.463 14.9269C144.654 7.52218 124.335 3 102 3V7ZM24 45C24 35.12 32.0613 25.6369 46.3259 18.5046C60.4708 11.4321 80.1518 7 102 7V3C79.6654 3 59.3464 7.52218 44.537 14.9269C29.8473 22.2718 20 32.7886 20 45H24ZM102 83C80.1518 83 60.4708 78.5679 46.3259 71.4954C32.0613 64.3631 24 54.88 24 45H20C20 57.2114 29.8473 67.7282 44.537 75.0731C59.3464 82.4778 79.6654 87 102 87V83ZM165 43.5C165 51.2849 158.483 58.8981 146.644 64.6841C134.938 70.405 118.627 74 100.5 74V78C119.1 78 136.038 74.3196 148.401 68.2779C160.63 62.3011 169 53.6643 169 43.5H165ZM100.5 13C118.627 13 134.938 16.595 146.644 22.3159C158.483 28.1019 165 35.7151 165 43.5H169C169 33.3357 160.63 24.6989 148.401 18.7221C136.038 12.6804 119.1 9 100.5 9V13ZM36 43.5C36 35.7151 42.5166 28.1019 54.3556 22.3159C66.0615 16.595 82.3735 13 100.5 13V9C81.8996 9 64.9616 12.6804 52.5992 18.7221C40.3699 24.6989 32 33.3357 32 43.5H36ZM100.5 74C82.3735 74 66.0615 70.405 54.3556 64.6841C42.5166 58.8981 36 51.2849 36 43.5H32C32 53.6643 40.3699 62.3011 52.5992 68.2779C64.9616 74.3196 81.8996 78 100.5 78V74Z" fill="#D382B9" mask="url(#path-8-inside-4_6_316)"/>
<mask id="path-10-inside-5_6_316" fill="white">
<path fill-rule="evenodd" clip-rule="evenodd" d="M279 82C311.585 82 338 66.5903 338 47.5814C338 28.5725 311.585 9.72093 279 9.72093C246.415 9.72093 220 28.5725 220 47.5814C220 66.5903 246.415 82 279 82ZM277.894 74.2558C304.98 74.2558 326.938 61.7354 326.938 46.2907C326.938 30.846 304.98 18.3256 277.894 18.3256C250.808 18.3256 228.85 30.846 228.85 46.2907C228.85 61.7354 250.808 74.2558 277.894 74.2558Z"/>
</mask>
<path fill-rule="evenodd" clip-rule="evenodd" d="M279 82C311.585 82 338 66.5903 338 47.5814C338 28.5725 311.585 9.72093 279 9.72093C246.415 9.72093 220 28.5725 220 47.5814C220 66.5903 246.415 82 279 82ZM277.894 74.2558C304.98 74.2558 326.938 61.7354 326.938 46.2907C326.938 30.846 304.98 18.3256 277.894 18.3256C250.808 18.3256 228.85 30.846 228.85 46.2907C228.85 61.7354 250.808 74.2558 277.894 74.2558Z" fill="#FDF4F6"/>
<path d="M336 47.5814C336 56.0792 330.081 64.1423 319.712 70.1915C309.391 76.212 295.002 80 279 80V84C295.583 84 310.694 80.0831 321.727 73.6466C332.711 67.2387 340 58.0924 340 47.5814H336ZM279 11.7209C294.923 11.7209 309.284 16.3307 319.613 23.189C330.006 30.0893 336 39.0199 336 47.5814H340C340 37.134 332.787 27.1344 321.826 19.8567C310.801 12.537 295.662 7.72093 279 7.72093V11.7209ZM222 47.5814C222 39.0199 227.994 30.0893 238.387 23.189C248.716 16.3307 263.077 11.7209 279 11.7209V7.72093C262.338 7.72093 247.199 12.537 236.174 19.8567C225.213 27.1344 218 37.134 218 47.5814H222ZM279 80C262.998 80 248.609 76.212 238.288 70.1915C227.919 64.1423 222 56.0792 222 47.5814H218C218 58.0924 225.289 67.2387 236.273 73.6466C247.306 80.0831 262.417 84 279 84V80ZM324.938 46.2907C324.938 52.9834 320.161 59.4357 311.582 64.3276C303.06 69.1868 291.154 72.2558 277.894 72.2558V76.2558C291.72 76.2558 304.335 73.0646 313.564 67.8024C322.735 62.573 328.938 55.0427 328.938 46.2907H324.938ZM277.894 20.3256C291.154 20.3256 303.06 23.3946 311.582 28.2538C320.161 33.1457 324.938 39.598 324.938 46.2907H328.938C328.938 37.5387 322.735 30.0084 313.564 24.779C304.335 19.5168 291.72 16.3256 277.894 16.3256V20.3256ZM230.85 46.2907C230.85 39.598 235.626 33.1457 244.205 28.2538C252.727 23.3946 264.634 20.3256 277.894 20.3256V16.3256C264.068 16.3256 251.452 19.5168 242.224 24.779C233.053 30.0084 226.85 37.5387 226.85 46.2907H230.85ZM277.894 72.2558C264.634 72.2558 252.727 69.1868 244.205 64.3276C235.626 59.4357 230.85 52.9834 230.85 46.2907H226.85C226.85 55.0427 233.053 62.573 242.224 67.8024C251.452 73.0646 264.068 76.2558 277.894 76.2558V72.2558Z" fill="#D382B9" mask="url(#path-10-inside-5_6_316)"/>
<mask id="path-12-inside-6_6_316" fill="white">
<path fill-rule="evenodd" clip-rule="evenodd" d="M279 76.8372C311.585 76.8372 338 61.4275 338 42.4186C338 23.4097 311.585 8 279 8C246.415 8 220 23.4097 220 42.4186C220 61.4275 246.415 76.8372 279 76.8372ZM277.894 69.093C304.98 69.093 326.938 56.5726 326.938 41.1279C326.938 25.6832 304.98 13.1628 277.894 13.1628C250.808 13.1628 228.85 25.6832 228.85 41.1279C228.85 56.5726 250.808 69.093 277.894 69.093Z"/>
</mask>
<path fill-rule="evenodd" clip-rule="evenodd" d="M279 76.8372C311.585 76.8372 338 61.4275 338 42.4186C338 23.4097 311.585 8 279 8C246.415 8 220 23.4097 220 42.4186C220 61.4275 246.415 76.8372 279 76.8372ZM277.894 69.093C304.98 69.093 326.938 56.5726 326.938 41.1279C326.938 25.6832 304.98 13.1628 277.894 13.1628C250.808 13.1628 228.85 25.6832 228.85 41.1279C228.85 56.5726 250.808 69.093 277.894 69.093Z" fill="#FDF4F6"/>
<path d="M336 42.4186C336 50.9164 330.081 58.9795 319.712 65.0287C309.391 71.0492 295.002 74.8372 279 74.8372V78.8372C295.583 78.8372 310.694 74.9203 321.727 68.4838C332.711 62.0759 340 52.9296 340 42.4186H336ZM279 10C295.002 10 309.391 13.788 319.712 19.8085C330.081 25.8577 336 33.9208 336 42.4186H340C340 31.9076 332.711 22.7613 321.727 16.3534C310.694 9.91691 295.583 6 279 6V10ZM222 42.4186C222 33.9208 227.919 25.8577 238.288 19.8085C248.609 13.788 262.998 10 279 10V6C262.417 6 247.306 9.91691 236.273 16.3534C225.289 22.7613 218 31.9076 218 42.4186H222ZM279 74.8372C262.998 74.8372 248.609 71.0492 238.288 65.0287C227.919 58.9795 222 50.9164 222 42.4186H218C218 52.9296 225.289 62.0759 236.273 68.4838C247.306 74.9203 262.417 78.8372 279 78.8372V74.8372ZM324.938 41.1279C324.938 47.8206 320.161 54.2729 311.582 59.1648C303.06 64.024 291.154 67.093 277.894 67.093V71.093C291.72 71.093 304.335 67.9018 313.564 62.6396C322.735 57.4102 328.938 49.8799 328.938 41.1279H324.938ZM277.894 15.1628C291.154 15.1628 303.06 18.2318 311.582 23.091C320.161 27.9829 324.938 34.4352 324.938 41.1279H328.938C328.938 32.3759 322.735 24.8456 313.564 19.6162C304.335 14.354 291.72 11.1628 277.894 11.1628V15.1628ZM230.85 41.1279C230.85 34.4352 235.626 27.9829 244.205 23.091C252.727 18.2318 264.634 15.1628 277.894 15.1628V11.1628C264.068 11.1628 251.452 14.354 242.224 19.6162C233.053 24.8456 226.85 32.3759 226.85 41.1279H230.85ZM277.894 67.093C264.634 67.093 252.727 64.024 244.205 59.1648C235.626 54.2729 230.85 47.8206 230.85 41.1279H226.85C226.85 49.8799 233.053 57.4102 242.224 62.6396C251.452 67.9018 264.068 71.093 277.894 71.093V67.093Z" fill="#D382B9" mask="url(#path-12-inside-6_6_316)"/>
</svg>
