<svg width="380" height="100" viewBox="0 0 380 100" fill="none" xmlns="http://www.w3.org/2000/svg">
<path fill-rule="evenodd" clip-rule="evenodd" d="M258 96C245.171 96 233.046 94.49 222.3 91.8061C212.958 94.4837 202.306 96 191 96C162.607 96 138.34 86.4371 128.583 72.935C117.845 81.464 100.531 87 81 87C48.4152 87 22 71.5903 22 52.5814C22 33.5725 48.4152 14.7209 81 14.7209C105.329 14.7209 126.219 25.2304 135.243 38.4679C147.256 27.6624 167.745 19.814 191 19.814C197.513 19.814 203.808 20.4295 209.761 21.5531C223.173 15.6837 239.883 12 258 12C302.183 12 338 33.9086 338 56C338 78.0914 302.183 96 258 96ZM124.738 65.1249C124.252 63.3618 124 61.5573 124 59.7209C124 54.5107 126.028 49.3116 129.681 44.4703C124.342 32.3221 105.066 23.3256 82.1062 23.3256C55.0201 23.3256 33.0625 35.846 33.0625 51.2907C33.0625 66.7354 55.0201 79.2558 82.1062 79.2558C100.367 79.2558 116.296 73.5654 124.738 65.1249ZM139.634 48.6817C147.201 37.1564 167.903 28.8837 192.256 28.8837C193.591 28.8837 194.915 28.9086 196.227 28.9575C184.839 36.7282 178 46.3467 178 56C178 68.3892 189.265 79.4629 206.953 86.8C202.271 87.4762 197.343 87.8372 192.256 87.8372C164.48 87.8372 141.453 77.0754 137.249 63.0002C139.036 59.7136 140 56.2132 140 52.5814C140 51.2788 139.876 49.9769 139.634 48.6817ZM259.5 87C252.141 87 245.061 86.4158 238.444 85.3372C250.529 78.7749 258 69.7203 258 59.7209C258 46.719 245.369 33.7869 226.388 26.309C236.138 23.5678 247.444 22 259.5 22C296.227 22 326 36.5507 326 54.5C326 72.4493 296.227 87 259.5 87ZM247.95 58.3605C247.95 68.1914 238.857 76.8984 224.879 82.2537C205.761 76.5452 193 66.2509 193 54.5C193 45.3001 200.822 36.9931 213.392 31.0805C233.67 35.486 247.95 46.0406 247.95 58.3605Z" fill="black" fill-opacity="0.1"/>
<mask id="path-2-inside-1_17_806" fill="white">
<path fill-rule="evenodd" clip-rule="evenodd" d="M191 91C153.997 91 124 74.7573 124 54.7209C124 34.6845 153.997 14.8139 191 14.8139C228.003 14.8139 258 34.6845 258 54.7209C258 74.7573 228.003 91 191 91ZM192.256 82.8372C161.497 82.8372 136.563 69.64 136.563 53.3605C136.563 37.0809 161.497 23.8837 192.256 23.8837C223.015 23.8837 247.95 37.0809 247.95 53.3605C247.95 69.64 223.015 82.8372 192.256 82.8372Z"/>
</mask>
<path fill-rule="evenodd" clip-rule="evenodd" d="M191 91C153.997 91 124 74.7573 124 54.7209C124 34.6845 153.997 14.8139 191 14.8139C228.003 14.8139 258 34.6845 258 54.7209C258 74.7573 228.003 91 191 91ZM192.256 82.8372C161.497 82.8372 136.563 69.64 136.563 53.3605C136.563 37.0809 161.497 23.8837 192.256 23.8837C223.015 23.8837 247.95 37.0809 247.95 53.3605C247.95 69.64 223.015 82.8372 192.256 82.8372Z" fill="#FDFCF4"/>
<path d="M126 54.7209C126 63.6566 132.718 72.1945 144.576 78.6154C156.355 84.9935 172.765 89 191 89V93C172.232 93 155.142 88.8851 142.672 82.1328C130.28 75.4232 122 65.8216 122 54.7209H126ZM191 16.8139C172.838 16.8139 156.457 21.6945 144.673 28.9564C132.802 36.2724 126 45.7175 126 54.7209H122C122 43.688 130.196 33.1796 142.575 25.5512C155.04 17.8687 172.159 12.8139 191 12.8139V16.8139ZM256 54.7209C256 45.7175 249.198 36.2724 237.327 28.9564C225.543 21.6945 209.162 16.8139 191 16.8139V12.8139C209.841 12.8139 226.96 17.8687 239.425 25.5512C251.804 33.1796 260 43.688 260 54.7209H256ZM191 89C209.235 89 225.645 84.9935 237.424 78.6154C249.282 72.1945 256 63.6566 256 54.7209H260C260 65.8216 251.72 75.4232 239.328 82.1328C226.858 88.8851 209.768 93 191 93V89ZM138.563 53.3605C138.563 60.3941 143.984 67.2352 153.81 72.436C163.547 77.5893 177.136 80.8372 192.256 80.8372V84.8372C176.617 84.8372 162.36 81.4865 151.939 75.9713C141.608 70.5036 134.563 62.6064 134.563 53.3605H138.563ZM192.256 25.8837C177.136 25.8837 163.547 29.1316 153.81 34.2849C143.984 39.4857 138.563 46.3268 138.563 53.3605H134.563C134.563 44.1145 141.608 36.2173 151.939 30.7496C162.36 25.2344 176.617 21.8837 192.256 21.8837V25.8837ZM245.95 53.3605C245.95 46.3268 240.528 39.4857 230.702 34.2849C220.965 29.1316 207.376 25.8837 192.256 25.8837V21.8837C207.895 21.8837 222.153 25.2344 232.573 30.7496C242.904 36.2173 249.95 44.1145 249.95 53.3605H245.95ZM192.256 80.8372C207.376 80.8372 220.965 77.5893 230.702 72.436C240.528 67.2352 245.95 60.3941 245.95 53.3605H249.95C249.95 62.6064 242.904 70.5036 232.573 75.9713C222.153 81.4865 207.895 84.8372 192.256 84.8372V80.8372Z" fill="#EEE9BB" mask="url(#path-2-inside-1_17_806)"/>
<mask id="path-4-inside-2_17_806" fill="white">
<path fill-rule="evenodd" clip-rule="evenodd" d="M191 85.5581C153.997 85.5581 124 69.3154 124 49.2791C124 29.2427 153.997 13 191 13C228.003 13 258 29.2427 258 49.2791C258 69.3154 228.003 85.5581 191 85.5581ZM192.256 77.3953C161.497 77.3953 136.563 64.1982 136.563 47.9186C136.563 31.639 161.497 18.4419 192.256 18.4419C223.015 18.4419 247.95 31.639 247.95 47.9186C247.95 64.1982 223.015 77.3953 192.256 77.3953Z"/>
</mask>
<path fill-rule="evenodd" clip-rule="evenodd" d="M191 85.5581C153.997 85.5581 124 69.3154 124 49.2791C124 29.2427 153.997 13 191 13C228.003 13 258 29.2427 258 49.2791C258 69.3154 228.003 85.5581 191 85.5581ZM192.256 77.3953C161.497 77.3953 136.563 64.1982 136.563 47.9186C136.563 31.639 161.497 18.4419 192.256 18.4419C223.015 18.4419 247.95 31.639 247.95 47.9186C247.95 64.1982 223.015 77.3953 192.256 77.3953Z" fill="#FDFCF4"/>
<path d="M126 49.2791C126 58.2147 132.718 66.7527 144.576 73.1735C156.355 79.5516 172.765 83.5581 191 83.5581V87.5581C172.232 87.5581 155.142 83.4433 142.672 76.691C130.28 69.9814 122 60.3798 122 49.2791H126ZM191 15C172.765 15 156.355 19.0065 144.576 25.3846C132.718 31.8055 126 40.3434 126 49.2791H122C122 38.1784 130.28 28.5768 142.672 21.8672C155.142 15.1148 172.232 11 191 11V15ZM256 49.2791C256 40.3434 249.282 31.8055 237.424 25.3846C225.645 19.0065 209.235 15 191 15V11C209.768 11 226.858 15.1148 239.328 21.8672C251.72 28.5768 260 38.1784 260 49.2791H256ZM191 83.5581C209.235 83.5581 225.645 79.5516 237.424 73.1735C249.282 66.7527 256 58.2147 256 49.2791H260C260 60.3798 251.72 69.9814 239.328 76.691C226.858 83.4433 209.768 87.5581 191 87.5581V83.5581ZM138.563 47.9186C138.563 54.9522 143.984 61.7934 153.81 66.9941C163.547 72.1474 177.136 75.3953 192.256 75.3953V79.3953C176.617 79.3953 162.36 76.0447 151.939 70.5295C141.608 65.0617 134.563 57.1645 134.563 47.9186H138.563ZM192.256 20.4419C177.136 20.4419 163.547 23.6898 153.81 28.8431C143.984 34.0438 138.563 40.885 138.563 47.9186H134.563C134.563 38.6727 141.608 30.7755 151.939 25.3077C162.36 19.7925 176.617 16.4419 192.256 16.4419V20.4419ZM245.95 47.9186C245.95 40.885 240.528 34.0438 230.702 28.8431C220.965 23.6898 207.376 20.4419 192.256 20.4419V16.4419C207.895 16.4419 222.153 19.7925 232.573 25.3077C242.904 30.7755 249.95 38.6727 249.95 47.9186H245.95ZM192.256 75.3953C207.376 75.3953 220.965 72.1474 230.702 66.9941C240.528 61.7934 245.95 54.9522 245.95 47.9186H249.95C249.95 57.1645 242.904 65.0617 232.573 70.5295C222.153 76.0447 207.895 79.3953 192.256 79.3953V75.3953Z" fill="#EEE9BB" mask="url(#path-4-inside-2_17_806)"/>
<mask id="path-6-inside-3_17_806" fill="white">
<path fill-rule="evenodd" clip-rule="evenodd" d="M258 91C213.817 91 178 73.0914 178 51C178 28.9086 213.817 7 258 7C302.183 7 338 28.9086 338 51C338 73.0914 302.183 91 258 91ZM259.5 82C222.773 82 193 67.4493 193 49.5C193 31.5507 222.773 17 259.5 17C296.227 17 326 31.5507 326 49.5C326 67.4493 296.227 82 259.5 82Z"/>
</mask>
<path fill-rule="evenodd" clip-rule="evenodd" d="M258 91C213.817 91 178 73.0914 178 51C178 28.9086 213.817 7 258 7C302.183 7 338 28.9086 338 51C338 73.0914 302.183 91 258 91ZM259.5 82C222.773 82 193 67.4493 193 49.5C193 31.5507 222.773 17 259.5 17C296.227 17 326 31.5507 326 49.5C326 67.4493 296.227 82 259.5 82Z" fill="#FDFCF4"/>
<path d="M180 51C180 60.88 188.061 70.3631 202.326 77.4954C216.471 84.5679 236.152 89 258 89V93C235.665 93 215.346 88.4778 200.537 81.0731C185.847 73.7282 176 63.2114 176 51H180ZM258 9C236.218 9 216.566 14.4044 202.421 22.454C188.154 30.5727 180 41.0483 180 51H176C176 38.8603 185.754 27.3359 200.442 18.9775C215.251 10.5499 235.599 5 258 5V9ZM336 51C336 41.0483 327.846 30.5727 313.579 22.454C299.434 14.4044 279.782 9 258 9V5C280.401 5 300.749 10.5499 315.558 18.9775C330.246 27.3359 340 38.8603 340 51H336ZM258 89C279.848 89 299.529 84.5679 313.674 77.4954C327.939 70.3631 336 60.88 336 51H340C340 63.2114 330.153 73.7282 315.463 81.0731C300.654 88.4778 280.335 93 258 93V89ZM195 49.5C195 57.2849 201.517 64.8981 213.356 70.6841C225.062 76.405 241.373 80 259.5 80V84C240.9 84 223.962 80.3196 211.599 74.2779C199.37 68.3011 191 59.6643 191 49.5H195ZM259.5 19C241.373 19 225.062 22.595 213.356 28.3159C201.517 34.1019 195 41.7151 195 49.5H191C191 39.3357 199.37 30.6989 211.599 24.7221C223.962 18.6804 240.9 15 259.5 15V19ZM324 49.5C324 41.7151 317.483 34.1019 305.644 28.3159C293.938 22.595 277.627 19 259.5 19V15C278.1 15 295.038 18.6804 307.401 24.7221C319.63 30.6989 328 39.3357 328 49.5H324ZM259.5 80C277.627 80 293.938 76.405 305.644 70.6841C317.483 64.8981 324 57.2849 324 49.5H328C328 59.6643 319.63 68.3011 307.401 74.2779C295.038 80.3196 278.1 84 259.5 84V80Z" fill="#EEE9BB" mask="url(#path-6-inside-3_17_806)"/>
<mask id="path-8-inside-4_17_806" fill="white">
<path fill-rule="evenodd" clip-rule="evenodd" d="M258 85C213.817 85 178 67.0914 178 45C178 22.9086 213.817 5 258 5C302.183 5 338 22.9086 338 45C338 67.0914 302.183 85 258 85ZM259.5 76C222.773 76 193 61.4493 193 43.5C193 25.5507 222.773 11 259.5 11C296.227 11 326 25.5507 326 43.5C326 61.4493 296.227 76 259.5 76Z"/>
</mask>
<path fill-rule="evenodd" clip-rule="evenodd" d="M258 85C213.817 85 178 67.0914 178 45C178 22.9086 213.817 5 258 5C302.183 5 338 22.9086 338 45C338 67.0914 302.183 85 258 85ZM259.5 76C222.773 76 193 61.4493 193 43.5C193 25.5507 222.773 11 259.5 11C296.227 11 326 25.5507 326 43.5C326 61.4493 296.227 76 259.5 76Z" fill="#FDFCF4"/>
<path d="M180 45C180 54.88 188.061 64.3631 202.326 71.4954C216.471 78.5679 236.152 83 258 83V87C235.665 87 215.346 82.4778 200.537 75.0731C185.847 67.7282 176 57.2114 176 45H180ZM258 7C236.152 7 216.471 11.4321 202.326 18.5046C188.061 25.6369 180 35.12 180 45H176C176 32.7886 185.847 22.2718 200.537 14.9269C215.346 7.52218 235.665 3 258 3V7ZM336 45C336 35.12 327.939 25.6369 313.674 18.5046C299.529 11.4321 279.848 7 258 7V3C280.335 3 300.654 7.52218 315.463 14.9269C330.153 22.2718 340 32.7886 340 45H336ZM258 83C279.848 83 299.529 78.5679 313.674 71.4954C327.939 64.3631 336 54.88 336 45H340C340 57.2114 330.153 67.7282 315.463 75.0731C300.654 82.4778 280.335 87 258 87V83ZM195 43.5C195 51.2849 201.517 58.8981 213.356 64.6841C225.062 70.405 241.373 74 259.5 74V78C240.9 78 223.962 74.3196 211.599 68.2779C199.37 62.3011 191 53.6643 191 43.5H195ZM259.5 13C241.373 13 225.062 16.595 213.356 22.3159C201.517 28.1019 195 35.7151 195 43.5H191C191 33.3357 199.37 24.6989 211.599 18.7221C223.962 12.6804 240.9 9 259.5 9V13ZM324 43.5C324 35.7151 317.483 28.1019 305.644 22.3159C293.938 16.595 277.627 13 259.5 13V9C278.1 9 295.038 12.6804 307.401 18.7221C319.63 24.6989 328 33.3357 328 43.5H324ZM259.5 74C277.627 74 293.938 70.405 305.644 64.6841C317.483 58.8981 324 51.2849 324 43.5H328C328 53.6643 319.63 62.3011 307.401 68.2779C295.038 74.3196 278.1 78 259.5 78V74Z" fill="#EEE9BB" mask="url(#path-8-inside-4_17_806)"/>
<mask id="path-10-inside-5_17_806" fill="white">
<path fill-rule="evenodd" clip-rule="evenodd" d="M81 82C48.4152 82 22 66.5903 22 47.5814C22 28.5725 48.4152 9.72093 81 9.72093C113.585 9.72093 140 28.5725 140 47.5814C140 66.5903 113.585 82 81 82ZM82.1062 74.2558C55.0201 74.2558 33.0625 61.7354 33.0625 46.2907C33.0625 30.846 55.0201 18.3256 82.1062 18.3256C109.192 18.3256 131.15 30.846 131.15 46.2907C131.15 61.7354 109.192 74.2558 82.1062 74.2558Z"/>
</mask>
<path fill-rule="evenodd" clip-rule="evenodd" d="M81 82C48.4152 82 22 66.5903 22 47.5814C22 28.5725 48.4152 9.72093 81 9.72093C113.585 9.72093 140 28.5725 140 47.5814C140 66.5903 113.585 82 81 82ZM82.1062 74.2558C55.0201 74.2558 33.0625 61.7354 33.0625 46.2907C33.0625 30.846 55.0201 18.3256 82.1062 18.3256C109.192 18.3256 131.15 30.846 131.15 46.2907C131.15 61.7354 109.192 74.2558 82.1062 74.2558Z" fill="#FDFCF4"/>
<path d="M24 47.5814C24 56.0792 29.919 64.1423 40.2885 70.1915C50.6088 76.212 64.9981 80 81 80V84C64.4171 84 49.3064 80.0831 38.2729 73.6466C27.2886 67.2387 20 58.0924 20 47.5814H24ZM81 11.7209C65.077 11.7209 50.7165 16.3307 40.387 23.189C29.9943 30.0893 24 39.0199 24 47.5814H20C20 37.134 27.2133 27.1344 38.1744 19.8567C49.1987 12.537 64.3382 7.72093 81 7.72093V11.7209ZM138 47.5814C138 39.0199 132.006 30.0893 121.613 23.189C111.284 16.3307 96.923 11.7209 81 11.7209V7.72093C97.6618 7.72093 112.801 12.537 123.826 19.8567C134.787 27.1344 142 37.134 142 47.5814H138ZM81 80C97.0019 80 111.391 76.212 121.712 70.1915C132.081 64.1423 138 56.0792 138 47.5814H142C142 58.0924 134.711 67.2387 123.727 73.6466C112.694 80.0831 97.5829 84 81 84V80ZM35.0625 46.2907C35.0625 52.9834 39.8385 59.4357 48.4177 64.3276C56.9396 69.1868 68.846 72.2558 82.1062 72.2558V76.2558C68.2803 76.2558 55.6649 73.0646 46.4364 67.8024C37.2653 62.573 31.0625 55.0427 31.0625 46.2907H35.0625ZM82.1062 20.3256C68.846 20.3256 56.9396 23.3946 48.4177 28.2538C39.8385 33.1457 35.0625 39.598 35.0625 46.2907H31.0625C31.0625 37.5387 37.2653 30.0084 46.4364 24.779C55.6649 19.5168 68.2803 16.3256 82.1062 16.3256V20.3256ZM129.15 46.2907C129.15 39.598 124.374 33.1457 115.795 28.2538C107.273 23.3946 95.3664 20.3256 82.1062 20.3256V16.3256C95.9322 16.3256 108.548 19.5168 117.776 24.779C126.947 30.0084 133.15 37.5387 133.15 46.2907H129.15ZM82.1062 72.2558C95.3664 72.2558 107.273 69.1868 115.795 64.3276C124.374 59.4357 129.15 52.9834 129.15 46.2907H133.15C133.15 55.0427 126.947 62.573 117.776 67.8024C108.548 73.0646 95.9322 76.2558 82.1062 76.2558V72.2558Z" fill="#EEE9BB" mask="url(#path-10-inside-5_17_806)"/>
<mask id="path-12-inside-6_17_806" fill="white">
<path fill-rule="evenodd" clip-rule="evenodd" d="M81 76.8372C48.4152 76.8372 22 61.4275 22 42.4186C22 23.4097 48.4152 8 81 8C113.585 8 140 23.4097 140 42.4186C140 61.4275 113.585 76.8372 81 76.8372ZM82.1062 69.093C55.0201 69.093 33.0625 56.5726 33.0625 41.1279C33.0625 25.6832 55.0201 13.1628 82.1062 13.1628C109.192 13.1628 131.15 25.6832 131.15 41.1279C131.15 56.5726 109.192 69.093 82.1062 69.093Z"/>
</mask>
<path fill-rule="evenodd" clip-rule="evenodd" d="M81 76.8372C48.4152 76.8372 22 61.4275 22 42.4186C22 23.4097 48.4152 8 81 8C113.585 8 140 23.4097 140 42.4186C140 61.4275 113.585 76.8372 81 76.8372ZM82.1062 69.093C55.0201 69.093 33.0625 56.5726 33.0625 41.1279C33.0625 25.6832 55.0201 13.1628 82.1062 13.1628C109.192 13.1628 131.15 25.6832 131.15 41.1279C131.15 56.5726 109.192 69.093 82.1062 69.093Z" fill="#FDFCF4"/>
<path d="M24 42.4186C24 50.9164 29.919 58.9795 40.2885 65.0287C50.6088 71.0492 64.9981 74.8372 81 74.8372V78.8372C64.4171 78.8372 49.3064 74.9203 38.2729 68.4838C27.2886 62.0759 20 52.9296 20 42.4186H24ZM81 10C64.9981 10 50.6088 13.788 40.2885 19.8085C29.919 25.8577 24 33.9208 24 42.4186H20C20 31.9076 27.2886 22.7613 38.2729 16.3534C49.3064 9.91691 64.4171 6 81 6V10ZM138 42.4186C138 33.9208 132.081 25.8577 121.712 19.8085C111.391 13.788 97.0019 10 81 10V6C97.5829 6 112.694 9.91691 123.727 16.3534C134.711 22.7613 142 31.9076 142 42.4186H138ZM81 74.8372C97.0019 74.8372 111.391 71.0492 121.712 65.0287C132.081 58.9795 138 50.9164 138 42.4186H142C142 52.9296 134.711 62.0759 123.727 68.4838C112.694 74.9203 97.5829 78.8372 81 78.8372V74.8372ZM35.0625 41.1279C35.0625 47.8206 39.8385 54.2729 48.4177 59.1648C56.9396 64.024 68.846 67.093 82.1062 67.093V71.093C68.2803 71.093 55.6649 67.9018 46.4364 62.6396C37.2653 57.4102 31.0625 49.8799 31.0625 41.1279H35.0625ZM82.1062 15.1628C68.846 15.1628 56.9396 18.2318 48.4177 23.091C39.8385 27.9829 35.0625 34.4352 35.0625 41.1279H31.0625C31.0625 32.3759 37.2653 24.8456 46.4364 19.6162C55.6649 14.354 68.2803 11.1628 82.1062 11.1628V15.1628ZM129.15 41.1279C129.15 34.4352 124.374 27.9829 115.795 23.091C107.273 18.2318 95.3664 15.1628 82.1062 15.1628V11.1628C95.9322 11.1628 108.548 14.354 117.776 19.6162C126.947 24.8456 133.15 32.3759 133.15 41.1279H129.15ZM82.1062 67.093C95.3664 67.093 107.273 64.024 115.795 59.1648C124.374 54.2729 129.15 47.8206 129.15 41.1279H133.15C133.15 49.8799 126.947 57.4102 117.776 62.6396C108.548 67.9018 95.9322 71.093 82.1062 71.093V67.093Z" fill="#EEE9BB" mask="url(#path-12-inside-6_17_806)"/>
</svg>
