<svg width="380" height="100" viewBox="0 0 380 100" fill="none" xmlns="http://www.w3.org/2000/svg">
<path fill-rule="evenodd" clip-rule="evenodd" d="M102 96C114.829 96 126.954 94.49 137.7 91.8061C147.042 94.4837 157.694 96 169 96C197.393 96 221.66 86.4371 231.417 72.935C242.155 81.464 259.469 87 279 87C311.585 87 338 71.5903 338 52.5814C338 33.5725 311.585 14.7209 279 14.7209C254.671 14.7209 233.781 25.2304 224.757 38.4679C212.744 27.6624 192.255 19.814 169 19.814C162.487 19.814 156.192 20.4295 150.239 21.5531C136.827 15.6837 120.117 12 102 12C57.8172 12 22 33.9086 22 56C22 78.0914 57.8172 96 102 96ZM235.262 65.1249C235.748 63.3618 236 61.5573 236 59.7209C236 54.5107 233.972 49.3116 230.319 44.4703C235.658 32.3221 254.934 23.3256 277.894 23.3256C304.98 23.3256 326.938 35.846 326.938 51.2907C326.938 66.7354 304.98 79.2558 277.894 79.2558C259.633 79.2558 243.704 73.5654 235.262 65.1249ZM220.366 48.6817C212.799 37.1564 192.097 28.8837 167.744 28.8837C166.409 28.8837 165.085 28.9086 163.773 28.9575C175.161 36.7282 182 46.3467 182 56C182 68.3892 170.735 79.4629 153.047 86.8C157.729 87.4762 162.657 87.8372 167.744 87.8372C195.52 87.8372 218.547 77.0754 222.751 63.0002C220.964 59.7136 220 56.2132 220 52.5814C220 51.2788 220.124 49.9769 220.366 48.6817ZM100.5 87C107.859 87 114.939 86.4158 121.556 85.3372C109.471 78.7749 102 69.7203 102 59.7209C102 46.719 114.631 33.7869 133.612 26.309C123.862 23.5678 112.556 22 100.5 22C63.7731 22 34 36.5507 34 54.5C34 72.4493 63.7731 87 100.5 87ZM112.05 58.3605C112.05 68.1914 121.143 76.8984 135.121 82.2537C154.239 76.5452 167 66.2509 167 54.5C167 45.3001 159.178 36.9931 146.608 31.0805C126.33 35.486 112.05 46.0406 112.05 58.3605Z" fill="black" fill-opacity="0.1"/>
<mask id="path-2-inside-1_6_316" fill="white">
<path fill-rule="evenodd" clip-rule="evenodd" d="M169 91C206.003 91 236 74.7573 236 54.7209C236 34.6846 206.003 14.814 169 14.814C131.997 14.814 102 34.6846 102 54.7209C102 74.7573 131.997 91 169 91ZM167.744 82.8372C198.503 82.8372 223.437 69.64 223.437 53.3605C223.437 37.0809 198.503 23.8837 167.744 23.8837C136.985 23.8837 112.05 37.0809 112.05 53.3605C112.05 69.64 136.985 82.8372 167.744 82.8372Z"/>
</mask>
<path fill-rule="evenodd" clip-rule="evenodd" d="M169 91C206.003 91 236 74.7573 236 54.7209C236 34.6846 206.003 14.814 169 14.814C131.997 14.814 102 34.6846 102 54.7209C102 74.7573 131.997 91 169 91ZM167.744 82.8372C198.503 82.8372 223.437 69.64 223.437 53.3605C223.437 37.0809 198.503 23.8837 167.744 23.8837C136.985 23.8837 112.05 37.0809 112.05 53.3605C112.05 69.64 136.985 82.8372 167.744 82.8372Z" fill="#FDF4F6"/>
<path d="M233 54.7209C233 63.1153 226.672 71.3874 214.948 77.736C203.341 84.0206 187.102 88 169 88V94C187.901 94 205.162 89.8581 217.805 83.0122C230.329 76.2304 239 66.3629 239 54.7209H233ZM169 17.814C186.993 17.814 203.189 22.6509 214.802 29.8078C226.547 37.0456 233 46.2249 233 54.7209H239C239 43.1806 230.455 32.4064 217.95 24.6999C205.314 16.9123 188.01 11.814 169 11.814V17.814ZM105 54.7209C105 46.2249 111.453 37.0456 123.198 29.8078C134.811 22.6509 151.007 17.814 169 17.814V11.814C149.99 11.814 132.686 16.9123 120.05 24.6999C107.545 32.4064 99 43.1806 99 54.7209H105ZM169 88C150.898 88 134.659 84.0206 123.052 77.736C111.328 71.3874 105 63.1153 105 54.7209H99C99 66.3629 107.671 76.2304 120.195 83.0122C132.838 89.8581 150.099 94 169 94V88ZM220.437 53.3605C220.437 59.841 215.422 66.4182 205.722 71.5521C196.156 76.615 182.734 79.8372 167.744 79.8372V85.8372C183.512 85.8372 197.937 82.4608 208.529 76.8552C218.985 71.3207 226.437 63.1595 226.437 53.3605H220.437ZM167.744 26.8837C182.734 26.8837 196.156 30.106 205.722 35.1688C215.422 40.3028 220.437 46.8799 220.437 53.3605H226.437C226.437 43.5614 218.985 35.4002 208.529 29.8657C197.937 24.2601 183.512 20.8837 167.744 20.8837V26.8837ZM115.05 53.3605C115.05 46.8799 120.065 40.3028 129.766 35.1688C139.331 30.106 152.754 26.8837 167.744 26.8837V20.8837C151.975 20.8837 137.55 24.2601 126.959 29.8657C116.502 35.4002 109.05 43.5614 109.05 53.3605H115.05ZM167.744 79.8372C152.754 79.8372 139.331 76.615 129.766 71.5521C120.065 66.4182 115.05 59.841 115.05 53.3605H109.05C109.05 63.1595 116.502 71.3207 126.959 76.8552C137.55 82.4608 151.975 85.8372 167.744 85.8372V79.8372Z" fill="#D382B9" mask="url(#path-2-inside-1_6_316)"/>
<mask id="path-4-inside-2_6_316" fill="white">
<path fill-rule="evenodd" clip-rule="evenodd" d="M169 85.5581C206.003 85.5581 236 69.3154 236 49.2791C236 29.2427 206.003 13 169 13C131.997 13 102 29.2427 102 49.2791C102 69.3154 131.997 85.5581 169 85.5581ZM167.744 77.3953C198.503 77.3953 223.437 64.1982 223.437 47.9186C223.437 31.639 198.503 18.4419 167.744 18.4419C136.985 18.4419 112.05 31.639 112.05 47.9186C112.05 64.1982 136.985 77.3953 167.744 77.3953Z"/>
</mask>
<path fill-rule="evenodd" clip-rule="evenodd" d="M169 85.5581C206.003 85.5581 236 69.3154 236 49.2791C236 29.2427 206.003 13 169 13C131.997 13 102 29.2427 102 49.2791C102 69.3154 131.997 85.5581 169 85.5581ZM167.744 77.3953C198.503 77.3953 223.437 64.1982 223.437 47.9186C223.437 31.639 198.503 18.4419 167.744 18.4419C136.985 18.4419 112.05 31.639 112.05 47.9186C112.05 64.1982 136.985 77.3953 167.744 77.3953Z" fill="#FDF4F6"/>
<path d="M233 49.2791C233 57.6735 226.672 65.9455 214.948 72.2942C203.341 78.5787 187.102 82.5581 169 82.5581V88.5581C187.901 88.5581 205.162 84.4162 217.805 77.5703C230.329 70.7885 239 60.9211 239 49.2791H233ZM169 16C187.102 16 203.341 19.9794 214.948 26.264C226.672 32.6126 233 40.8847 233 49.2791H239C239 37.6371 230.329 27.7696 217.805 20.9878C205.162 14.1419 187.901 10 169 10V16ZM105 49.2791C105 40.8847 111.328 32.6126 123.052 26.264C134.659 19.9794 150.898 16 169 16V10C150.099 10 132.838 14.1419 120.195 20.9878C107.671 27.7696 99 37.6371 99 49.2791H105ZM169 82.5581C150.898 82.5581 134.659 78.5787 123.052 72.2942C111.328 65.9455 105 57.6735 105 49.2791H99C99 60.921 107.671 70.7885 120.195 77.5703C132.838 84.4162 150.099 88.5581 169 88.5581V82.5581ZM220.437 47.9186C220.437 54.3991 215.422 60.9763 205.722 66.1103C196.156 71.1731 182.734 74.3953 167.744 74.3953V80.3953C183.512 80.3953 197.937 77.019 208.529 71.4133C218.985 65.8788 226.437 57.7176 226.437 47.9186H220.437ZM167.744 21.4419C182.734 21.4419 196.156 24.6641 205.722 29.7269C215.422 34.8609 220.437 41.4381 220.437 47.9186H226.437C226.437 38.1196 218.985 29.9584 208.529 24.4239C197.937 18.8182 183.512 15.4419 167.744 15.4419V21.4419ZM115.05 47.9186C115.05 41.4381 120.065 34.8609 129.766 29.7269C139.331 24.6641 152.754 21.4419 167.744 21.4419V15.4419C151.975 15.4419 137.55 18.8182 126.959 24.4239C116.502 29.9584 109.05 38.1196 109.05 47.9186H115.05ZM167.744 74.3953C152.754 74.3953 139.331 71.1731 129.766 66.1103C120.065 60.9763 115.05 54.3991 115.05 47.9186H109.05C109.05 57.7176 116.502 65.8788 126.959 71.4133C137.55 77.019 151.975 80.3953 167.744 80.3953V74.3953Z" fill="#D382B9" mask="url(#path-4-inside-2_6_316)"/>
<mask id="path-6-inside-3_6_316" fill="white">
<path fill-rule="evenodd" clip-rule="evenodd" d="M102 91C146.183 91 182 73.0914 182 51C182 28.9086 146.183 7 102 7C57.8172 7 22 28.9086 22 51C22 73.0914 57.8172 91 102 91ZM100.5 82C137.227 82 167 67.4493 167 49.5C167 31.5507 137.227 17 100.5 17C63.7731 17 34 31.5507 34 49.5C34 67.4493 63.7731 82 100.5 82Z"/>
</mask>
<path fill-rule="evenodd" clip-rule="evenodd" d="M102 91C146.183 91 182 73.0914 182 51C182 28.9086 146.183 7 102 7C57.8172 7 22 28.9086 22 51C22 73.0914 57.8172 91 102 91ZM100.5 82C137.227 82 167 67.4493 167 49.5C167 31.5507 137.227 17 100.5 17C63.7731 17 34 31.5507 34 49.5C34 67.4493 63.7731 82 100.5 82Z" fill="#FDF4F6"/>
<path d="M179 51C179 60.2972 171.385 69.5219 157.227 76.601C143.248 83.5904 123.727 88 102 88V94C124.456 94 144.935 89.4553 159.91 81.9676C174.706 74.5695 185 63.7942 185 51H179ZM102 10C123.627 10 143.106 15.368 157.085 23.3231C171.246 31.3818 179 41.5953 179 51H185C185 38.3133 174.845 26.5268 160.052 18.1084C145.077 9.58635 124.556 4 102 4V10ZM25 51C25 41.5953 32.7541 31.3818 46.9152 23.3231C60.8943 15.368 80.3734 10 102 10V4C79.4438 4 58.9229 9.58635 43.9477 18.1084C29.1545 26.5268 19 38.3133 19 51H25ZM102 88C80.2734 88 60.7519 83.5904 46.7731 76.601C32.6149 69.5219 25 60.2972 25 51H19C19 63.7942 29.2937 74.5695 44.0898 81.9676C59.0653 89.4553 79.5439 94 102 94V88ZM164 49.5C164 56.6901 157.947 64.0474 146.205 69.7856C134.663 75.4264 118.508 79 100.5 79V85C119.219 85 136.313 81.2982 148.84 75.1763C161.167 69.1519 170 60.2592 170 49.5H164ZM100.5 20C118.508 20 134.663 23.5736 146.205 29.2144C157.947 34.9526 164 42.3099 164 49.5H170C170 38.7408 161.167 29.8481 148.84 23.8237C136.313 17.7018 119.219 14 100.5 14V20ZM37 49.5C37 42.3099 43.0533 34.9526 54.7947 29.2144C66.3365 23.5736 82.4919 20 100.5 20V14C81.7811 14 64.6866 17.7018 52.1601 23.8237C39.8332 29.8481 31 38.7408 31 49.5H37ZM100.5 79C82.4919 79 66.3365 75.4264 54.7947 69.7856C43.0533 64.0474 37 56.6901 37 49.5H31C31 60.2592 39.8332 69.1519 52.1601 75.1763C64.6866 81.2982 81.7811 85 100.5 85V79Z" fill="#D382B9" mask="url(#path-6-inside-3_6_316)"/>
<mask id="path-8-inside-4_6_316" fill="white">
<path fill-rule="evenodd" clip-rule="evenodd" d="M102 85C146.183 85 182 67.0914 182 45C182 22.9086 146.183 5 102 5C57.8172 5 22 22.9086 22 45C22 67.0914 57.8172 85 102 85ZM100.5 76C137.227 76 167 61.4493 167 43.5C167 25.5507 137.227 11 100.5 11C63.7731 11 34 25.5507 34 43.5C34 61.4493 63.7731 76 100.5 76Z"/>
</mask>
<path fill-rule="evenodd" clip-rule="evenodd" d="M102 85C146.183 85 182 67.0914 182 45C182 22.9086 146.183 5 102 5C57.8172 5 22 22.9086 22 45C22 67.0914 57.8172 85 102 85ZM100.5 76C137.227 76 167 61.4493 167 43.5C167 25.5507 137.227 11 100.5 11C63.7731 11 34 25.5507 34 43.5C34 61.4493 63.7731 76 100.5 76Z" fill="#FDF4F6"/>
<path d="M179 45C179 54.2972 171.385 63.5219 157.227 70.601C143.248 77.5904 123.727 82 102 82V88C124.456 88 144.935 83.4553 159.91 75.9676C174.706 68.5695 185 57.7942 185 45H179ZM102 8C123.727 8 143.248 12.4096 157.227 19.399C171.385 26.4781 179 35.7028 179 45H185C185 32.2058 174.706 21.4305 159.91 14.0324C144.935 6.54469 124.456 2 102 2V8ZM25 45C25 35.7028 32.6149 26.4781 46.7731 19.399C60.7519 12.4096 80.2734 8 102 8V2C79.5439 2 59.0653 6.54469 44.0898 14.0324C29.2937 21.4305 19 32.2058 19 45H25ZM102 82C80.2734 82 60.7519 77.5904 46.7731 70.601C32.6149 63.5219 25 54.2972 25 45H19C19 57.7942 29.2937 68.5695 44.0898 75.9676C59.0653 83.4553 79.5439 88 102 88V82ZM164 43.5C164 50.6901 157.947 58.0474 146.205 63.7856C134.663 69.4264 118.508 73 100.5 73V79C119.219 79 136.313 75.2982 148.84 69.1763C161.167 63.1519 170 54.2592 170 43.5H164ZM100.5 14C118.508 14 134.663 17.5736 146.205 23.2144C157.947 28.9526 164 36.3099 164 43.5H170C170 32.7408 161.167 23.8481 148.84 17.8237C136.313 11.7018 119.219 8 100.5 8V14ZM37 43.5C37 36.3099 43.0533 28.9526 54.7947 23.2144C66.3365 17.5736 82.4919 14 100.5 14V8C81.7811 8 64.6866 11.7018 52.1601 17.8237C39.8332 23.8481 31 32.7408 31 43.5H37ZM100.5 73C82.4919 73 66.3365 69.4264 54.7947 63.7856C43.0533 58.0474 37 50.6901 37 43.5H31C31 54.2592 39.8332 63.1519 52.1601 69.1763C64.6866 75.2982 81.7811 79 100.5 79V73Z" fill="#D382B9" mask="url(#path-8-inside-4_6_316)"/>
<mask id="path-10-inside-5_6_316" fill="white">
<path fill-rule="evenodd" clip-rule="evenodd" d="M279 82C311.585 82 338 66.5903 338 47.5814C338 28.5725 311.585 9.72093 279 9.72093C246.415 9.72093 220 28.5725 220 47.5814C220 66.5903 246.415 82 279 82ZM277.894 74.2558C304.98 74.2558 326.938 61.7354 326.938 46.2907C326.938 30.846 304.98 18.3256 277.894 18.3256C250.808 18.3256 228.85 30.846 228.85 46.2907C228.85 61.7354 250.808 74.2558 277.894 74.2558Z"/>
</mask>
<path fill-rule="evenodd" clip-rule="evenodd" d="M279 82C311.585 82 338 66.5903 338 47.5814C338 28.5725 311.585 9.72093 279 9.72093C246.415 9.72093 220 28.5725 220 47.5814C220 66.5903 246.415 82 279 82ZM277.894 74.2558C304.98 74.2558 326.938 61.7354 326.938 46.2907C326.938 30.846 304.98 18.3256 277.894 18.3256C250.808 18.3256 228.85 30.846 228.85 46.2907C228.85 61.7354 250.808 74.2558 277.894 74.2558Z" fill="#FDF4F6"/>
<path d="M335 47.5814C335 55.5759 329.423 63.3682 319.208 69.3277C309.066 75.2443 294.857 79 279 79V85C295.728 85 311.019 81.0509 322.231 74.5103C333.369 68.0127 341 58.5957 341 47.5814H335ZM279 12.7209C294.738 12.7209 308.904 17.2791 319.06 24.0221C329.31 30.828 335 39.4914 335 47.5814H341C341 36.6625 333.482 26.3957 322.379 19.0236C311.181 11.5886 295.847 6.72093 279 6.72093V12.7209ZM223 47.5814C223 39.4914 228.69 30.828 238.94 24.0221C249.096 17.2791 263.262 12.7209 279 12.7209V6.72093C262.153 6.72093 246.819 11.5886 235.621 19.0236C224.518 26.3957 217 36.6625 217 47.5814H223ZM279 79C263.143 79 248.934 75.2443 238.792 69.3277C228.577 63.3682 223 55.5759 223 47.5814H217C217 58.5957 224.631 68.0127 235.769 74.5103C246.981 81.0509 262.272 85 279 85V79ZM323.938 46.2907C323.938 52.4686 319.518 58.6514 311.087 63.4589C302.742 68.2174 291.013 71.2558 277.894 71.2558V77.2558C291.861 77.2558 304.654 74.034 314.059 68.6711C323.378 63.3573 329.938 55.5575 329.938 46.2907H323.938ZM277.894 21.3256C291.013 21.3256 302.742 24.364 311.087 29.1225C319.518 33.93 323.938 40.1128 323.938 46.2907H329.938C329.938 37.0239 323.378 29.2241 314.059 23.9103C304.654 18.5474 291.861 15.3256 277.894 15.3256V21.3256ZM231.85 46.2907C231.85 40.1128 236.269 33.93 244.701 29.1225C253.046 24.364 264.775 21.3256 277.894 21.3256V15.3256C263.926 15.3256 251.134 18.5474 241.729 23.9103C232.409 29.2241 225.85 37.0239 225.85 46.2907H231.85ZM277.894 71.2558C264.775 71.2558 253.046 68.2174 244.701 63.4589C236.269 58.6514 231.85 52.4686 231.85 46.2907H225.85C225.85 55.5575 232.409 63.3573 241.729 68.6711C251.134 74.034 263.926 77.2558 277.894 77.2558V71.2558Z" fill="#D382B9" mask="url(#path-10-inside-5_6_316)"/>
<mask id="path-12-inside-6_6_316" fill="white">
<path fill-rule="evenodd" clip-rule="evenodd" d="M279 76.8372C311.585 76.8372 338 61.4275 338 42.4186C338 23.4097 311.585 8 279 8C246.415 8 220 23.4097 220 42.4186C220 61.4275 246.415 76.8372 279 76.8372ZM277.894 69.093C304.98 69.093 326.938 56.5726 326.938 41.1279C326.938 25.6832 304.98 13.1628 277.894 13.1628C250.808 13.1628 228.85 25.6832 228.85 41.1279C228.85 56.5726 250.808 69.093 277.894 69.093Z"/>
</mask>
<path fill-rule="evenodd" clip-rule="evenodd" d="M279 76.8372C311.585 76.8372 338 61.4275 338 42.4186C338 23.4097 311.585 8 279 8C246.415 8 220 23.4097 220 42.4186C220 61.4275 246.415 76.8372 279 76.8372ZM277.894 69.093C304.98 69.093 326.938 56.5726 326.938 41.1279C326.938 25.6832 304.98 13.1628 277.894 13.1628C250.808 13.1628 228.85 25.6832 228.85 41.1279C228.85 56.5726 250.808 69.093 277.894 69.093Z" fill="#FDF4F6"/>
<path d="M335 42.4186C335 50.4131 329.423 58.2054 319.208 64.1649C309.066 70.0815 294.857 73.8372 279 73.8372V79.8372C295.728 79.8372 311.019 75.8881 322.231 69.3475C333.369 62.8499 341 53.4329 341 42.4186H335ZM279 11C294.857 11 309.066 14.7557 319.208 20.6723C329.423 26.6318 335 34.4241 335 42.4186H341C341 31.4043 333.369 21.9873 322.231 15.4897C311.019 8.94914 295.728 5 279 5V11ZM223 42.4186C223 34.4241 228.577 26.6318 238.792 20.6723C248.934 14.7557 263.143 11 279 11V5C262.272 5 246.981 8.94914 235.769 15.4897C224.631 21.9873 217 31.4043 217 42.4186H223ZM279 73.8372C263.143 73.8372 248.934 70.0815 238.792 64.1649C228.577 58.2054 223 50.4131 223 42.4186H217C217 53.4329 224.631 62.8499 235.769 69.3475C246.981 75.8881 262.272 79.8372 279 79.8372V73.8372ZM323.938 41.1279C323.938 47.3058 319.518 53.4886 311.087 58.2961C302.742 63.0546 291.013 66.093 277.894 66.093V72.093C291.861 72.093 304.654 68.8712 314.059 63.5083C323.378 58.1945 329.938 50.3947 329.938 41.1279H323.938ZM277.894 16.1628C291.013 16.1628 302.742 19.2012 311.087 23.9597C319.518 28.7672 323.938 34.95 323.938 41.1279H329.938C329.938 31.8611 323.378 24.0613 314.059 18.7475C304.654 13.3846 291.861 10.1628 277.894 10.1628V16.1628ZM231.85 41.1279C231.85 34.95 236.269 28.7672 244.701 23.9597C253.046 19.2012 264.775 16.1628 277.894 16.1628V10.1628C263.926 10.1628 251.134 13.3846 241.729 18.7475C232.409 24.0613 225.85 31.8611 225.85 41.1279H231.85ZM277.894 66.093C264.775 66.093 253.046 63.0546 244.701 58.2961C236.269 53.4886 231.85 47.3058 231.85 41.1279H225.85C225.85 50.3947 232.409 58.1945 241.729 63.5083C251.134 68.8712 263.926 72.093 277.894 72.093V66.093Z" fill="#D382B9" mask="url(#path-12-inside-6_6_316)"/>
</svg>
