<svg width="380" height="100" viewBox="0 0 380 100" fill="none" xmlns="http://www.w3.org/2000/svg">
<path d="M64.6867 1.1518C57.0427 -1.62889 53.9157 1.1518 52.5258 3.93249C40.0979 28.7978 26.9613 53.6405 13.2636 77.6207C10.9118 81.7378 10.5004 88.7048 10 92.1386C11.0564 93.2831 19.5932 95 35.1532 95C140.316 95 353.699 94.861 365.929 94.3048C375.821 93.855 358.883 69.7308 356.201 63.0221C354.811 59.5462 328.404 8.10352 323.887 3.93249C319.37 -0.238541 305.472 2.54215 289.142 3.93249C272.812 5.32283 72.3307 3.93249 64.6867 1.1518Z" fill="black" fill-opacity="0.1"/>
<path d="M12.7608 57.5601C6.8095 65.024 6 89 21.4397 89C126.513 89 353.78 89.3981 366 89C368.5 88.9186 373.475 77.3141 369.946 68.5C366.737 60.4847 359.373 55.191 355.405 52.5841C355.868 51.5889 356.516 49.101 355.405 47.1106C354.017 44.6226 327.633 7.80042 323.12 4.81484C318.607 1.82925 304.72 3.81964 288.404 4.81484C272.087 5.81003 71.7775 4.81483 64.1401 2.82445C56.5026 0.834058 53.3782 2.82445 51.9896 4.81483C50.6009 6.80522 26.9942 39.149 21.4397 45.6178C16.9961 50.7928 18.0839 51.5889 19.3568 52.0865C17.9681 52.5841 17.2044 51.987 12.7608 57.5601Z" fill="#E3DC9C"/>
<path opacity="0.5" d="M365.938 80.717C372.528 80.717 370.794 73.3585 370.794 67.6981L367.5 69.8182H20L11.1447 66C11.1447 71.6604 10.3001 77.4814 12.692 78.7359C15.3591 80.1347 22.2382 81 35.7687 81C140.739 81 353.727 80.717 365.938 80.717Z" fill="#FFFBD7"/>
<path d="M12.7608 57.5601C6.8095 65.024 8.94204 70 34.6317 70C139.705 70 352.906 69.9005 365.126 69.5024C377.346 69.1043 363.737 58.0577 355.405 52.5841C355.868 51.5889 356.516 49.101 355.405 47.1106C354.017 44.6226 327.633 7.80042 323.12 4.81484C318.607 1.82925 304.72 3.81964 288.404 4.81484C272.087 5.81003 71.7775 4.81483 64.1401 2.82445C56.5026 0.834058 53.3782 2.82445 51.9896 4.81483C50.6009 6.80522 26.9942 39.149 21.4397 45.6178C16.9961 50.7928 18.0839 51.5889 19.3568 52.0865C17.9681 52.5841 17.2044 51.987 12.7608 57.5601Z" fill="#FEF8BC"/>
<path d="M30.4847 53.7554C25.1285 59.9022 27.0478 64 50.1685 64C144.734 64 336.615 63.9181 347.613 63.5902C358.611 63.2624 346.363 54.1652 338.865 49.6575C339.281 48.8379 339.865 46.789 338.865 45.1499C337.615 43.1009 313.869 12.7768 309.808 10.3181C305.746 7.85939 293.248 9.49853 278.563 10.3181C263.879 11.1377 83.5998 10.3181 76.7261 8.67896C69.8524 7.03981 67.0404 8.67895 65.7906 10.3181C64.5408 11.9572 43.2948 38.5933 38.2957 43.9205C34.2965 48.1823 35.2755 48.8379 36.4211 49.2477C35.1713 49.6575 34.484 49.1658 30.4847 53.7554Z" fill="#FFFBD7"/>
<path d="M12.7608 57.5601C6.8095 65.024 8.94204 70 34.6317 70C139.705 70 352.906 69.9005 365.126 69.5024C377.346 69.1043 363.737 58.0577 355.405 52.5841C355.868 51.5889 356.516 49.101 355.405 47.1106C354.017 44.6226 327.633 7.80042 323.12 4.81484C318.607 1.82925 304.72 3.81964 288.404 4.81484C272.087 5.81003 71.7775 4.81483 64.1401 2.82445C56.5026 0.834058 53.3782 2.82445 51.9896 4.81483C50.6009 6.80522 26.9942 39.149 21.4397 45.6178C16.9961 50.7928 18.0839 51.5889 19.3568 52.0865C17.9681 52.5841 17.2044 51.987 12.7608 57.5601Z" stroke="#DDA729" stroke-width="2" stroke-linejoin="round"/>
<path d="M10.1447 64C10.1447 73.8113 9.30013 83.9011 11.692 86.0755C14.3591 88.5001 21.2382 90 34.7687 90C139.739 90 352.727 89.5094 364.938 89.5094C371.528 89.5094 369.794 76.7547 369.794 66.9434" stroke="#DDA729" stroke-width="2" stroke-linejoin="round"/>
<ellipse cx="38" cy="58" rx="3" ry="2" fill="#E3DC9C"/>
<ellipse cx="3" cy="2" rx="3" ry="2" transform="matrix(-1 0 0 1 203 56)" fill="#E3DC9C"/>
<ellipse cx="64" cy="15" rx="3" ry="2" fill="#E3DC9C"/>
<ellipse cx="3" cy="2" rx="3" ry="2" transform="matrix(-1 0 0 1 166 27)" fill="#E3DC9C"/>
<ellipse cx="3" cy="2" rx="3" ry="2" transform="matrix(-1 0 0 1 306 13)" fill="#E3DC9C"/>
<ellipse cx="73.5" cy="35" rx="1.5" ry="1" fill="#E3DC9C"/>
<ellipse cx="126.5" cy="50" rx="1.5" ry="1" fill="#E3DC9C"/>
<ellipse cx="227.5" cy="22" rx="1.5" ry="1" fill="#E3DC9C"/>
<ellipse cx="235.5" cy="28" rx="1.5" ry="1" fill="#E3DC9C"/>
<ellipse cx="331.5" cy="57" rx="1.5" ry="1" fill="#E3DC9C"/>
</svg>
