<svg width="32" height="32" viewBox="0 0 32 32" fill="none" xmlns="http://www.w3.org/2000/svg">
<path d="M8.5 5.99999C4.3916 9.26934 3 15.2808 3 17C3 22.2083 3 23.5 6 28C6.5 28 9.2 28 16 28H26C28.5 23.5 29 22.2083 29 17C29 15.0838 26.6501 8.98556 21.5 5.99999M8.5 5.99999C8.80861 5.75441 9.14341 6.69458 9.5 6.49999M8.5 5.99999L9.5 6.49999M9.5 6.49999C11.2994 5.51807 13.654 3.99999 16 3.99999C17.67 3.99999 20.1679 3.89512 21.5 4.49999M21.5 4.49999C21.8444 4.65637 21.1777 5.81314 21.5 5.99999M21.5 4.49999V5.99999" stroke="black" stroke-width="2" stroke-miterlimit="10" stroke-linejoin="round"/>
</svg>
