<svg width="380" height="100" viewBox="0 0 380 100" fill="none" xmlns="http://www.w3.org/2000/svg">
<g clip-path="url(#clip0_4_197)">
<path d="M32.6558 25.1982C54.6336 21.3985 81.1069 23.6783 189.498 23.6783C230.456 24.0738 275.911 25.1982 323.862 25.1982C371.814 25.1982 355.83 32.7977 366.819 43.817C377.808 54.8363 358.328 74.9749 338.847 84.8543C323.263 92.7578 293.726 94.227 280.906 93.9737V89.794C267.419 90.9339 231.356 92.9098 194.992 91.6938C149.538 90.1739 49.6387 82.5744 32.6558 78.7747C19.0694 75.7349 15.3399 72.4418 15.1734 71.1752H25.1633C21.8333 69.2753 13.4751 63.8037 6.68192 57.1161C-1.80953 48.7567 10.6779 28.998 32.6558 25.1982Z" fill="#F0A362" stroke="#D9955D" stroke-width="3"/>
<path d="M6.5 29L3 52.2947C7 58.9503 17 67.0321 20 67.9829C22.4 68.7436 24 43.8959 24 36.131L6.5 29Z" fill="#C28451" stroke="#D9955D" stroke-width="3"/>
<path d="M351 76.5L361.5 49.5L373 32C373.333 37.5 373.3 47.6 368.5 58C363.7 68.4 354.833 74.6667 351 76.5Z" fill="#C28451" stroke="#D9955D" stroke-width="3"/>
<path d="M16.5282 50L14 69.9521C18.0452 76.6027 29.6751 78.0279 32.709 78.978C35.1361 79.7381 21.5847 60.6094 21.5847 52.8503L16.5282 50Z" fill="#C28451" stroke="#D9955D" stroke-width="3"/>
<path d="M35.6558 3.1982C57.6336 -0.601548 84.1069 1.6783 192.498 1.6783C233.456 2.07381 278.911 3.1982 326.862 3.1982C374.814 3.1982 358.83 10.7977 369.819 21.817C380.808 32.8363 361.328 52.9749 341.847 62.8543C326.263 70.7578 296.726 72.227 283.906 71.9737V67.794C270.419 68.9339 234.356 70.9098 197.992 69.6938C152.538 68.174 52.6387 60.5744 35.6558 56.7747C22.0694 53.7349 18.3399 50.4418 18.1734 49.1752H28.1633C24.8333 47.2753 16.4751 41.8037 9.68192 35.1161C1.19047 26.7567 13.6779 6.99795 35.6558 3.1982Z" fill="#F3ECE2" stroke="#D9955D" stroke-width="3"/>
<path d="M281 93L284 72V67.5L277.5 90L281 93Z" stroke="#D9955D" stroke-width="3"/>
<path d="M253 50C277.847 48.3963 295.353 27.9489 301 17.9257C301 11.2436 291.4 8.30343 253 50Z" fill="#D2C5B1"/>
<path d="M232 46C249.6 44.9754 262 31.9118 266 25.5081C266 21.239 259.2 19.3605 232 46Z" fill="#D2C5B1"/>
<path d="M126 52C143.6 50.9754 156 37.9118 160 31.5081C160 27.239 153.2 25.3605 126 52Z" fill="#D2C5B1" fill-opacity="0.4"/>
<path d="M125.81 45.0119C142.06 38.1753 149.392 21.7237 151.027 14.3525C149.603 10.3279 142.566 10.8253 125.81 45.0119Z" fill="#D2C5B1"/>
<path d="M150 27.1441C166.5 21.6861 183.123 25.9989 189.321 21.6861C191.001 17.7614 162.5 0.999999 150 27.1441Z" fill="#D2C5B1"/>
<path d="M109 31C110.216 33.9336 101.268 44.8942 98.1143 46.0784C94.9607 47.2626 84.2162 49.0121 83 46.0784C81.7838 43.1448 90.5565 36.6389 93.71 35.4547C96.8636 34.2705 107.784 28.0663 109 31Z" fill="#D2C5B1"/>
<path d="M93.7287 30.7402C93.1066 33.4825 83.4655 37.464 81.2379 36.8789C79.0104 36.2938 72.4193 32.604 73.0414 29.8617C73.6635 27.1194 81.2632 26.3631 83.4908 26.9482C85.7183 27.5333 94.3508 27.9979 93.7287 30.7402Z" fill="#D2C5B1" fill-opacity="0.4"/>
<path d="M316 32C317.216 34.9336 308.268 45.8942 305.114 47.0784C301.961 48.2626 291.216 50.0121 290 47.0784C288.784 44.1448 297.556 37.6389 300.71 36.4547C303.864 35.2705 314.784 29.0663 316 32Z" fill="#D2C5B1" fill-opacity="0.4"/>
<path d="M237.29 32.5508C237.998 35.2723 231.263 43.2381 229.016 43.7418C226.769 44.2455 219.219 43.9963 218.512 41.2747C217.805 38.5532 224.207 34.3899 226.455 33.8862C228.702 33.3825 236.583 29.8292 237.29 32.5508Z" fill="#D2C5B1"/>
<path d="M204 36.0914C212.8 35.3301 219 25.6224 221 20.8638C221 17.6914 217.6 16.2955 204 36.0914Z" fill="#D2C5B1" fill-opacity="0.5"/>
<path d="M231.08 28.2849C235.546 31.0626 250.106 22.9528 256.828 18.5506C260.776 15.0684 261.154 12.1401 231.08 28.2849Z" fill="#D2C5B1" fill-opacity="0.5"/>
<ellipse cx="2.88535" cy="2.99335" rx="2.88535" ry="2.99335" transform="matrix(-0.689979 0.723829 -0.90405 -0.427427 235 19)" fill="#D2C5B1" fill-opacity="0.5"/>
<ellipse cx="3.53875" cy="5.50423" rx="3.53875" ry="5.50423" transform="matrix(0.991875 0.127216 -0.613577 0.789635 247 10)" fill="#D2C5B1" fill-opacity="0.5"/>
</g>
<defs>
<clipPath id="clip0_4_197">
<rect width="380" height="100" fill="white"/>
</clipPath>
</defs>
</svg>
