<svg width="32" height="32" viewBox="0 0 32 32" fill="none" xmlns="http://www.w3.org/2000/svg">
<path d="M8.5 6C4.3916 9.26935 3 15.2808 3 17C3 21.8446 3 23.3005 5.41435 27.1017C5.77287 27.6662 6.39966 28 7.06836 28C8.45341 28 11.2091 28 16 28H24.8232C25.5495 28 26.2218 27.6053 26.5683 26.9669C28.5776 23.2653 29 21.7869 29 17C29 15.0838 26.6501 8.98556 21.5 6M8.5 6C8.80861 5.75442 9.14341 6.69459 9.5 6.5M8.5 6L9.5 6.5M9.5 6.5C11.2994 5.51807 13.654 4 16 4C17.67 4 20.1679 3.89513 21.5 4.5M21.5 4.5C21.8444 4.65637 21.1777 5.81315 21.5 6M21.5 4.5V6" stroke="white"/>
</svg>
